M48
;Layer_Color=9474304
;FILE_FORMAT=4:4
METRIC
;TYPE=PLATED
T1F00S00C0.3000
T2F00S00C0.7500
T3F00S00C1.0160
T4F00S00C1.1000
T5F00S00C1.6000
T6F00S00C3.1000
T7F00S00C3.2000
%
T01
X00626157Y00023169
X00635433
X00645089
Y00033169
X00635433
X00626157
Y00043572
X00635433
X00645089
Y00053843
X00635433
X00626157
X00683692Y00046332
Y00038497
Y00030789
X00691692
X00699337
Y00038497
X00691692
Y00046332
X00699337
X00707337Y00038497
Y00030789
X00699337Y00022543
X00691692
X00683692
X00735534Y00003976
X00741836Y-00000689
X00751907Y00020349
X00765302Y00076329
X00758985Y00110132
X00722064Y00128095
X00723601Y00154527
Y00166313
X00736593
Y00154279
X00767855Y00180536
X00780856Y00182830
X00767496Y00229820
X00790358Y00237070
X00779551Y00276308
X00766992Y00272724
X00736593Y00257339
Y00249503
X00728593
Y00257339
X00709150Y00258926
Y00266762
Y00274470
X00701150
Y00266762
Y00258926
Y00282716
X00709150
X00706699Y00310699
Y00319694
Y00328559
X00697980Y00323872
Y00314402
X00690062Y00318542
X00689796Y00310096
X00690062Y00328559
X00664681Y00344210
X00655693
X00647061Y00344579
X00648909Y00353161
X00657606Y00352603
X00666977
X00662026Y00360580
X00652675
X00644049
X00648909Y00283222
X00656745
X00664453
Y00275222
X00656745
X00648909
X00672699
Y00283222
X00667749Y00229428
X00653799Y00234851
Y00223851
X00626712Y00223851
Y00234851
X00646213Y00188259
Y00177431
Y00166937
X00604487
Y00176283
Y00185873
Y00121663
Y00110132
Y00098752
X00650503
Y00110051
Y00121663
X00703401Y00226686
Y00234521
X00711401
Y00226686
X00766992Y00321000
X00791053Y00329421
X00567373Y00330356
X00559373
Y00322110
Y00314402
Y00306567
X00567373
Y00314402
Y00322110
Y00340913
Y00348749
Y00356457
X00559373
Y00348749
Y00340913
Y00364703
X00567373
X00515706Y00363335
Y00371043
X00507706
Y00363335
Y00355499
X00515706
Y00345231
X00507706
Y00336985
Y00329277
Y00321442
X00516000
X00515706Y00329277
Y00336985
Y00312255
X00507710Y00312260
X00464783Y00307403
Y00317539
X00464497Y00340913
Y00348749
Y00356457
X00456497
Y00348749
Y00340913
Y00364703
X00464497
X00423454Y00357581
X00413909
X00403381
X00403173Y00345703
X00413700
X00423246
X00422949Y00334591
X00413403
X00402876
X00355314Y00316154
Y00306879
Y00297223
X00344911
Y00306879
Y00316154
X00334911
Y00306879
Y00297223
X00348126Y00257454
Y00248179
Y00238523
X00358126
Y00248179
Y00257454
X00368530
Y00248179
Y00238523
X00378800
Y00248179
Y00257454
X00436752Y00246506
X00444752
Y00238260
Y00230552
Y00222717
X00436752
Y00230552
Y00238260
X00452767Y00251990
X00463000
Y00217828
X00452271
X00451628Y00170111
X00443628
Y00161865
Y00154157
Y00146321
X00451628
Y00154157
Y00161865
X00433148Y00119054
Y00111219
X00425148
Y00119054
X00403933Y00129533
Y00137368
X00395933
Y00129533
X00366243Y00181372
Y00191028
Y00200303
X00355972
Y00191028
Y00181372
X00345569
Y00191028
Y00200303
X00335569
Y00191028
Y00181372
X00248738Y00177757
X00223619Y00175401
X00199318Y00173274
X00192094Y00211960
X00223564Y00202360
X00258804Y00201074
X00264779Y00245156
X00270910Y00290233
X00216153Y00265949
X00198663Y00259948
X00194852Y00345443
X00238772Y00355203
X00281659Y00368987
X00279279Y00030218
X00438384Y00027444
X00441106Y00059003
X00453106Y00059092
X00469606Y00059191
X00468871Y00048822
X00513806Y00046297
X00515860Y00058903
X00498783Y00083645
X00485442
X00530029Y00099516
X00557030Y00102663
X00553265Y00085015
Y00063730
X00519984Y00019872
X00533228Y00146444
Y00154279
Y00161987
X00541227
Y00154279
Y00146444
X00550453
Y00154279
Y00161987
X00558453
Y00154279
Y00170233
X00550453
X00541227
X00533228
Y00223300
Y00231136
Y00238843
X00525227
Y00231136
Y00223300
Y00247090
X00533228
X00188486Y00250692
X00183934Y00277540
X00159218Y00278724
X00142803Y00279024
X00145042Y00309460
X00159542
X00183934Y00308258
X00164131Y00350453
X00169517Y00365983
X00134921Y00350953
X00117673Y00354639
X00093134Y00363810
X00078211Y00367863
X00076553Y00359650
Y00350686
X00099859Y00291459
X00054993Y00284184
X00132586Y00219462
X00122400Y00202742
X00159372Y00198524
Y00188524
Y00208524
X00167172Y00206724
Y00214924
X00175622Y00217574
X00175554Y00211203
X00175117Y00204574
X00184071Y00188074
X00187264Y00178253
X00148648Y00171143
X00129692Y00158564
X00118611Y00137204
X00138191Y00131786
X00128557Y00101812
X00101317Y00121220
X00117880Y00053738
X00159372Y00218524
X00152684Y00230558
X00171462Y00227983
X00187368Y00385503
X00188028Y00422121
Y00435821
X00164480Y00430280
X00129601Y00400883
X00084760Y00385503
X00081464Y00377692
X00055206Y00429964
X00039206Y00416713
X00032633Y00464869
X00030666Y00524399
X00043942Y00551434
X00093134Y00542959
X00089944Y00581927
X00093738Y00590147
X00042235Y00610300
Y00623000
Y00635773
X00019050Y00647042
X00114802Y00682540
X00121861Y00687421
X00127135Y00514622
X00109330Y00506965
X00087071Y00484348
X00171958Y00490761
X00180321Y00513264
X00159189Y00517933
X00195953Y00511054
X00236744Y00499581
X00225811Y00473765
X00216673Y00471703
X00218728Y00455372
X00212878Y00446970
Y00435821
X00224028
Y00422121
X00212878
Y00410970
X00199178
Y00422121
Y00435821
Y00446970
X00189749Y00401499
X00212323Y00377005
X00289779Y00381099
X00283854Y00387405
X00288739Y00409152
X00283495Y00415985
X00317078Y00419139
X00331666Y00412943
X00309666Y00401013
X00317409Y00383037
X00328495Y00376127
X00365119
Y00416393
X00364250Y00426610
X00351570Y00432372
X00360887Y00469182
X00362645Y00476171
X00378992Y00490067
X00394491Y00491000
Y00505490
X00394364Y00466483
X00390905Y00452711
X00394699Y00443666
X00413947Y00450740
Y00457740
Y00464740
X00419947Y00461240
Y00454240
X00425947Y00450740
Y00457740
Y00464740
X00431947Y00461240
Y00454240
X00437947Y00457707
Y00450740
X00443947Y00454240
Y00461240
X00449947Y00464740
Y00457740
Y00450740
X00455947Y00454240
Y00461240
X00463347Y00464740
Y00457707
Y00450740
X00480706Y00456171
X00489021Y00456170
X00497147
Y00464520
X00489021
X00480706Y00464521
X00483000Y00487671
Y00495507
X00475000
Y00487671
X00467000
Y00495507
X00459000
Y00487671
X00451000
X00451000Y00495507
Y00503215
X00443000
Y00495507
Y00487671
X00435000
Y00495507
Y00503215
X00434878Y00511461
X00442878
X00450878
X00491000Y00495507
X00505838Y00464132
Y00455783
X00515001Y00455324
Y00463960
X00508507Y00429075
X00511352Y00416393
Y00408043
Y00398601
Y00390251
X00501807
Y00398601
Y00408043
Y00416393
X00491279
Y00408043
Y00398601
Y00390251
X00471486Y00408652
X00464653Y00413895
X00458150Y00408321
X00451751Y00414000
X00445179Y00408494
X00438503Y00413895
X00431669Y00408652
X00437947Y00464740
X00550453Y00457677
X00558453
Y00449431
Y00441723
Y00433887
X00550453
Y00441723
Y00449431
Y00424023
X00558453
Y00415777
Y00408069
Y00400233
X00550453
Y00408069
Y00415777
X00585620Y00420792
Y00449072
X00586308Y00553745
X00578472
X00570764
Y00561745
X00578472
X00586308
X00562518
Y00553745
X00320681Y00573969
X00306973Y00589829
X00275734Y00615864
X00283854Y00635879
X00289863Y00644647
X00320681Y00654785
X00350178Y00643892
X00357635Y00742802
X00227355Y00631188
X00220361Y00625731
X00214156Y00620863
X00206028Y00618626
X00226680Y00581927
X00217603Y00550244
X00222114Y00542959
X00256279Y00481240
X00264213Y00461214
X00273369Y00461491
X00281659Y00463616
X00288739Y00466459
X00295789Y00470891
X00302665Y00474999
Y00448073
X00295363Y00442921
X00597701Y00439622
Y00447458
Y00455165
X00605701
Y00447458
Y00439622
Y00430956
X00597701
Y00422710
Y00415002
Y00407166
X00605701
Y00415002
Y00422710
X00619734Y00420533
Y00449507
X00605701Y00463411
X00597701
X00607035Y00502751
Y00510459
Y00518294
X00615035
Y00510459
Y00502751
Y00527041
X00607035
Y00535287
Y00542995
X00615035
Y00535287
X00685359Y00532682
X00693359
Y00540928
Y00548636
Y00556471
X00685359
Y00548636
Y00540928
X00706348Y00526540
X00714349
Y00518294
X00706348
X00706498Y00563922
X00714498
Y00572168
X00706498
X00757227Y00568045
X00765227
Y00559799
X00757227
X00775443Y00556471
Y00548636
Y00540928
X00783443
Y00548636
Y00556471
Y00532682
X00775443
X00765227Y00529837
X00757227
Y00521591
X00765227
X00765709Y00468538
X00755491Y00468655
X00745098
X00735153
X00735088Y00460393
Y00451118
Y00441462
X00745088
X00755491
X00765762
X00776366Y00441114
X00771908Y00451118
Y00460393
X00781459
Y00451118
X00760450
Y00460393
X00776361Y00468655
X00756493Y00402823
Y00393547
Y00383892
X00746223
Y00393547
Y00402823
X00735819
Y00393547
Y00383892
X00725819
Y00393547
Y00402823
X00670621Y00406471
X00662621
Y00414717
Y00422425
Y00430261
X00670621
Y00422425
Y00414717
X00651412Y00420533
Y00448158
X00662621Y00450196
Y00457904
Y00465740
X00670621
Y00457904
Y00450196
Y00441950
X00662621
X00305670Y00787542
X00290248Y00773808
X00269696Y00787542
T02
X00457739Y00235799
X00507739
X00710653Y00544533
X00760653
T03
X00270787Y00353703
X00113760Y00252348
X00118378Y00452124
X00109979Y00473752
X00113760Y00527148
X00157646Y00604522
X00035963Y00573387
X00201037Y00547622
X00255809Y00518694
T04
X00138337Y00718971
Y00744371
X00163737
Y00718971
X00189137
Y00744371
X00214537
Y00718971
X00239937
X00265337
X00290737
X00316137
Y00744371
X00290737
X00265337
X00239937
T05
X00626986Y00112783
Y00176283
X00626699Y00283356
Y00346856
X00399360Y00099533
X00335860
T06
X00183640Y00115920
Y00645920
X00714340
T07
X00793158Y00018958
X00034798Y00020828
X00790702Y00774446
X00034290Y00774700
M30
