G04*
G04 #@! TF.GenerationSoftware,Altium Limited,Altium Designer,23.1.1 (15)*
G04*
G04 Layer_Color=8388736*
%FSLAX44Y44*%
%MOMM*%
G71*
G04*
G04 #@! TF.SameCoordinates,9C76BA79-DA27-457B-B569-9ED225C8ECFE*
G04*
G04*
G04 #@! TF.FilePolarity,Negative*
G04*
G01*
G75*
G04:AMPARAMS|DCode=32|XSize=0.25mm|YSize=0.555mm|CornerRadius=0.05mm|HoleSize=0mm|Usage=FLASHONLY|Rotation=270.000|XOffset=0mm|YOffset=0mm|HoleType=Round|Shape=RoundedRectangle|*
%AMROUNDEDRECTD32*
21,1,0.2500,0.4550,0,0,270.0*
21,1,0.1500,0.5550,0,0,270.0*
1,1,0.1000,-0.2275,-0.0750*
1,1,0.1000,-0.2275,0.0750*
1,1,0.1000,0.2275,0.0750*
1,1,0.1000,0.2275,-0.0750*
%
%ADD32ROUNDEDRECTD32*%
G04:AMPARAMS|DCode=34|XSize=0.25mm|YSize=0.555mm|CornerRadius=0.05mm|HoleSize=0mm|Usage=FLASHONLY|Rotation=180.000|XOffset=0mm|YOffset=0mm|HoleType=Round|Shape=RoundedRectangle|*
%AMROUNDEDRECTD34*
21,1,0.2500,0.4550,0,0,180.0*
21,1,0.1500,0.5550,0,0,180.0*
1,1,0.1000,-0.0750,0.2275*
1,1,0.1000,0.0750,0.2275*
1,1,0.1000,0.0750,-0.2275*
1,1,0.1000,-0.0750,-0.2275*
%
%ADD34ROUNDEDRECTD34*%
G04:AMPARAMS|DCode=41|XSize=1.1mm|YSize=2.05mm|CornerRadius=0.0495mm|HoleSize=0mm|Usage=FLASHONLY|Rotation=270.000|XOffset=0mm|YOffset=0mm|HoleType=Round|Shape=RoundedRectangle|*
%AMROUNDEDRECTD41*
21,1,1.1000,1.9510,0,0,270.0*
21,1,1.0010,2.0500,0,0,270.0*
1,1,0.0990,-0.9755,-0.5005*
1,1,0.0990,-0.9755,0.5005*
1,1,0.0990,0.9755,0.5005*
1,1,0.0990,0.9755,-0.5005*
%
%ADD41ROUNDEDRECTD41*%
G04:AMPARAMS|DCode=42|XSize=1.1mm|YSize=2.05mm|CornerRadius=0.0495mm|HoleSize=0mm|Usage=FLASHONLY|Rotation=0.000|XOffset=0mm|YOffset=0mm|HoleType=Round|Shape=RoundedRectangle|*
%AMROUNDEDRECTD42*
21,1,1.1000,1.9510,0,0,0.0*
21,1,1.0010,2.0500,0,0,0.0*
1,1,0.0990,0.5005,-0.9755*
1,1,0.0990,-0.5005,-0.9755*
1,1,0.0990,-0.5005,0.9755*
1,1,0.0990,0.5005,0.9755*
%
%ADD42ROUNDEDRECTD42*%
G04:AMPARAMS|DCode=43|XSize=0.6mm|YSize=0.24mm|CornerRadius=0.0504mm|HoleSize=0mm|Usage=FLASHONLY|Rotation=90.000|XOffset=0mm|YOffset=0mm|HoleType=Round|Shape=RoundedRectangle|*
%AMROUNDEDRECTD43*
21,1,0.6000,0.1392,0,0,90.0*
21,1,0.4992,0.2400,0,0,90.0*
1,1,0.1008,0.0696,0.2496*
1,1,0.1008,0.0696,-0.2496*
1,1,0.1008,-0.0696,-0.2496*
1,1,0.1008,-0.0696,0.2496*
%
%ADD43ROUNDEDRECTD43*%
G04:AMPARAMS|DCode=44|XSize=0.24mm|YSize=0.6mm|CornerRadius=0.0504mm|HoleSize=0mm|Usage=FLASHONLY|Rotation=90.000|XOffset=0mm|YOffset=0mm|HoleType=Round|Shape=RoundedRectangle|*
%AMROUNDEDRECTD44*
21,1,0.2400,0.4992,0,0,90.0*
21,1,0.1392,0.6000,0,0,90.0*
1,1,0.1008,0.2496,0.0696*
1,1,0.1008,0.2496,-0.0696*
1,1,0.1008,-0.2496,-0.0696*
1,1,0.1008,-0.2496,0.0696*
%
%ADD44ROUNDEDRECTD44*%
G04:AMPARAMS|DCode=46|XSize=2.38mm|YSize=3.45mm|CornerRadius=0.0476mm|HoleSize=0mm|Usage=FLASHONLY|Rotation=0.000|XOffset=0mm|YOffset=0mm|HoleType=Round|Shape=RoundedRectangle|*
%AMROUNDEDRECTD46*
21,1,2.3800,3.3548,0,0,0.0*
21,1,2.2848,3.4500,0,0,0.0*
1,1,0.0952,1.1424,-1.6774*
1,1,0.0952,-1.1424,-1.6774*
1,1,0.0952,-1.1424,1.6774*
1,1,0.0952,1.1424,1.6774*
%
%ADD46ROUNDEDRECTD46*%
G04:AMPARAMS|DCode=47|XSize=2.38mm|YSize=3.45mm|CornerRadius=0.0476mm|HoleSize=0mm|Usage=FLASHONLY|Rotation=270.000|XOffset=0mm|YOffset=0mm|HoleType=Round|Shape=RoundedRectangle|*
%AMROUNDEDRECTD47*
21,1,2.3800,3.3548,0,0,270.0*
21,1,2.2848,3.4500,0,0,270.0*
1,1,0.0952,-1.6774,-1.1424*
1,1,0.0952,-1.6774,1.1424*
1,1,0.0952,1.6774,1.1424*
1,1,0.0952,1.6774,-1.1424*
%
%ADD47ROUNDEDRECTD47*%
G04:AMPARAMS|DCode=48|XSize=1.05mm|YSize=0.45mm|CornerRadius=0.0495mm|HoleSize=0mm|Usage=FLASHONLY|Rotation=90.000|XOffset=0mm|YOffset=0mm|HoleType=Round|Shape=RoundedRectangle|*
%AMROUNDEDRECTD48*
21,1,1.0500,0.3510,0,0,90.0*
21,1,0.9510,0.4500,0,0,90.0*
1,1,0.0990,0.1755,0.4755*
1,1,0.0990,0.1755,-0.4755*
1,1,0.0990,-0.1755,-0.4755*
1,1,0.0990,-0.1755,0.4755*
%
%ADD48ROUNDEDRECTD48*%
G04:AMPARAMS|DCode=57|XSize=0.76mm|YSize=0.41mm|CornerRadius=0.0495mm|HoleSize=0mm|Usage=FLASHONLY|Rotation=270.000|XOffset=0mm|YOffset=0mm|HoleType=Round|Shape=RoundedRectangle|*
%AMROUNDEDRECTD57*
21,1,0.7600,0.3111,0,0,270.0*
21,1,0.6611,0.4100,0,0,270.0*
1,1,0.0989,-0.1556,-0.3306*
1,1,0.0989,-0.1556,0.3306*
1,1,0.0989,0.1556,0.3306*
1,1,0.0989,0.1556,-0.3306*
%
%ADD57ROUNDEDRECTD57*%
G04:AMPARAMS|DCode=58|XSize=0.76mm|YSize=0.41mm|CornerRadius=0.0495mm|HoleSize=0mm|Usage=FLASHONLY|Rotation=180.000|XOffset=0mm|YOffset=0mm|HoleType=Round|Shape=RoundedRectangle|*
%AMROUNDEDRECTD58*
21,1,0.7600,0.3111,0,0,180.0*
21,1,0.6611,0.4100,0,0,180.0*
1,1,0.0989,-0.3306,0.1556*
1,1,0.0989,0.3306,0.1556*
1,1,0.0989,0.3306,-0.1556*
1,1,0.0989,-0.3306,-0.1556*
%
%ADD58ROUNDEDRECTD58*%
G04:AMPARAMS|DCode=59|XSize=0.75mm|YSize=0.9mm|CornerRadius=0.0488mm|HoleSize=0mm|Usage=FLASHONLY|Rotation=180.000|XOffset=0mm|YOffset=0mm|HoleType=Round|Shape=RoundedRectangle|*
%AMROUNDEDRECTD59*
21,1,0.7500,0.8025,0,0,180.0*
21,1,0.6525,0.9000,0,0,180.0*
1,1,0.0975,-0.3263,0.4013*
1,1,0.0975,0.3263,0.4013*
1,1,0.0975,0.3263,-0.4013*
1,1,0.0975,-0.3263,-0.4013*
%
%ADD59ROUNDEDRECTD59*%
G04:AMPARAMS|DCode=60|XSize=0.6mm|YSize=0.5mm|CornerRadius=0.05mm|HoleSize=0mm|Usage=FLASHONLY|Rotation=0.000|XOffset=0mm|YOffset=0mm|HoleType=Round|Shape=RoundedRectangle|*
%AMROUNDEDRECTD60*
21,1,0.6000,0.4000,0,0,0.0*
21,1,0.5000,0.5000,0,0,0.0*
1,1,0.1000,0.2500,-0.2000*
1,1,0.1000,-0.2500,-0.2000*
1,1,0.1000,-0.2500,0.2000*
1,1,0.1000,0.2500,0.2000*
%
%ADD60ROUNDEDRECTD60*%
G04:AMPARAMS|DCode=61|XSize=0.8mm|YSize=0.9mm|CornerRadius=0.052mm|HoleSize=0mm|Usage=FLASHONLY|Rotation=90.000|XOffset=0mm|YOffset=0mm|HoleType=Round|Shape=RoundedRectangle|*
%AMROUNDEDRECTD61*
21,1,0.8000,0.7960,0,0,90.0*
21,1,0.6960,0.9000,0,0,90.0*
1,1,0.1040,0.3980,0.3480*
1,1,0.1040,0.3980,-0.3480*
1,1,0.1040,-0.3980,-0.3480*
1,1,0.1040,-0.3980,0.3480*
%
%ADD61ROUNDEDRECTD61*%
G04:AMPARAMS|DCode=62|XSize=0.8mm|YSize=0.9mm|CornerRadius=0.052mm|HoleSize=0mm|Usage=FLASHONLY|Rotation=0.000|XOffset=0mm|YOffset=0mm|HoleType=Round|Shape=RoundedRectangle|*
%AMROUNDEDRECTD62*
21,1,0.8000,0.7960,0,0,0.0*
21,1,0.6960,0.9000,0,0,0.0*
1,1,0.1040,0.3480,-0.3980*
1,1,0.1040,-0.3480,-0.3980*
1,1,0.1040,-0.3480,0.3980*
1,1,0.1040,0.3480,0.3980*
%
%ADD62ROUNDEDRECTD62*%
G04:AMPARAMS|DCode=63|XSize=0.65mm|YSize=0.7mm|CornerRadius=0.0488mm|HoleSize=0mm|Usage=FLASHONLY|Rotation=90.000|XOffset=0mm|YOffset=0mm|HoleType=Round|Shape=RoundedRectangle|*
%AMROUNDEDRECTD63*
21,1,0.6500,0.6025,0,0,90.0*
21,1,0.5525,0.7000,0,0,90.0*
1,1,0.0975,0.3013,0.2763*
1,1,0.0975,0.3013,-0.2763*
1,1,0.0975,-0.3013,-0.2763*
1,1,0.0975,-0.3013,0.2763*
%
%ADD63ROUNDEDRECTD63*%
G04:AMPARAMS|DCode=64|XSize=0.825mm|YSize=1.325mm|CornerRadius=0.0495mm|HoleSize=0mm|Usage=FLASHONLY|Rotation=90.000|XOffset=0mm|YOffset=0mm|HoleType=Round|Shape=RoundedRectangle|*
%AMROUNDEDRECTD64*
21,1,0.8250,1.2260,0,0,90.0*
21,1,0.7260,1.3250,0,0,90.0*
1,1,0.0990,0.6130,0.3630*
1,1,0.0990,0.6130,-0.3630*
1,1,0.0990,-0.6130,-0.3630*
1,1,0.0990,-0.6130,0.3630*
%
%ADD64ROUNDEDRECTD64*%
G04:AMPARAMS|DCode=65|XSize=1.1mm|YSize=0.6mm|CornerRadius=0.051mm|HoleSize=0mm|Usage=FLASHONLY|Rotation=0.000|XOffset=0mm|YOffset=0mm|HoleType=Round|Shape=RoundedRectangle|*
%AMROUNDEDRECTD65*
21,1,1.1000,0.4980,0,0,0.0*
21,1,0.9980,0.6000,0,0,0.0*
1,1,0.1020,0.4990,-0.2490*
1,1,0.1020,-0.4990,-0.2490*
1,1,0.1020,-0.4990,0.2490*
1,1,0.1020,0.4990,0.2490*
%
%ADD65ROUNDEDRECTD65*%
G04:AMPARAMS|DCode=68|XSize=1mm|YSize=1.6mm|CornerRadius=0.05mm|HoleSize=0mm|Usage=FLASHONLY|Rotation=90.000|XOffset=0mm|YOffset=0mm|HoleType=Round|Shape=RoundedRectangle|*
%AMROUNDEDRECTD68*
21,1,1.0000,1.5000,0,0,90.0*
21,1,0.9000,1.6000,0,0,90.0*
1,1,0.1000,0.7500,0.4500*
1,1,0.1000,0.7500,-0.4500*
1,1,0.1000,-0.7500,-0.4500*
1,1,0.1000,-0.7500,0.4500*
%
%ADD68ROUNDEDRECTD68*%
G04:AMPARAMS|DCode=70|XSize=3.58mm|YSize=4mm|CornerRadius=0.0537mm|HoleSize=0mm|Usage=FLASHONLY|Rotation=270.000|XOffset=0mm|YOffset=0mm|HoleType=Round|Shape=RoundedRectangle|*
%AMROUNDEDRECTD70*
21,1,3.5800,3.8926,0,0,270.0*
21,1,3.4726,4.0000,0,0,270.0*
1,1,0.1074,-1.9463,-1.7363*
1,1,0.1074,-1.9463,1.7363*
1,1,0.1074,1.9463,1.7363*
1,1,0.1074,1.9463,-1.7363*
%
%ADD70ROUNDEDRECTD70*%
G04:AMPARAMS|DCode=71|XSize=3.58mm|YSize=4mm|CornerRadius=0.0537mm|HoleSize=0mm|Usage=FLASHONLY|Rotation=180.000|XOffset=0mm|YOffset=0mm|HoleType=Round|Shape=RoundedRectangle|*
%AMROUNDEDRECTD71*
21,1,3.5800,3.8926,0,0,180.0*
21,1,3.4726,4.0000,0,0,180.0*
1,1,0.1074,-1.7363,1.9463*
1,1,0.1074,1.7363,1.9463*
1,1,0.1074,1.7363,-1.9463*
1,1,0.1074,-1.7363,-1.9463*
%
%ADD71ROUNDEDRECTD71*%
%ADD72R,0.7620X1.0160*%
%ADD73R,0.1800X0.2500*%
%ADD74R,0.2500X0.1800*%
%ADD75R,6.4500X5.3800*%
%ADD76R,5.4300X5.6900*%
%ADD77R,1.0500X1.1000*%
G04:AMPARAMS|DCode=78|XSize=0.4mm|YSize=0.77mm|CornerRadius=0.0995mm|HoleSize=0mm|Usage=FLASHONLY|Rotation=0.000|XOffset=0mm|YOffset=0mm|HoleType=Round|Shape=RoundedRectangle|*
%AMROUNDEDRECTD78*
21,1,0.4000,0.5710,0,0,0.0*
21,1,0.2010,0.7700,0,0,0.0*
1,1,0.1990,0.1005,-0.2855*
1,1,0.1990,-0.1005,-0.2855*
1,1,0.1990,-0.1005,0.2855*
1,1,0.1990,0.1005,0.2855*
%
%ADD78ROUNDEDRECTD78*%
%ADD79R,1.1000X1.0500*%
G04:AMPARAMS|DCode=80|XSize=4.1mm|YSize=4.1mm|CornerRadius=0.041mm|HoleSize=0mm|Usage=FLASHONLY|Rotation=90.000|XOffset=0mm|YOffset=0mm|HoleType=Round|Shape=RoundedRectangle|*
%AMROUNDEDRECTD80*
21,1,4.1000,4.0180,0,0,90.0*
21,1,4.0180,4.1000,0,0,90.0*
1,1,0.0820,2.0090,2.0090*
1,1,0.0820,2.0090,-2.0090*
1,1,0.0820,-2.0090,-2.0090*
1,1,0.0820,-2.0090,2.0090*
%
%ADD80ROUNDEDRECTD80*%
G04:AMPARAMS|DCode=81|XSize=0.4mm|YSize=0.55mm|CornerRadius=0.0995mm|HoleSize=0mm|Usage=FLASHONLY|Rotation=90.000|XOffset=0mm|YOffset=0mm|HoleType=Round|Shape=RoundedRectangle|*
%AMROUNDEDRECTD81*
21,1,0.4000,0.3510,0,0,90.0*
21,1,0.2010,0.5500,0,0,90.0*
1,1,0.1990,0.1755,0.1005*
1,1,0.1990,0.1755,-0.1005*
1,1,0.1990,-0.1755,-0.1005*
1,1,0.1990,-0.1755,0.1005*
%
%ADD81ROUNDEDRECTD81*%
G04:AMPARAMS|DCode=82|XSize=1.1mm|YSize=1.7mm|CornerRadius=0.1mm|HoleSize=0mm|Usage=FLASHONLY|Rotation=0.000|XOffset=0mm|YOffset=0mm|HoleType=Round|Shape=RoundedRectangle|*
%AMROUNDEDRECTD82*
21,1,1.1000,1.5000,0,0,0.0*
21,1,0.9000,1.7000,0,0,0.0*
1,1,0.2000,0.4500,-0.7500*
1,1,0.2000,-0.4500,-0.7500*
1,1,0.2000,-0.4500,0.7500*
1,1,0.2000,0.4500,0.7500*
%
%ADD82ROUNDEDRECTD82*%
G04:AMPARAMS|DCode=83|XSize=0.7mm|YSize=1.1mm|CornerRadius=0.101mm|HoleSize=0mm|Usage=FLASHONLY|Rotation=0.000|XOffset=0mm|YOffset=0mm|HoleType=Round|Shape=RoundedRectangle|*
%AMROUNDEDRECTD83*
21,1,0.7000,0.8980,0,0,0.0*
21,1,0.4980,1.1000,0,0,0.0*
1,1,0.2020,0.2490,-0.4490*
1,1,0.2020,-0.2490,-0.4490*
1,1,0.2020,-0.2490,0.4490*
1,1,0.2020,0.2490,0.4490*
%
%ADD83ROUNDEDRECTD83*%
%ADD84R,0.4810X0.7096*%
%ADD85R,1.2000X1.7000*%
G04:AMPARAMS|DCode=86|XSize=0.7mm|YSize=1.1mm|CornerRadius=0.101mm|HoleSize=0mm|Usage=FLASHONLY|Rotation=270.000|XOffset=0mm|YOffset=0mm|HoleType=Round|Shape=RoundedRectangle|*
%AMROUNDEDRECTD86*
21,1,0.7000,0.8980,0,0,270.0*
21,1,0.4980,1.1000,0,0,270.0*
1,1,0.2020,-0.4490,-0.2490*
1,1,0.2020,-0.4490,0.2490*
1,1,0.2020,0.4490,0.2490*
1,1,0.2020,0.4490,-0.2490*
%
%ADD86ROUNDEDRECTD86*%
%ADD87R,1.4000X1.9500*%
%ADD88R,0.7000X0.9000*%
%ADD89R,2.8900X0.8400*%
%ADD90R,1.3700X1.7002*%
%ADD91R,1.0150X1.3200*%
%ADD92R,1.3200X1.0150*%
%ADD93R,1.7000X1.2000*%
%ADD94R,0.9000X0.9000*%
%ADD95R,1.7000X1.7000*%
%ADD96C,1.7000*%
G04:AMPARAMS|DCode=97|XSize=1.25mm|YSize=1.25mm|CornerRadius=0.05mm|HoleSize=0mm|Usage=FLASHONLY|Rotation=0.000|XOffset=0mm|YOffset=0mm|HoleType=Round|Shape=RoundedRectangle|*
%AMROUNDEDRECTD97*
21,1,1.2500,1.1500,0,0,0.0*
21,1,1.1500,1.2500,0,0,0.0*
1,1,0.1000,0.5750,-0.5750*
1,1,0.1000,-0.5750,-0.5750*
1,1,0.1000,-0.5750,0.5750*
1,1,0.1000,0.5750,0.5750*
%
%ADD97ROUNDEDRECTD97*%
%ADD98C,1.2500*%
G04:AMPARAMS|DCode=99|XSize=2.2mm|YSize=2.2mm|CornerRadius=0.575mm|HoleSize=0mm|Usage=FLASHONLY|Rotation=90.000|XOffset=0mm|YOffset=0mm|HoleType=Round|Shape=RoundedRectangle|*
%AMROUNDEDRECTD99*
21,1,2.2000,1.0500,0,0,90.0*
21,1,1.0500,2.2000,0,0,90.0*
1,1,1.1500,0.5250,0.5250*
1,1,1.1500,0.5250,-0.5250*
1,1,1.1500,-0.5250,-0.5250*
1,1,1.1500,-0.5250,0.5250*
%
%ADD99ROUNDEDRECTD99*%
%ADD100C,2.2000*%
%ADD101C,5.1000*%
G04:AMPARAMS|DCode=102|XSize=2.2mm|YSize=2.2mm|CornerRadius=0.575mm|HoleSize=0mm|Usage=FLASHONLY|Rotation=0.000|XOffset=0mm|YOffset=0mm|HoleType=Round|Shape=RoundedRectangle|*
%AMROUNDEDRECTD102*
21,1,2.2000,1.0500,0,0,0.0*
21,1,1.0500,2.2000,0,0,0.0*
1,1,1.1500,0.5250,-0.5250*
1,1,1.1500,-0.5250,-0.5250*
1,1,1.1500,-0.5250,0.5250*
1,1,1.1500,0.5250,0.5250*
%
%ADD102ROUNDEDRECTD102*%
%ADD103C,0.6080*%
%ADD104C,1.3700*%
%ADD105C,3.6080*%
G36*
X154656Y220998D02*
X154796Y220857D01*
X154872Y220673D01*
X154872Y220574D01*
X154872D01*
X154872Y201074D01*
Y200974D01*
X154796Y200790D01*
X154656Y200650D01*
X154472Y200574D01*
X154372Y200574D01*
X144122Y200574D01*
X144023Y200574D01*
X143839Y200650D01*
X143699Y200790D01*
X143622Y200974D01*
X143622Y201073D01*
Y201073D01*
X143622Y202074D01*
X143613Y202171D01*
X143538Y202351D01*
X143400Y202489D01*
X143220Y202564D01*
X143122Y202574D01*
X143122Y202574D01*
X140372D01*
X140273Y202574D01*
X140089Y202650D01*
X139948Y202790D01*
X139872Y202974D01*
Y203074D01*
Y203074D01*
X139872Y204574D01*
Y204673D01*
X139949Y204857D01*
X140089Y204998D01*
X140273Y205074D01*
X140372D01*
X140372Y205074D01*
X143122Y205074D01*
X143220Y205083D01*
X143400Y205158D01*
X143538Y205296D01*
X143613Y205476D01*
X143622Y205574D01*
X143622Y205574D01*
X143622Y207074D01*
X143613Y207171D01*
X143538Y207351D01*
X143400Y207489D01*
X143220Y207564D01*
X143122Y207574D01*
X143122Y207574D01*
X140372D01*
X140273Y207574D01*
X140089Y207650D01*
X139948Y207790D01*
X139872Y207974D01*
X139872Y208074D01*
X139872Y209574D01*
Y209673D01*
X139948Y209857D01*
X140089Y209998D01*
X140273Y210074D01*
X140372D01*
X140372Y210074D01*
X143122D01*
X143220Y210083D01*
X143400Y210158D01*
X143538Y210296D01*
X143613Y210476D01*
X143622Y210574D01*
X143622Y212074D01*
X143613Y212171D01*
X143538Y212351D01*
X143400Y212489D01*
X143220Y212564D01*
X143122Y212574D01*
X140372D01*
X140273Y212574D01*
X140089Y212650D01*
X139948Y212790D01*
X139872Y212974D01*
X139872Y213074D01*
X139872Y214574D01*
X139872Y214673D01*
X139948Y214857D01*
X140089Y214998D01*
X140273Y215074D01*
X140372Y215074D01*
X140372Y215074D01*
X143122Y215074D01*
X143220Y215083D01*
X143400Y215158D01*
X143538Y215296D01*
X143613Y215476D01*
X143622Y215574D01*
X143622Y215574D01*
X143622Y217074D01*
X143613Y217171D01*
X143538Y217351D01*
X143400Y217489D01*
X143220Y217564D01*
X143122Y217574D01*
X143122Y217574D01*
X140372D01*
X140273Y217574D01*
X140089Y217650D01*
X139948Y217790D01*
X139872Y217974D01*
X139872Y218074D01*
X139872Y219574D01*
Y219673D01*
X139948Y219857D01*
X140089Y219998D01*
X140273Y220074D01*
X140372D01*
X140372Y220074D01*
X143122D01*
X143220Y220083D01*
X143400Y220158D01*
X143538Y220296D01*
X143613Y220476D01*
X143622Y220574D01*
X143622Y220574D01*
Y220673D01*
X143698Y220857D01*
X143839Y220998D01*
X144023Y221074D01*
X144122D01*
X144122Y221074D01*
X154372Y221074D01*
X154472Y221074D01*
X154656Y220998D01*
D02*
G37*
G36*
X174622Y221074D02*
X174722D01*
X174905Y220998D01*
X175046Y220857D01*
X175122Y220673D01*
X175122Y220574D01*
Y220574D01*
X175132Y220476D01*
X175207Y220296D01*
X175345Y220158D01*
X175525Y220083D01*
X175622Y220074D01*
X178372D01*
X178372Y220074D01*
X178472Y220074D01*
X178655Y219998D01*
X178796Y219857D01*
X178872Y219673D01*
X178872Y219574D01*
X178872Y218074D01*
X178872D01*
X178872Y217974D01*
X178796Y217790D01*
X178655Y217650D01*
X178472Y217574D01*
X178372Y217574D01*
X175622D01*
Y217574D01*
X175525Y217564D01*
X175345Y217489D01*
X175207Y217351D01*
X175132Y217171D01*
X175122Y217074D01*
Y215574D01*
Y215574D01*
X175132Y215476D01*
X175207Y215296D01*
X175345Y215158D01*
X175525Y215083D01*
X175622Y215074D01*
X178372D01*
Y215074D01*
X178472Y215074D01*
X178655Y214998D01*
X178796Y214857D01*
X178872Y214673D01*
X178872Y214574D01*
X178872Y213074D01*
X178872D01*
X178872Y212974D01*
X178796Y212790D01*
X178655Y212650D01*
X178472Y212574D01*
X178372Y212574D01*
X175622D01*
X175525Y212564D01*
X175345Y212489D01*
X175207Y212351D01*
X175132Y212171D01*
X175122Y212074D01*
Y210574D01*
X175132Y210476D01*
X175207Y210296D01*
X175345Y210158D01*
X175525Y210083D01*
X175622Y210074D01*
X178372Y210074D01*
X178372Y210074D01*
X178472Y210074D01*
X178655Y209998D01*
X178796Y209857D01*
X178872Y209673D01*
X178872Y209574D01*
X178872Y208074D01*
X178872D01*
X178872Y207974D01*
X178796Y207790D01*
X178655Y207650D01*
X178472Y207574D01*
X178372Y207574D01*
X175622D01*
Y207574D01*
X175525Y207564D01*
X175345Y207489D01*
X175207Y207351D01*
X175132Y207171D01*
X175122Y207074D01*
X175122Y205574D01*
X175132Y205476D01*
X175207Y205296D01*
X175345Y205158D01*
X175525Y205083D01*
X175622Y205074D01*
X178372Y205074D01*
X178372Y205074D01*
X178472D01*
X178655Y204998D01*
X178796Y204857D01*
X178872Y204673D01*
Y204574D01*
X178872Y203074D01*
X178872D01*
Y202974D01*
X178796Y202790D01*
X178655Y202650D01*
X178472Y202574D01*
X178372Y202574D01*
X175622Y202574D01*
Y202574D01*
X175525Y202564D01*
X175345Y202489D01*
X175207Y202351D01*
X175132Y202171D01*
X175122Y202074D01*
X175122Y201073D01*
X175122Y201073D01*
X175122Y200974D01*
X175046Y200790D01*
X174905Y200650D01*
X174722Y200574D01*
X174622D01*
X164372Y200574D01*
X164273Y200574D01*
X164089Y200650D01*
X163948Y200790D01*
X163872Y200974D01*
Y201074D01*
X163872Y220574D01*
X163872D01*
X163872Y220673D01*
X163948Y220857D01*
X164089Y220998D01*
X164273Y221074D01*
X164372D01*
X174622Y221074D01*
Y221074D01*
D02*
G37*
G36*
X178655Y195497D02*
X178796Y195357D01*
X178872Y195173D01*
Y195074D01*
Y193574D01*
Y193474D01*
X178796Y193290D01*
X178655Y193150D01*
X178472Y193074D01*
X168273D01*
X168089Y193150D01*
X167948Y193290D01*
X167872Y193474D01*
Y193574D01*
X167872D01*
Y195074D01*
Y195173D01*
X167948Y195357D01*
X168089Y195497D01*
X168273Y195574D01*
X178472D01*
X178655Y195497D01*
D02*
G37*
G36*
X150655D02*
X150796Y195357D01*
X150872Y195173D01*
Y195074D01*
X150872Y193574D01*
Y193474D01*
X150796Y193290D01*
X150655Y193150D01*
X150472Y193074D01*
X140273D01*
X140089Y193150D01*
X139948Y193290D01*
X139872Y193474D01*
Y193574D01*
Y195074D01*
Y195173D01*
X139948Y195357D01*
X140089Y195497D01*
X140273Y195574D01*
X150472D01*
X150655Y195497D01*
D02*
G37*
G36*
X178655Y190497D02*
X178796Y190357D01*
X178872Y190173D01*
Y190074D01*
X178872D01*
X178872Y188574D01*
Y188474D01*
X178796Y188290D01*
X178655Y188150D01*
X178472Y188074D01*
X178372D01*
Y188074D01*
X168372Y188074D01*
X168273D01*
X168089Y188150D01*
X167948Y188290D01*
X167872Y188474D01*
Y188574D01*
Y190074D01*
Y190173D01*
X167948Y190357D01*
X168089Y190497D01*
X168273Y190574D01*
X178472D01*
X178655Y190497D01*
D02*
G37*
G36*
X150655D02*
X150796Y190357D01*
X150872Y190173D01*
Y190074D01*
Y188574D01*
Y188474D01*
X150796Y188290D01*
X150655Y188150D01*
X150472Y188074D01*
X150372D01*
Y188074D01*
X140372Y188074D01*
X140273D01*
X140089Y188150D01*
X139948Y188290D01*
X139872Y188474D01*
Y188574D01*
X139872D01*
X139872Y190074D01*
Y190173D01*
X139948Y190357D01*
X140089Y190497D01*
X140273Y190574D01*
X150472D01*
X150655Y190497D01*
D02*
G37*
G36*
X178655Y183002D02*
X178796Y182862D01*
X178872Y182678D01*
Y182579D01*
X178872D01*
X178872Y179829D01*
Y179729D01*
X178796Y179545D01*
X178655Y179405D01*
X178472Y179329D01*
X168273D01*
X168089Y179405D01*
X167948Y179545D01*
X167872Y179729D01*
Y179829D01*
Y182579D01*
Y182678D01*
X167948Y182862D01*
X168089Y183002D01*
X168273Y183079D01*
X178472D01*
X178655Y183002D01*
D02*
G37*
G36*
X150655D02*
X150796Y182862D01*
X150872Y182678D01*
Y182579D01*
Y179829D01*
Y179729D01*
X150796Y179545D01*
X150655Y179405D01*
X150472Y179329D01*
X140273D01*
X140089Y179405D01*
X139948Y179545D01*
X139872Y179729D01*
Y179829D01*
X139872D01*
X139872Y182579D01*
Y182678D01*
X139948Y182862D01*
X140089Y183002D01*
X140273Y183079D01*
X150472D01*
X150655Y183002D01*
D02*
G37*
G36*
X160655Y191502D02*
X160796Y191362D01*
X160872Y191178D01*
Y191079D01*
Y176829D01*
Y176729D01*
X160796Y176545D01*
X160655Y176405D01*
X160472Y176329D01*
X158273D01*
X158089Y176405D01*
X157948Y176545D01*
X157872Y176729D01*
Y176829D01*
Y191079D01*
Y191178D01*
X157948Y191362D01*
X158089Y191502D01*
X158273Y191579D01*
X160472D01*
X160655Y191502D01*
D02*
G37*
G36*
X155406Y184247D02*
X155546Y184107D01*
X155622Y183923D01*
Y183824D01*
Y176824D01*
Y176724D01*
X155546Y176540D01*
X155406Y176400D01*
X155222Y176324D01*
X153523D01*
X153339Y176400D01*
X153198Y176540D01*
X153122Y176724D01*
Y176824D01*
Y183824D01*
X153122Y183923D01*
X153198Y184107D01*
X153339Y184247D01*
X153523Y184324D01*
X155222D01*
X155406Y184247D01*
D02*
G37*
G36*
X165406D02*
X165546Y184107D01*
X165622Y183923D01*
Y183824D01*
Y176824D01*
Y176724D01*
X165546Y176540D01*
X165406Y176400D01*
X165222Y176324D01*
X165122D01*
Y176324D01*
X163622Y176324D01*
X163523D01*
X163339Y176400D01*
X163198Y176540D01*
X163122Y176724D01*
Y176824D01*
Y183824D01*
Y183923D01*
X163198Y184107D01*
X163339Y184247D01*
X163523Y184324D01*
X165222D01*
X165406Y184247D01*
D02*
G37*
%LPC*%
G36*
X154372Y200574D02*
X154372D01*
D01*
X154372D01*
D02*
G37*
%LPD*%
D32*
X763723Y413802D02*
D03*
X716273D02*
D03*
X373716Y209628D02*
D03*
X326265D02*
D03*
D34*
X655051Y64268D02*
D03*
Y16818D02*
D03*
D41*
X522007Y427763D02*
D03*
Y460763D02*
D03*
X436954Y427489D02*
D03*
Y460489D02*
D03*
X494207Y427489D02*
D03*
Y460489D02*
D03*
X465771D02*
D03*
Y427489D02*
D03*
D42*
X501477Y310699D02*
D03*
X468477D02*
D03*
X650412Y434659D02*
D03*
X617412D02*
D03*
X650412Y463007D02*
D03*
X617412D02*
D03*
X650412Y407033D02*
D03*
X617412D02*
D03*
X553938Y462572D02*
D03*
X586938D02*
D03*
X553938Y434291D02*
D03*
X586938D02*
D03*
X553449Y406986D02*
D03*
X586449D02*
D03*
X556007Y367078D02*
D03*
X523007D02*
D03*
X468477Y366824D02*
D03*
X501477D02*
D03*
X523007Y338930D02*
D03*
X556007D02*
D03*
X468477Y338677D02*
D03*
X501478D02*
D03*
X523007Y310699D02*
D03*
X556007D02*
D03*
D43*
X178528Y394971D02*
D03*
X183528D02*
D03*
X188528D02*
D03*
X193528D02*
D03*
X198528D02*
D03*
X203528D02*
D03*
X208528D02*
D03*
X213528D02*
D03*
X218528D02*
D03*
X223528D02*
D03*
X228528D02*
D03*
X233528D02*
D03*
Y462970D02*
D03*
X228528D02*
D03*
X223528D02*
D03*
X218528D02*
D03*
X213528D02*
D03*
X208528D02*
D03*
X203528D02*
D03*
X198528D02*
D03*
X193528D02*
D03*
X188528D02*
D03*
X183528D02*
D03*
X178528D02*
D03*
D44*
X240028Y401470D02*
D03*
Y406471D02*
D03*
Y411470D02*
D03*
Y416471D02*
D03*
Y421470D02*
D03*
Y426471D02*
D03*
Y431471D02*
D03*
Y436471D02*
D03*
Y441471D02*
D03*
Y446471D02*
D03*
Y451471D02*
D03*
Y456471D02*
D03*
X172028D02*
D03*
Y451471D02*
D03*
Y446471D02*
D03*
Y441471D02*
D03*
Y436471D02*
D03*
Y431471D02*
D03*
Y426471D02*
D03*
Y421470D02*
D03*
Y416471D02*
D03*
Y411470D02*
D03*
Y406471D02*
D03*
Y401470D02*
D03*
D46*
X514327Y158066D02*
D03*
X470127D02*
D03*
D47*
X733312Y276283D02*
D03*
Y320483D02*
D03*
Y229351D02*
D03*
Y185151D02*
D03*
D48*
X760492Y311812D02*
D03*
X766992D02*
D03*
X773492D02*
D03*
X779991D02*
D03*
Y285812D02*
D03*
X773492D02*
D03*
X766992D02*
D03*
X760492D02*
D03*
X761356Y220522D02*
D03*
X767855D02*
D03*
X774356D02*
D03*
X780856D02*
D03*
Y194522D02*
D03*
X774356D02*
D03*
X767855D02*
D03*
X761356D02*
D03*
D57*
X759048Y433702D02*
D03*
X746348D02*
D03*
X733648D02*
D03*
X759048Y377302D02*
D03*
X746348D02*
D03*
X733648D02*
D03*
X720948D02*
D03*
Y433702D02*
D03*
X369041Y173128D02*
D03*
X356341D02*
D03*
X343641D02*
D03*
X330941D02*
D03*
Y229528D02*
D03*
X369041D02*
D03*
X356341D02*
D03*
X343641D02*
D03*
D58*
X674951Y59593D02*
D03*
X618550D02*
D03*
Y46893D02*
D03*
Y34193D02*
D03*
Y21493D02*
D03*
X674951Y46893D02*
D03*
Y34193D02*
D03*
Y21493D02*
D03*
D59*
X394491Y513164D02*
D03*
X378992D02*
D03*
Y497817D02*
D03*
X394491D02*
D03*
D60*
X367788Y467892D02*
D03*
X378788D02*
D03*
X369562Y426927D02*
D03*
X380562D02*
D03*
D61*
X130129Y432830D02*
D03*
Y447830D02*
D03*
D62*
X196247Y502554D02*
D03*
X211248D02*
D03*
D63*
X241694Y505194D02*
D03*
Y518694D02*
D03*
X197264Y196932D02*
D03*
Y183432D02*
D03*
X159122Y244059D02*
D03*
Y230558D02*
D03*
D64*
X143521Y246732D02*
D03*
Y230732D02*
D03*
D65*
X110027Y303774D02*
D03*
Y294274D02*
D03*
Y284774D02*
D03*
X136026D02*
D03*
Y303774D02*
D03*
D68*
X235860Y175274D02*
D03*
Y205274D02*
D03*
X211378Y175528D02*
D03*
Y205528D02*
D03*
D70*
X739998Y398002D02*
D03*
X349991Y193828D02*
D03*
D71*
X639250Y40543D02*
D03*
D72*
X347015Y376784D02*
D03*
D73*
X719302Y413799D02*
D03*
X760702D02*
D03*
X329291Y209628D02*
D03*
X370691D02*
D03*
D74*
X655049Y19836D02*
D03*
Y61236D02*
D03*
D75*
X524764Y743104D02*
D03*
D76*
X575514Y522354D02*
D03*
X474014D02*
D03*
D77*
X91643Y121220D02*
D03*
Y137220D02*
D03*
X246036Y298329D02*
D03*
Y282329D02*
D03*
X766235Y108632D02*
D03*
Y92632D02*
D03*
X746176Y65271D02*
D03*
Y81271D02*
D03*
X797607Y311028D02*
D03*
Y295028D02*
D03*
X797909Y219522D02*
D03*
Y203522D02*
D03*
X252543Y671611D02*
D03*
Y655611D02*
D03*
X252389Y639023D02*
D03*
Y623023D02*
D03*
X268825Y639023D02*
D03*
Y623023D02*
D03*
Y671611D02*
D03*
Y655611D02*
D03*
X696722Y453921D02*
D03*
Y469921D02*
D03*
X297550Y605998D02*
D03*
Y589998D02*
D03*
X320681Y590346D02*
D03*
Y606346D02*
D03*
X339766Y590392D02*
D03*
Y606392D02*
D03*
X359500Y590147D02*
D03*
Y606147D02*
D03*
X142171Y367203D02*
D03*
Y351203D02*
D03*
X156881Y367203D02*
D03*
Y351203D02*
D03*
X181441Y504225D02*
D03*
Y488225D02*
D03*
X162267Y504226D02*
D03*
Y488225D02*
D03*
X126220Y366953D02*
D03*
Y350953D02*
D03*
X129601Y421027D02*
D03*
Y405027D02*
D03*
X145462Y430171D02*
D03*
Y446171D02*
D03*
X147658Y398292D02*
D03*
Y414291D02*
D03*
X225637Y505183D02*
D03*
Y521183D02*
D03*
X246022Y368039D02*
D03*
Y352038D02*
D03*
X129326Y195506D02*
D03*
Y179506D02*
D03*
X92610Y286774D02*
D03*
Y302774D02*
D03*
X152292Y285959D02*
D03*
Y301959D02*
D03*
D78*
X129692Y137204D02*
D03*
X134692Y152004D02*
D03*
X129692D02*
D03*
X124692D02*
D03*
Y137204D02*
D03*
X134692D02*
D03*
D79*
X111123Y151854D02*
D03*
X95123D02*
D03*
X128557Y122787D02*
D03*
X112557D02*
D03*
X553265Y74695D02*
D03*
X537265D02*
D03*
X537265Y92266D02*
D03*
X553265D02*
D03*
X269997Y297254D02*
D03*
X285997D02*
D03*
X781709Y329421D02*
D03*
X765709D02*
D03*
X780633Y237070D02*
D03*
X764633D02*
D03*
X359070Y455872D02*
D03*
X375070D02*
D03*
X359070Y439622D02*
D03*
X375070D02*
D03*
X188486Y241068D02*
D03*
X204486D02*
D03*
X222078Y225694D02*
D03*
X206078D02*
D03*
X195687Y487108D02*
D03*
X211687D02*
D03*
X115704Y436471D02*
D03*
X99704D02*
D03*
X202188Y372255D02*
D03*
X218188D02*
D03*
X180957Y521872D02*
D03*
X196957D02*
D03*
X272781Y421957D02*
D03*
X288781D02*
D03*
D80*
X206028Y428970D02*
D03*
D81*
X644049Y235851D02*
D03*
Y229351D02*
D03*
Y222851D02*
D03*
X663549Y235851D02*
D03*
Y229351D02*
D03*
Y222851D02*
D03*
X616962D02*
D03*
Y229351D02*
D03*
Y235851D02*
D03*
X636461D02*
D03*
Y229351D02*
D03*
Y222851D02*
D03*
D82*
X653799Y229351D02*
D03*
X626712D02*
D03*
D83*
X274279Y282199D02*
D03*
X264779Y254699D02*
D03*
X283779D02*
D03*
X264779Y282199D02*
D03*
X283779D02*
D03*
D84*
X368284Y476171D02*
D03*
X378443D02*
D03*
X370204Y416406D02*
D03*
X380364D02*
D03*
D85*
X530029Y112163D02*
D03*
X564029D02*
D03*
X195612Y355203D02*
D03*
X229612D02*
D03*
D86*
X749527Y110132D02*
D03*
X722027Y119632D02*
D03*
Y100632D02*
D03*
X749527Y119632D02*
D03*
Y100632D02*
D03*
D87*
X724601Y67418D02*
D03*
X695601D02*
D03*
X283166Y230294D02*
D03*
X312165D02*
D03*
D88*
X88801Y466156D02*
D03*
Y478156D02*
D03*
X126951Y494051D02*
D03*
Y506051D02*
D03*
X112030Y423464D02*
D03*
Y411464D02*
D03*
X110446Y497476D02*
D03*
Y485476D02*
D03*
D89*
X56154Y654785D02*
D03*
X96854D02*
D03*
X56154Y642085D02*
D03*
Y629385D02*
D03*
Y616685D02*
D03*
Y603985D02*
D03*
X96854Y642085D02*
D03*
Y629385D02*
D03*
Y616685D02*
D03*
Y603985D02*
D03*
D90*
X336856Y376788D02*
D03*
X357176D02*
D03*
D91*
X716805Y454971D02*
D03*
X749555D02*
D03*
D92*
X194729Y276951D02*
D03*
Y309701D02*
D03*
D93*
X171143Y310692D02*
D03*
Y276693D02*
D03*
D94*
X297550Y645068D02*
D03*
Y630067D02*
D03*
X339766Y628893D02*
D03*
Y643892D02*
D03*
X320681Y628860D02*
D03*
Y643860D02*
D03*
X359500Y628647D02*
D03*
Y643647D02*
D03*
D95*
X138337Y718971D02*
D03*
D96*
Y744371D02*
D03*
X163737Y718971D02*
D03*
X189137D02*
D03*
X214537D02*
D03*
X239937D02*
D03*
X265337D02*
D03*
X290737D02*
D03*
X316137D02*
D03*
X163737Y744371D02*
D03*
X189137D02*
D03*
X214537D02*
D03*
X239937D02*
D03*
X265337D02*
D03*
X290737D02*
D03*
X316137D02*
D03*
D97*
X457739Y235799D02*
D03*
X760653Y544533D02*
D03*
D98*
X507739Y235799D02*
D03*
X710653Y544533D02*
D03*
D99*
X626699Y283356D02*
D03*
X626986Y112783D02*
D03*
D100*
X626699Y346856D02*
D03*
X626986Y176283D02*
D03*
X399360Y99533D02*
D03*
D101*
X34798Y20828D02*
D03*
X793158Y18958D02*
D03*
X34290Y774700D02*
D03*
X790702Y774446D02*
D03*
D102*
X335860Y99533D02*
D03*
D103*
X471486Y408652D02*
D03*
X458150Y408321D02*
D03*
X445179Y408494D02*
D03*
X431669Y408652D02*
D03*
D104*
X157646Y604522D02*
D03*
X113760Y252348D02*
D03*
X255809Y518694D02*
D03*
X109979Y473752D02*
D03*
X118378Y452124D02*
D03*
X113760Y527148D02*
D03*
X201037Y547622D02*
D03*
X270787Y353703D02*
D03*
X35963Y573387D02*
D03*
D105*
X714340Y645920D02*
D03*
X183640D02*
D03*
Y115920D02*
D03*
M02*
