G04*
G04 #@! TF.GenerationSoftware,Altium Limited,Altium Designer,23.1.1 (15)*
G04*
G04 Layer_Physical_Order=2*
G04 Layer_Color=36540*
%FSLAX44Y44*%
%MOMM*%
G71*
G04*
G04 #@! TF.SameCoordinates,9C76BA79-DA27-457B-B569-9ED225C8ECFE*
G04*
G04*
G04 #@! TF.FilePolarity,Positive*
G04*
G01*
G75*
%ADD22C,0.2540*%
G04:AMPARAMS|DCode=97|XSize=1.25mm|YSize=1.25mm|CornerRadius=0.05mm|HoleSize=0mm|Usage=FLASHONLY|Rotation=0.000|XOffset=0mm|YOffset=0mm|HoleType=Round|Shape=RoundedRectangle|*
%AMROUNDEDRECTD97*
21,1,1.2500,1.1500,0,0,0.0*
21,1,1.1500,1.2500,0,0,0.0*
1,1,0.1000,0.5750,-0.5750*
1,1,0.1000,-0.5750,-0.5750*
1,1,0.1000,-0.5750,0.5750*
1,1,0.1000,0.5750,0.5750*
%
%ADD97ROUNDEDRECTD97*%
%ADD98C,1.2500*%
%ADD123R,1.6000X1.6000*%
%ADD124C,1.6000*%
G04:AMPARAMS|DCode=125|XSize=2.1mm|YSize=2.1mm|CornerRadius=0.525mm|HoleSize=0mm|Usage=FLASHONLY|Rotation=90.000|XOffset=0mm|YOffset=0mm|HoleType=Round|Shape=RoundedRectangle|*
%AMROUNDEDRECTD125*
21,1,2.1000,1.0500,0,0,90.0*
21,1,1.0500,2.1000,0,0,90.0*
1,1,1.0500,0.5250,0.5250*
1,1,1.0500,0.5250,-0.5250*
1,1,1.0500,-0.5250,-0.5250*
1,1,1.0500,-0.5250,0.5250*
%
%ADD125ROUNDEDRECTD125*%
%ADD126C,2.1000*%
%ADD127C,5.0000*%
G04:AMPARAMS|DCode=128|XSize=2.1mm|YSize=2.1mm|CornerRadius=0.525mm|HoleSize=0mm|Usage=FLASHONLY|Rotation=0.000|XOffset=0mm|YOffset=0mm|HoleType=Round|Shape=RoundedRectangle|*
%AMROUNDEDRECTD128*
21,1,2.1000,1.0500,0,0,0.0*
21,1,1.0500,2.1000,0,0,0.0*
1,1,1.0500,0.5250,-0.5250*
1,1,1.0500,-0.5250,-0.5250*
1,1,1.0500,-0.5250,0.5250*
1,1,1.0500,0.5250,0.5250*
%
%ADD128ROUNDEDRECTD128*%
%ADD129C,0.5080*%
%ADD130C,1.2700*%
%ADD131C,3.5080*%
G36*
X382264Y791469D02*
Y539113D01*
X406407Y514970D01*
Y468761D01*
X405989Y468036D01*
X405407Y465864D01*
Y463616D01*
X405989Y461444D01*
X406106Y461240D01*
X405989Y461036D01*
X405407Y458864D01*
Y456616D01*
X405989Y454444D01*
X406106Y454240D01*
X405989Y454036D01*
X405407Y451864D01*
Y449616D01*
X405989Y447444D01*
X406407Y446719D01*
Y444208D01*
X411693Y438921D01*
Y422940D01*
X397905Y409152D01*
X351283D01*
X341428Y399296D01*
Y362902D01*
X321904Y343378D01*
X233727D01*
X214545Y324196D01*
Y274359D01*
X212856Y273907D01*
X210909Y272783D01*
X209319Y271193D01*
X208195Y269245D01*
X207613Y267073D01*
Y264825D01*
X208195Y262653D01*
X209319Y260705D01*
X210909Y259115D01*
X212856Y257991D01*
X215028Y257409D01*
X216078D01*
X264203Y209284D01*
X263423Y208268D01*
X262100Y209032D01*
X259928Y209614D01*
X257680D01*
X255508Y209032D01*
X253560Y207907D01*
X251970Y206317D01*
X250846Y204370D01*
X250264Y202198D01*
Y199949D01*
X250846Y197777D01*
X251970Y195830D01*
X253560Y194240D01*
X255508Y193116D01*
X257680Y192534D01*
X259928D01*
X262100Y193116D01*
X264048Y194240D01*
X265637Y195830D01*
X266762Y197777D01*
X267344Y199949D01*
Y202198D01*
X266762Y204370D01*
X265998Y205693D01*
X267014Y206472D01*
X292665Y180822D01*
Y75034D01*
X286864Y69233D01*
Y36830D01*
X414254D01*
X424230Y46806D01*
Y78098D01*
X429442Y83310D01*
X476902D01*
Y82521D01*
X477484Y80349D01*
X478608Y78401D01*
X480198Y76811D01*
X482146Y75687D01*
X484318Y75105D01*
X486566D01*
X488738Y75687D01*
X490686Y76811D01*
X492113Y78238D01*
X493540Y76811D01*
X495487Y75687D01*
X497659Y75105D01*
X499907D01*
X502080Y75687D01*
X504027Y76811D01*
X505617Y78401D01*
X506741Y80349D01*
X507323Y82521D01*
Y83310D01*
X511877D01*
X523007Y94440D01*
Y119798D01*
X527583Y124373D01*
X568852D01*
X574771Y118454D01*
Y21314D01*
X588464Y7620D01*
X707337D01*
X767902Y68185D01*
X768598Y68372D01*
X770546Y69496D01*
X772136Y71086D01*
X773260Y73033D01*
X773447Y73730D01*
X794321Y94604D01*
Y158560D01*
X778816Y174066D01*
X763474D01*
X752319Y185220D01*
Y332201D01*
X756991Y336873D01*
X784631D01*
X785157Y335603D01*
X784219Y334665D01*
X783095Y332717D01*
X782513Y330545D01*
Y328297D01*
X783095Y326125D01*
X784219Y324177D01*
X785809Y322587D01*
X787757Y321463D01*
X789929Y320881D01*
X792177D01*
X794349Y321463D01*
X796297Y322587D01*
X797887Y324177D01*
X799011Y326125D01*
X799593Y328297D01*
Y330545D01*
X799011Y332717D01*
X797887Y334665D01*
X796948Y335603D01*
X797474Y336873D01*
X806889D01*
X820420Y323342D01*
Y65745D01*
X803023Y48348D01*
X800417Y49195D01*
X795598Y49958D01*
X790719D01*
X785899Y49195D01*
X781258Y47687D01*
X776911Y45472D01*
X772963Y42604D01*
X769513Y39153D01*
X766645Y35206D01*
X764429Y30858D01*
X762922Y26218D01*
X762158Y21398D01*
Y16518D01*
X762922Y11699D01*
X763768Y9094D01*
X751263Y-3412D01*
X750124Y-2754D01*
X750376Y-1813D01*
Y436D01*
X749794Y2608D01*
X748670Y4555D01*
X747080Y6145D01*
X745133Y7269D01*
X743193Y7789D01*
X742367Y9219D01*
X740777Y10809D01*
X738830Y11934D01*
X736658Y12516D01*
X734409D01*
X732237Y11934D01*
X730290Y10809D01*
X728700Y9219D01*
X727576Y7272D01*
X726994Y5100D01*
Y2851D01*
X727576Y679D01*
X728700Y-1268D01*
X730290Y-2858D01*
X732237Y-3982D01*
X734177Y-4502D01*
X735003Y-5932D01*
X736593Y-7522D01*
X738540Y-8647D01*
X740712Y-9229D01*
X742833D01*
X743151Y-9566D01*
X743606Y-10371D01*
X743412Y-10668D01*
X83820D01*
X63698Y9454D01*
X65035Y13569D01*
X65798Y18388D01*
Y23268D01*
X65035Y28087D01*
X63527Y32728D01*
X61312Y37075D01*
X58444Y41023D01*
X54993Y44473D01*
X51046Y47341D01*
X46698Y49557D01*
X42057Y51065D01*
X37238Y51828D01*
X32359D01*
X27539Y51065D01*
X23424Y49728D01*
X11176Y61976D01*
Y641244D01*
X12446Y641569D01*
X13806Y640208D01*
X15754Y639084D01*
X17926Y638502D01*
X20174D01*
X22346Y639084D01*
X24294Y640208D01*
X25884Y641798D01*
X27008Y643746D01*
X27590Y645918D01*
Y648166D01*
X27008Y650338D01*
X25884Y652286D01*
X24294Y653876D01*
X22346Y655000D01*
X20174Y655582D01*
X17926D01*
X15754Y655000D01*
X13806Y653876D01*
X12446Y652515D01*
X11176Y652840D01*
Y739648D01*
X19150Y747622D01*
X22390Y745971D01*
X27031Y744463D01*
X31851Y743700D01*
X36730D01*
X41549Y744463D01*
X46190Y745971D01*
X50538Y748186D01*
X54485Y751054D01*
X57936Y754505D01*
X60804Y758452D01*
X63019Y762800D01*
X64527Y767441D01*
X65290Y772260D01*
Y777140D01*
X64527Y781959D01*
X63019Y786600D01*
X61368Y789840D01*
X71199Y799671D01*
X374062D01*
X382264Y791469D01*
D02*
G37*
G36*
X771018Y798463D02*
X770507Y798092D01*
X767057Y794641D01*
X764188Y790694D01*
X761973Y786346D01*
X760465Y781705D01*
X759702Y776886D01*
Y772006D01*
X760465Y767187D01*
X761973Y762546D01*
X764188Y758198D01*
X767057Y754251D01*
X770507Y750800D01*
X774454Y747932D01*
X778802Y745717D01*
X783443Y744209D01*
X788262Y743446D01*
X793142D01*
X797961Y744209D01*
X802602Y745717D01*
X806949Y747932D01*
X810897Y750800D01*
X814348Y754251D01*
X817216Y758198D01*
X818455Y760630D01*
X820103Y761068D01*
X820420Y760861D01*
Y333653D01*
X819247Y333167D01*
X811215Y341199D01*
X809230Y342525D01*
X806889Y342990D01*
X797475D01*
X797474Y342990D01*
X795133Y342525D01*
X794139Y341861D01*
X793149Y341199D01*
X791823Y339214D01*
X791823Y339214D01*
X791740Y339015D01*
X790366D01*
X790283Y339214D01*
X790283Y339214D01*
X788957Y341199D01*
X787767Y341994D01*
X786973Y342525D01*
X784631Y342990D01*
X784631Y342990D01*
X756991D01*
X754650Y342525D01*
X752665Y341199D01*
X747994Y336527D01*
X746667Y334543D01*
X746202Y332201D01*
Y259379D01*
X744932Y259212D01*
X744551Y260635D01*
X743426Y262582D01*
X741836Y264172D01*
X739889Y265297D01*
X737717Y265879D01*
X735468D01*
X733296Y265297D01*
X732593Y264890D01*
X731889Y265297D01*
X729717Y265879D01*
X727468D01*
X725296Y265297D01*
X723349Y264172D01*
X721759Y262582D01*
X720635Y260635D01*
X720053Y258463D01*
Y256214D01*
X720635Y254042D01*
X720993Y253421D01*
X720635Y252799D01*
X720053Y250627D01*
Y248379D01*
X720635Y246207D01*
X721759Y244259D01*
X723349Y242669D01*
X725296Y241545D01*
X727468Y240963D01*
X729717D01*
X731889Y241545D01*
X732593Y241951D01*
X733296Y241545D01*
X735468Y240963D01*
X737717D01*
X739889Y241545D01*
X741836Y242669D01*
X743426Y244259D01*
X744551Y246207D01*
X744932Y247630D01*
X746202Y247463D01*
Y185220D01*
X746667Y182879D01*
X747994Y180895D01*
X759148Y169740D01*
X761133Y168414D01*
X763474Y167948D01*
X776282D01*
X788203Y156027D01*
Y97138D01*
X773181Y82116D01*
X771489Y82220D01*
X770546Y83163D01*
X768598Y84288D01*
X766426Y84869D01*
X764178D01*
X762006Y84288D01*
X760058Y83163D01*
X758468Y81573D01*
X757344Y79626D01*
X756762Y77454D01*
Y75205D01*
X757344Y73033D01*
X758468Y71086D01*
X760058Y69496D01*
X760117Y69051D01*
X704803Y13737D01*
X647794D01*
X647627Y15007D01*
X648385Y15211D01*
X650332Y16335D01*
X651922Y17925D01*
X653047Y19872D01*
X653629Y22044D01*
Y24293D01*
X653047Y26465D01*
X652063Y28169D01*
X653047Y29872D01*
X653629Y32044D01*
Y34293D01*
X653047Y36465D01*
X651947Y38370D01*
X653047Y40276D01*
X653629Y42448D01*
Y44696D01*
X653047Y46868D01*
X651985Y48707D01*
X653047Y50546D01*
X653629Y52718D01*
Y54967D01*
X653047Y57139D01*
X651922Y59086D01*
X650332Y60676D01*
X648385Y61801D01*
X646213Y62383D01*
X643964D01*
X641792Y61801D01*
X640261Y60916D01*
X638729Y61801D01*
X636557Y62383D01*
X634309D01*
X632136Y61801D01*
X630795Y61026D01*
X629454Y61801D01*
X627282Y62383D01*
X625033D01*
X622861Y61801D01*
X620914Y60676D01*
X619324Y59086D01*
X618199Y57139D01*
X617617Y54967D01*
Y52718D01*
X618199Y50546D01*
X619261Y48707D01*
X618199Y46868D01*
X617617Y44696D01*
Y42448D01*
X618199Y40276D01*
X619299Y38370D01*
X618199Y36465D01*
X617617Y34293D01*
Y32044D01*
X618199Y29872D01*
X619183Y28169D01*
X618199Y26465D01*
X617617Y24293D01*
Y22044D01*
X618199Y19872D01*
X619324Y17925D01*
X620914Y16335D01*
X622861Y15211D01*
X623619Y15007D01*
X623452Y13737D01*
X590998D01*
X580888Y23848D01*
Y118454D01*
X580423Y120795D01*
X579096Y122780D01*
X573177Y128699D01*
X571193Y130025D01*
X568852Y130491D01*
X527583D01*
X525242Y130025D01*
X523257Y128699D01*
X518681Y124123D01*
X517355Y122139D01*
X516890Y119798D01*
Y96974D01*
X509343Y89427D01*
X507323D01*
X505451Y89055D01*
X504027Y90478D01*
X502080Y91603D01*
X499907Y92185D01*
X497659D01*
X495487Y91603D01*
X493540Y90478D01*
X492113Y89052D01*
X490686Y90478D01*
X488738Y91603D01*
X486566Y92185D01*
X484318D01*
X482146Y91603D01*
X480198Y90478D01*
X478774Y89055D01*
X476902Y89427D01*
X429442D01*
X427101Y88962D01*
X425116Y87635D01*
X419905Y82424D01*
X418578Y80439D01*
X418113Y78098D01*
Y49340D01*
X411720Y42948D01*
X292981D01*
Y66699D01*
X296991Y70708D01*
X298317Y72693D01*
X298783Y75034D01*
Y180822D01*
X298317Y183163D01*
X296991Y185147D01*
X271340Y210798D01*
X270675Y211243D01*
X270073Y211770D01*
X269691Y211900D01*
X269655Y211924D01*
X269630Y211961D01*
X269501Y212343D01*
X268973Y212945D01*
X268528Y213610D01*
X222210Y259929D01*
X222986Y260705D01*
X224111Y262653D01*
X224693Y264825D01*
Y267073D01*
X224111Y269245D01*
X222986Y271193D01*
X221396Y272783D01*
X220518Y273290D01*
X220611Y273561D01*
X220584Y273964D01*
X220663Y274359D01*
Y321662D01*
X236261Y337260D01*
X321904D01*
X324245Y337726D01*
X326230Y339052D01*
X345754Y358576D01*
X347080Y360560D01*
X347545Y362902D01*
Y396762D01*
X353817Y403034D01*
X397905D01*
X400246Y403500D01*
X402231Y404826D01*
X416019Y418614D01*
X417345Y420599D01*
X417811Y422940D01*
Y438921D01*
X417345Y441262D01*
X416019Y443247D01*
X412519Y446747D01*
X412446Y447115D01*
X412472Y447517D01*
X412215Y448275D01*
X412059Y449060D01*
X411835Y449396D01*
X411705Y449778D01*
X411689Y449805D01*
X411524Y450421D01*
Y451059D01*
X411877Y452377D01*
X412015Y452656D01*
X412042Y453059D01*
X412171Y453441D01*
X412119Y454240D01*
X412171Y455038D01*
X412042Y455420D01*
X412015Y455823D01*
X411877Y456103D01*
X411524Y457421D01*
Y458059D01*
X411877Y459377D01*
X412015Y459657D01*
X412042Y460059D01*
X412171Y460441D01*
X412119Y461240D01*
X412171Y462039D01*
X412042Y462421D01*
X412015Y462823D01*
X411877Y463103D01*
X411524Y464421D01*
Y465059D01*
X411689Y465675D01*
X411705Y465702D01*
X411835Y466084D01*
X412059Y466420D01*
X412215Y467205D01*
X412472Y467962D01*
X412446Y468365D01*
X412524Y468761D01*
Y514970D01*
X412059Y517311D01*
X410733Y519295D01*
X388381Y541647D01*
Y791469D01*
X387916Y793810D01*
X386590Y795794D01*
X383887Y798497D01*
X384373Y799670D01*
X770625D01*
X771018Y798463D01*
D02*
G37*
%LPC*%
G36*
X306794Y796082D02*
X304546D01*
X302374Y795500D01*
X300426Y794376D01*
X298836Y792786D01*
X297712Y790839D01*
X297130Y788667D01*
Y786418D01*
X297712Y784246D01*
X298836Y782299D01*
X300426Y780709D01*
X302374Y779584D01*
X304546Y779002D01*
X306794D01*
X308966Y779584D01*
X310914Y780709D01*
X312504Y782299D01*
X313628Y784246D01*
X314210Y786418D01*
Y788667D01*
X313628Y790839D01*
X312504Y792786D01*
X310914Y794376D01*
X308966Y795500D01*
X306794Y796082D01*
D02*
G37*
G36*
X270821D02*
X268572D01*
X266400Y795500D01*
X264453Y794376D01*
X262863Y792786D01*
X261738Y790839D01*
X261156Y788667D01*
Y786418D01*
X261738Y784246D01*
X262863Y782299D01*
X264453Y780709D01*
X266400Y779584D01*
X268572Y779002D01*
X270821D01*
X272993Y779584D01*
X274940Y780709D01*
X276530Y782299D01*
X277654Y784246D01*
X278236Y786418D01*
Y788667D01*
X277654Y790839D01*
X276530Y792786D01*
X274940Y794376D01*
X272993Y795500D01*
X270821Y796082D01*
D02*
G37*
G36*
X292580Y758371D02*
X288894D01*
X285333Y757417D01*
X282141Y755574D01*
X279534Y752967D01*
X278672Y751474D01*
X277402D01*
X276540Y752967D01*
X273933Y755574D01*
X270741Y757417D01*
X267180Y758371D01*
X263494D01*
X259933Y757417D01*
X256741Y755574D01*
X254135Y752967D01*
X253272Y751474D01*
X252002D01*
X251140Y752967D01*
X248533Y755574D01*
X245341Y757417D01*
X241780Y758371D01*
X238094D01*
X234534Y757417D01*
X231341Y755574D01*
X228734Y752967D01*
X227872Y751474D01*
X226602D01*
X225740Y752967D01*
X223133Y755574D01*
X219941Y757417D01*
X216380Y758371D01*
X212694D01*
X209133Y757417D01*
X205941Y755574D01*
X203335Y752967D01*
X202472Y751474D01*
X201202D01*
X200340Y752967D01*
X197733Y755574D01*
X194541Y757417D01*
X190980Y758371D01*
X187294D01*
X183734Y757417D01*
X180541Y755574D01*
X177934Y752967D01*
X177072Y751474D01*
X175802D01*
X174940Y752967D01*
X172333Y755574D01*
X169141Y757417D01*
X165580Y758371D01*
X161894D01*
X158334Y757417D01*
X155141Y755574D01*
X152535Y752967D01*
X151672Y751474D01*
X150402D01*
X149540Y752967D01*
X146933Y755574D01*
X143741Y757417D01*
X140180Y758371D01*
X136494D01*
X132934Y757417D01*
X129741Y755574D01*
X127135Y752967D01*
X125291Y749775D01*
X124337Y746214D01*
Y742528D01*
X125291Y738967D01*
X127135Y735775D01*
X128668Y734241D01*
X128142Y732971D01*
X124337D01*
Y704971D01*
X152337D01*
Y708776D01*
X153607Y709302D01*
X155141Y707768D01*
X158334Y705925D01*
X161894Y704971D01*
X165580D01*
X169141Y705925D01*
X172333Y707768D01*
X174940Y710375D01*
X175802Y711868D01*
X177072D01*
X177934Y710375D01*
X180541Y707768D01*
X183734Y705925D01*
X187294Y704971D01*
X190980D01*
X194541Y705925D01*
X197733Y707768D01*
X200340Y710375D01*
X201202Y711868D01*
X202472D01*
X203335Y710375D01*
X205941Y707768D01*
X209133Y705925D01*
X212694Y704971D01*
X216380D01*
X219941Y705925D01*
X223133Y707768D01*
X225740Y710375D01*
X226602Y711868D01*
X227872D01*
X228734Y710375D01*
X231341Y707768D01*
X234534Y705925D01*
X238094Y704971D01*
X241780D01*
X245341Y705925D01*
X248533Y707768D01*
X251140Y710375D01*
X252002Y711868D01*
X253272D01*
X254135Y710375D01*
X256741Y707768D01*
X259933Y705925D01*
X263494Y704971D01*
X267180D01*
X270741Y705925D01*
X273933Y707768D01*
X276540Y710375D01*
X277402Y711868D01*
X278672D01*
X279534Y710375D01*
X282141Y707768D01*
X285333Y705925D01*
X288894Y704971D01*
X292580D01*
X296141Y705925D01*
X299333Y707768D01*
X301940Y710375D01*
X303783Y713567D01*
X304737Y717128D01*
Y720814D01*
X303783Y724375D01*
X301940Y727567D01*
X299333Y730174D01*
X297840Y731036D01*
Y732306D01*
X299333Y733168D01*
X301940Y735775D01*
X303783Y738967D01*
X304737Y742528D01*
Y746214D01*
X303783Y749775D01*
X301940Y752967D01*
X299333Y755574D01*
X296141Y757417D01*
X292580Y758371D01*
D02*
G37*
G36*
X122986Y695961D02*
X120737D01*
X118565Y695379D01*
X116618Y694255D01*
X115028Y692665D01*
X114113Y691080D01*
X113677D01*
X111505Y690498D01*
X109558Y689374D01*
X107968Y687784D01*
X106844Y685836D01*
X106262Y683664D01*
Y681416D01*
X106844Y679244D01*
X107968Y677296D01*
X109558Y675706D01*
X111505Y674582D01*
X113677Y674000D01*
X115926D01*
X118098Y674582D01*
X120045Y675706D01*
X121635Y677296D01*
X122550Y678881D01*
X122986D01*
X125158Y679463D01*
X127105Y680587D01*
X128695Y682178D01*
X129819Y684125D01*
X130401Y686297D01*
Y688545D01*
X129819Y690717D01*
X128695Y692665D01*
X127105Y694255D01*
X125158Y695379D01*
X122986Y695961D01*
D02*
G37*
G36*
X290988Y653187D02*
X288739D01*
X286567Y652605D01*
X284620Y651481D01*
X283030Y649891D01*
X281905Y647943D01*
X281323Y645771D01*
Y644042D01*
X280558Y643837D01*
X278610Y642712D01*
X277020Y641122D01*
X275896Y639175D01*
X275314Y637003D01*
Y634754D01*
X275896Y632583D01*
X277020Y630635D01*
X278610Y629045D01*
X280558Y627921D01*
X282730Y627339D01*
X284978D01*
X287150Y627921D01*
X289098Y629045D01*
X290688Y630635D01*
X291812Y632583D01*
X292394Y634754D01*
Y636484D01*
X293160Y636689D01*
X295107Y637813D01*
X296697Y639403D01*
X297821Y641351D01*
X298403Y643523D01*
Y645771D01*
X297821Y647943D01*
X296697Y649891D01*
X295107Y651481D01*
X293160Y652605D01*
X290988Y653187D01*
D02*
G37*
G36*
X228479Y639728D02*
X226230D01*
X224058Y639146D01*
X222111Y638022D01*
X220521Y636432D01*
X219397Y634484D01*
X219339Y634271D01*
X219237D01*
X217065Y633689D01*
X215118Y632565D01*
X213528Y630975D01*
X212545Y629273D01*
X210859Y628821D01*
X208912Y627697D01*
X208121Y626906D01*
X207152Y627166D01*
X204903D01*
X202731Y626584D01*
X200784Y625460D01*
X199194Y623870D01*
X198070Y621922D01*
X197488Y619750D01*
Y617502D01*
X198070Y615330D01*
X199194Y613382D01*
X200784Y611792D01*
X202731Y610668D01*
X204903Y610086D01*
X207152D01*
X209324Y610668D01*
X211271Y611792D01*
X212062Y612583D01*
X213031Y612323D01*
X215280D01*
X217452Y612905D01*
X219399Y614029D01*
X220989Y615619D01*
X221972Y617321D01*
X223658Y617773D01*
X225605Y618897D01*
X227195Y620487D01*
X228319Y622435D01*
X228377Y622648D01*
X228479D01*
X230651Y623230D01*
X232598Y624354D01*
X234188Y625944D01*
X235313Y627892D01*
X235895Y630064D01*
Y632312D01*
X235313Y634484D01*
X234188Y636432D01*
X232598Y638022D01*
X230651Y639146D01*
X228479Y639728D01*
D02*
G37*
G36*
X185958Y669460D02*
X181322D01*
X176774Y668555D01*
X172490Y666781D01*
X168634Y664205D01*
X165355Y660926D01*
X162779Y657070D01*
X161005Y652786D01*
X160100Y648239D01*
Y643602D01*
X161005Y639054D01*
X162779Y634770D01*
X165355Y630914D01*
X168634Y627635D01*
X172490Y625059D01*
X176774Y623285D01*
X181322Y622380D01*
X185958D01*
X190506Y623285D01*
X194790Y625059D01*
X198646Y627635D01*
X201925Y630914D01*
X204501Y634770D01*
X206275Y639054D01*
X207180Y643602D01*
Y648239D01*
X206275Y652786D01*
X204501Y657070D01*
X201925Y660926D01*
X198646Y664205D01*
X194790Y666781D01*
X190506Y668555D01*
X185958Y669460D01*
D02*
G37*
G36*
X276858Y624404D02*
X274609D01*
X272437Y623822D01*
X270490Y622698D01*
X268900Y621108D01*
X267775Y619161D01*
X267194Y616989D01*
Y614740D01*
X267775Y612568D01*
X268900Y610621D01*
X270490Y609031D01*
X272437Y607906D01*
X274609Y607324D01*
X276858D01*
X279030Y607906D01*
X280977Y609031D01*
X282567Y610621D01*
X283692Y612568D01*
X284273Y614740D01*
Y616989D01*
X283692Y619161D01*
X282567Y621108D01*
X280977Y622698D01*
X279030Y623822D01*
X276858Y624404D01*
D02*
G37*
G36*
X159272Y616872D02*
X156020D01*
X152879Y616031D01*
X150063Y614405D01*
X147764Y612105D01*
X146138Y609289D01*
X145296Y606148D01*
Y602896D01*
X146138Y599755D01*
X147764Y596939D01*
X150063Y594640D01*
X152879Y593014D01*
X156020Y592172D01*
X159272D01*
X162413Y593014D01*
X165229Y594640D01*
X167529Y596939D01*
X169155Y599755D01*
X169996Y602896D01*
Y606148D01*
X169155Y609289D01*
X167529Y612105D01*
X165229Y614405D01*
X162413Y616031D01*
X159272Y616872D01*
D02*
G37*
G36*
X227804Y590467D02*
X225556D01*
X223384Y589885D01*
X221436Y588760D01*
X219846Y587170D01*
X218722Y585223D01*
X218140Y583051D01*
Y580802D01*
X218722Y578630D01*
X219846Y576683D01*
X221436Y575093D01*
X223384Y573969D01*
X225556Y573387D01*
X227804D01*
X229976Y573969D01*
X231924Y575093D01*
X233514Y576683D01*
X234638Y578630D01*
X235220Y580802D01*
Y583051D01*
X234638Y585223D01*
X233514Y587170D01*
X231924Y588760D01*
X229976Y589885D01*
X227804Y590467D01*
D02*
G37*
G36*
X94863Y598687D02*
X92614D01*
X90442Y598105D01*
X88495Y596981D01*
X86905Y595391D01*
X85780Y593443D01*
X85198Y591271D01*
Y589048D01*
X84701Y588760D01*
X83111Y587170D01*
X81987Y585223D01*
X81404Y583051D01*
Y580802D01*
X81987Y578630D01*
X83111Y576683D01*
X84701Y575093D01*
X86648Y573969D01*
X88820Y573387D01*
X91069D01*
X93241Y573969D01*
X95188Y575093D01*
X96778Y576683D01*
X97902Y578630D01*
X98484Y580802D01*
Y583026D01*
X98982Y583313D01*
X100572Y584903D01*
X101696Y586851D01*
X102278Y589023D01*
Y591271D01*
X101696Y593443D01*
X100572Y595391D01*
X98982Y596981D01*
X97035Y598105D01*
X94863Y598687D01*
D02*
G37*
G36*
X321805Y582509D02*
X319557D01*
X317385Y581927D01*
X315437Y580802D01*
X313847Y579212D01*
X312723Y577265D01*
X312141Y575093D01*
Y572844D01*
X312723Y570672D01*
X313847Y568725D01*
X315437Y567135D01*
X317385Y566011D01*
X319557Y565429D01*
X321805D01*
X323977Y566011D01*
X325925Y567135D01*
X327515Y568725D01*
X328639Y570672D01*
X329221Y572844D01*
Y575093D01*
X328639Y577265D01*
X327515Y579212D01*
X325925Y580802D01*
X323977Y581927D01*
X321805Y582509D01*
D02*
G37*
G36*
X45066Y559974D02*
X42818D01*
X40646Y559392D01*
X38698Y558268D01*
X37108Y556678D01*
X35984Y554730D01*
X35402Y552558D01*
Y550310D01*
X35984Y548138D01*
X37108Y546190D01*
X38698Y544600D01*
X40646Y543476D01*
X42818Y542894D01*
X45066D01*
X47238Y543476D01*
X49186Y544600D01*
X50776Y546190D01*
X51900Y548138D01*
X52482Y550310D01*
Y552558D01*
X51900Y554730D01*
X50776Y556678D01*
X49186Y558268D01*
X47238Y559392D01*
X45066Y559974D01*
D02*
G37*
G36*
X94258Y551499D02*
X92009D01*
X89837Y550917D01*
X87890Y549792D01*
X86300Y548202D01*
X85176Y546255D01*
X84594Y544083D01*
Y541834D01*
X85176Y539662D01*
X86300Y537715D01*
X87890Y536125D01*
X89837Y535001D01*
X92009Y534419D01*
X94258D01*
X96430Y535001D01*
X98377Y536125D01*
X99967Y537715D01*
X101092Y539662D01*
X101674Y541834D01*
Y544083D01*
X101092Y546255D01*
X99967Y548202D01*
X98377Y549792D01*
X96430Y550917D01*
X94258Y551499D01*
D02*
G37*
G36*
X31790Y532939D02*
X29541D01*
X27369Y532357D01*
X25422Y531233D01*
X23832Y529643D01*
X22708Y527695D01*
X22126Y525523D01*
Y523275D01*
X22708Y521103D01*
X23832Y519155D01*
X25422Y517565D01*
X27369Y516441D01*
X29541Y515859D01*
X31790D01*
X33962Y516441D01*
X35909Y517565D01*
X37499Y519155D01*
X38624Y521103D01*
X39206Y523275D01*
Y525523D01*
X38624Y527695D01*
X37499Y529643D01*
X35909Y531233D01*
X33962Y532357D01*
X31790Y532939D01*
D02*
G37*
G36*
X115386Y539498D02*
X112134D01*
X108993Y538657D01*
X106177Y537031D01*
X103877Y534731D01*
X102251Y531915D01*
X101410Y528774D01*
Y525522D01*
X102251Y522381D01*
X103877Y519565D01*
X106177Y517266D01*
X108993Y515640D01*
X112134Y514798D01*
X115386D01*
X118527Y515640D01*
X121343Y517266D01*
X123642Y519565D01*
X125268Y522381D01*
X126110Y525522D01*
Y528774D01*
X125268Y531915D01*
X123642Y534731D01*
X121343Y537031D01*
X118527Y538657D01*
X115386Y539498D01*
D02*
G37*
G36*
X160313Y526473D02*
X158065D01*
X155893Y525891D01*
X153945Y524766D01*
X152355Y523176D01*
X151231Y521229D01*
X150649Y519057D01*
Y516808D01*
X151231Y514636D01*
X152355Y512689D01*
X153945Y511099D01*
X155893Y509975D01*
X158065Y509393D01*
X160313D01*
X162485Y509975D01*
X164433Y511099D01*
X166023Y512689D01*
X167147Y514636D01*
X167729Y516808D01*
Y519057D01*
X167147Y521229D01*
X166023Y523176D01*
X164433Y524766D01*
X162485Y525891D01*
X160313Y526473D01*
D02*
G37*
G36*
X257435Y531044D02*
X254183D01*
X251042Y530202D01*
X248226Y528576D01*
X245926Y526277D01*
X244300Y523461D01*
X243459Y520320D01*
Y517068D01*
X244300Y513927D01*
X245926Y511111D01*
X248226Y508811D01*
X251042Y507185D01*
X254183Y506344D01*
X257435D01*
X260576Y507185D01*
X263392Y508811D01*
X265691Y511111D01*
X267317Y513927D01*
X268159Y517068D01*
Y520320D01*
X267317Y523461D01*
X265691Y526277D01*
X263392Y528576D01*
X260576Y530202D01*
X257435Y531044D01*
D02*
G37*
G36*
X197078Y519594D02*
X194829D01*
X192657Y519012D01*
X190710Y517888D01*
X189120Y516298D01*
X187995Y514350D01*
X187413Y512178D01*
Y509930D01*
X187995Y507758D01*
X189120Y505810D01*
X190710Y504220D01*
X192657Y503096D01*
X194829Y502514D01*
X197078D01*
X199250Y503096D01*
X201197Y504220D01*
X202787Y505810D01*
X203911Y507758D01*
X204493Y509930D01*
Y512178D01*
X203911Y514350D01*
X202787Y516298D01*
X201197Y517888D01*
X199250Y519012D01*
X197078Y519594D01*
D02*
G37*
G36*
X173082Y499301D02*
X170833D01*
X168661Y498719D01*
X166714Y497595D01*
X165124Y496005D01*
X164000Y494058D01*
X163418Y491886D01*
Y489637D01*
X164000Y487465D01*
X165124Y485518D01*
X166714Y483928D01*
X168661Y482803D01*
X170833Y482221D01*
X173082D01*
X175254Y482803D01*
X177201Y483928D01*
X178791Y485518D01*
X179916Y487465D01*
X180498Y489637D01*
Y491886D01*
X179916Y494058D01*
X178791Y496005D01*
X177201Y497595D01*
X175254Y498719D01*
X173082Y499301D01*
D02*
G37*
G36*
X380116Y498607D02*
X377867D01*
X375695Y498025D01*
X373748Y496901D01*
X372158Y495311D01*
X371034Y493363D01*
X370452Y491191D01*
Y488943D01*
X371034Y486771D01*
X372158Y484823D01*
X373748Y483233D01*
X375695Y482109D01*
X377867Y481527D01*
X380116D01*
X382288Y482109D01*
X384235Y483233D01*
X385825Y484823D01*
X386950Y486771D01*
X387532Y488943D01*
Y491191D01*
X386950Y493363D01*
X385825Y495311D01*
X384235Y496901D01*
X382288Y498025D01*
X380116Y498607D01*
D02*
G37*
G36*
X257403Y489780D02*
X255155D01*
X252983Y489198D01*
X251035Y488073D01*
X249445Y486483D01*
X248321Y484536D01*
X247739Y482364D01*
Y480115D01*
X248321Y477943D01*
X249445Y475996D01*
X251035Y474406D01*
X252983Y473282D01*
X255155Y472700D01*
X257403D01*
X259575Y473282D01*
X261523Y474406D01*
X263113Y475996D01*
X264237Y477943D01*
X264819Y480115D01*
Y482364D01*
X264237Y484536D01*
X263113Y486483D01*
X261523Y488073D01*
X259575Y489198D01*
X257403Y489780D01*
D02*
G37*
G36*
X303790Y483539D02*
X301541D01*
X299369Y482957D01*
X297422Y481833D01*
X295832Y480243D01*
X295363Y479431D01*
X294664D01*
X292492Y478849D01*
X290545Y477725D01*
X288955Y476135D01*
X288299Y474999D01*
X287615D01*
X285443Y474417D01*
X283495Y473293D01*
X282358Y472156D01*
X280534D01*
X278362Y471574D01*
X276415Y470449D01*
X275679Y469713D01*
X274494Y470031D01*
X272245D01*
X270073Y469449D01*
X268552Y468571D01*
X267510Y469172D01*
X265338Y469754D01*
X263089D01*
X260917Y469172D01*
X258970Y468048D01*
X257380Y466458D01*
X256255Y464511D01*
X255673Y462339D01*
Y460090D01*
X256255Y457918D01*
X257380Y455971D01*
X258970Y454381D01*
X260917Y453256D01*
X263089Y452674D01*
X265338D01*
X267510Y453256D01*
X269030Y454134D01*
X270073Y453532D01*
X272245Y452951D01*
X274494D01*
X276666Y453532D01*
X278613Y454657D01*
X279349Y455393D01*
X280534Y455076D01*
X282783D01*
X284955Y455658D01*
X286902Y456782D01*
X288039Y457919D01*
X289863D01*
X292035Y458501D01*
X293983Y459625D01*
X295573Y461215D01*
X296229Y462351D01*
X296913D01*
X299085Y462933D01*
X301032Y464058D01*
X302622Y465648D01*
X303091Y466459D01*
X303790D01*
X305962Y467041D01*
X307909Y468165D01*
X309499Y469755D01*
X310623Y471703D01*
X311205Y473875D01*
Y476123D01*
X310623Y478295D01*
X309499Y480243D01*
X307909Y481833D01*
X305962Y482957D01*
X303790Y483539D01*
D02*
G37*
G36*
X202663Y559972D02*
X199411D01*
X196270Y559130D01*
X193454Y557504D01*
X191154Y555205D01*
X189528Y552389D01*
X188687Y549248D01*
Y545996D01*
X189528Y542855D01*
X191154Y540039D01*
X193454Y537739D01*
X196270Y536114D01*
X199411Y535272D01*
X202663D01*
X205553Y536046D01*
X206823Y535417D01*
Y498024D01*
X207073Y496126D01*
X207805Y494357D01*
X208971Y492839D01*
X209340Y492469D01*
Y476082D01*
X208715Y474999D01*
X208133Y472827D01*
Y470578D01*
X208715Y468406D01*
X209839Y466459D01*
X211429Y464869D01*
X213376Y463745D01*
X213667Y463667D01*
X213833Y462407D01*
X213484Y462206D01*
X211894Y460616D01*
X210770Y458669D01*
X210188Y456497D01*
Y454248D01*
X210770Y452076D01*
X211894Y450129D01*
X213484Y448539D01*
X215431Y447414D01*
X217603Y446832D01*
X219852D01*
X222024Y447414D01*
X223971Y448539D01*
X225561Y450129D01*
X226686Y452076D01*
X227268Y454248D01*
Y456497D01*
X226686Y458669D01*
X225561Y460616D01*
X223971Y462206D01*
X222024Y463330D01*
X221733Y463408D01*
X221567Y464668D01*
X221916Y464869D01*
X222783Y465735D01*
X224686Y465225D01*
X226935D01*
X229107Y465807D01*
X231054Y466932D01*
X232644Y468522D01*
X233769Y470469D01*
X234351Y472641D01*
Y474890D01*
X233875Y476665D01*
X233822Y477532D01*
X233821Y477792D01*
X233766Y478058D01*
Y492346D01*
X233516Y494244D01*
X232784Y496012D01*
X231618Y497531D01*
X231618Y497531D01*
X226060Y503089D01*
Y535376D01*
X227357Y536125D01*
X228947Y537715D01*
X230072Y539662D01*
X230654Y541834D01*
Y544083D01*
X230072Y546255D01*
X228947Y548202D01*
X227357Y549792D01*
X226143Y550493D01*
Y551368D01*
X225561Y553540D01*
X224437Y555488D01*
X222847Y557078D01*
X220900Y558202D01*
X218728Y558784D01*
X216479D01*
X214307Y558202D01*
X212360Y557078D01*
X211580Y556298D01*
X209833Y556291D01*
X208620Y557504D01*
X205804Y559130D01*
X202663Y559972D01*
D02*
G37*
G36*
X33758Y473409D02*
X31509D01*
X29337Y472827D01*
X27390Y471703D01*
X25800Y470113D01*
X24675Y468165D01*
X24093Y465993D01*
Y463745D01*
X24675Y461573D01*
X25800Y459625D01*
X27390Y458035D01*
X29337Y456911D01*
X31509Y456329D01*
X33758D01*
X35930Y456911D01*
X37877Y458035D01*
X39467Y459625D01*
X40591Y461573D01*
X41173Y463745D01*
Y465993D01*
X40591Y468165D01*
X39467Y470113D01*
X37877Y471703D01*
X35930Y472827D01*
X33758Y473409D01*
D02*
G37*
G36*
X111604Y486102D02*
X108353D01*
X105212Y485260D01*
X102395Y483634D01*
X100096Y481335D01*
X98470Y478519D01*
X97628Y475378D01*
Y472126D01*
X98470Y468985D01*
X100096Y466169D01*
X102395Y463869D01*
X105212Y462243D01*
X108353Y461402D01*
X108531D01*
X109017Y460228D01*
X108496Y459707D01*
X106870Y456891D01*
X106028Y453750D01*
Y450498D01*
X106870Y447357D01*
X108496Y444541D01*
X110795Y442242D01*
X113611Y440616D01*
X116752Y439774D01*
X120004D01*
X123145Y440616D01*
X125961Y442242D01*
X128261Y444541D01*
X129887Y447357D01*
X130728Y450498D01*
Y453750D01*
X129887Y456891D01*
X128261Y459707D01*
X125961Y462007D01*
X123145Y463633D01*
X120004Y464474D01*
X119826D01*
X119340Y465648D01*
X119861Y466169D01*
X121487Y468985D01*
X122329Y472126D01*
Y475378D01*
X121487Y478519D01*
X119861Y481335D01*
X117562Y483634D01*
X114745Y485260D01*
X111604Y486102D01*
D02*
G37*
G36*
X392030Y461251D02*
X389781D01*
X387609Y460669D01*
X385662Y459544D01*
X384072Y457954D01*
X382947Y456007D01*
X382365Y453835D01*
Y451586D01*
X382947Y449414D01*
X384072Y447467D01*
X385662Y445877D01*
X386345Y445483D01*
X386159Y444790D01*
Y442542D01*
X386741Y440370D01*
X387866Y438423D01*
X389456Y436833D01*
X391403Y435708D01*
X393575Y435126D01*
X395824D01*
X397996Y435708D01*
X399943Y436833D01*
X401533Y438423D01*
X402657Y440370D01*
X403239Y442542D01*
Y444790D01*
X402657Y446963D01*
X401533Y448910D01*
X399943Y450500D01*
X399260Y450894D01*
X399445Y451586D01*
Y453835D01*
X398863Y456007D01*
X397739Y457954D01*
X396149Y459544D01*
X394202Y460669D01*
X392030Y461251D01*
D02*
G37*
G36*
X303790Y456613D02*
X301541D01*
X299369Y456031D01*
X297422Y454906D01*
X295832Y453316D01*
X294760Y451461D01*
X294239D01*
X292067Y450879D01*
X290119Y449755D01*
X288529Y448165D01*
X287405Y446217D01*
X286823Y444045D01*
Y441797D01*
X287405Y439625D01*
X288529Y437677D01*
X290119Y436087D01*
X292067Y434963D01*
X294239Y434381D01*
X296488D01*
X298659Y434963D01*
X300607Y436087D01*
X302197Y437677D01*
X303268Y439533D01*
X303790D01*
X305962Y440115D01*
X307909Y441239D01*
X309499Y442829D01*
X310623Y444776D01*
X311205Y446948D01*
Y449197D01*
X310623Y451369D01*
X309499Y453316D01*
X307909Y454906D01*
X305962Y456031D01*
X303790Y456613D01*
D02*
G37*
G36*
X352695Y440912D02*
X350446D01*
X348274Y440330D01*
X346327Y439205D01*
X344737Y437615D01*
X343612Y435668D01*
X343030Y433496D01*
Y431247D01*
X343612Y429075D01*
X344737Y427128D01*
X346327Y425538D01*
X348274Y424414D01*
X350446Y423832D01*
X352695D01*
X354867Y424414D01*
X356814Y425538D01*
X358404Y427128D01*
X359528Y429075D01*
X360110Y431247D01*
Y433496D01*
X359528Y435668D01*
X358404Y437615D01*
X356814Y439205D01*
X354867Y440330D01*
X352695Y440912D01*
D02*
G37*
G36*
X165604Y438820D02*
X163356D01*
X161184Y438238D01*
X159236Y437114D01*
X157646Y435524D01*
X156522Y433576D01*
X155940Y431404D01*
Y429156D01*
X156522Y426984D01*
X157646Y425036D01*
X159236Y423446D01*
X161184Y422322D01*
X163356Y421740D01*
X165604D01*
X167776Y422322D01*
X169724Y423446D01*
X171314Y425036D01*
X172438Y426984D01*
X173020Y429156D01*
Y431404D01*
X172438Y433576D01*
X171314Y435524D01*
X169724Y437114D01*
X167776Y438238D01*
X165604Y438820D01*
D02*
G37*
G36*
X56330Y438504D02*
X54081D01*
X51909Y437922D01*
X49962Y436798D01*
X48372Y435208D01*
X47248Y433260D01*
X46666Y431088D01*
Y428840D01*
X47248Y426668D01*
X48372Y424720D01*
X49962Y423130D01*
X51909Y422006D01*
X54081Y421424D01*
X56330D01*
X58502Y422006D01*
X60449Y423130D01*
X62039Y424720D01*
X63164Y426668D01*
X63746Y428840D01*
Y431088D01*
X63164Y433260D01*
X62039Y435208D01*
X60449Y436798D01*
X58502Y437922D01*
X56330Y438504D01*
D02*
G37*
G36*
X40330Y425253D02*
X38081D01*
X35909Y424671D01*
X33962Y423546D01*
X32372Y421956D01*
X31248Y420009D01*
X30666Y417837D01*
Y415588D01*
X31248Y413416D01*
X32372Y411469D01*
X33962Y409879D01*
X35909Y408755D01*
X38081Y408173D01*
X40330D01*
X42502Y408755D01*
X44449Y409879D01*
X46039Y411469D01*
X47164Y413416D01*
X47746Y415588D01*
Y417837D01*
X47164Y420009D01*
X46039Y421956D01*
X44449Y423546D01*
X42502Y424671D01*
X40330Y425253D01*
D02*
G37*
G36*
X318202Y427679D02*
X315954D01*
X313782Y427097D01*
X311834Y425973D01*
X310244Y424383D01*
X309120Y422435D01*
X308538Y420263D01*
Y418014D01*
X309120Y415843D01*
X309745Y414759D01*
Y409553D01*
X308541D01*
X306369Y408971D01*
X304422Y407847D01*
X302832Y406257D01*
X301707Y404309D01*
X301126Y402137D01*
Y399889D01*
X301707Y397717D01*
X302832Y395769D01*
X304422Y394179D01*
X306369Y393055D01*
X308541Y392473D01*
X309745D01*
Y386875D01*
X309734Y386824D01*
X309451Y386333D01*
X308869Y384161D01*
Y381912D01*
X309451Y379740D01*
X310575Y377793D01*
X312165Y376203D01*
X314113Y375079D01*
X316285Y374497D01*
X318533D01*
X320705Y375079D01*
X322653Y376203D01*
X324243Y377793D01*
X325367Y379740D01*
X325949Y381912D01*
Y384161D01*
X325367Y386333D01*
X324411Y387990D01*
Y406325D01*
X325681Y406851D01*
X326422Y406110D01*
X328370Y404985D01*
X330542Y404403D01*
X332790D01*
X334962Y404985D01*
X336910Y406110D01*
X338500Y407700D01*
X339624Y409647D01*
X340206Y411819D01*
Y414067D01*
X339624Y416240D01*
X338500Y418187D01*
X336910Y419777D01*
X334962Y420901D01*
X332790Y421483D01*
X330542D01*
X328370Y420901D01*
X326888Y420046D01*
X326456Y420120D01*
X325700Y420479D01*
X325511Y420662D01*
X325036Y422435D01*
X323912Y424383D01*
X322322Y425973D01*
X320374Y427097D01*
X318202Y427679D01*
D02*
G37*
G36*
X284620Y424525D02*
X282371D01*
X280199Y423943D01*
X278252Y422819D01*
X276662Y421229D01*
X275537Y419282D01*
X274956Y417110D01*
Y414861D01*
X275537Y412689D01*
X276662Y410742D01*
X278252Y409152D01*
X280199Y408027D01*
X280781Y405855D01*
X281905Y403908D01*
X283495Y402318D01*
X285443Y401194D01*
X287615Y400612D01*
X289863D01*
X292035Y401194D01*
X293983Y402318D01*
X295573Y403908D01*
X296697Y405855D01*
X297279Y408027D01*
Y410276D01*
X296697Y412448D01*
X295573Y414395D01*
X293983Y415985D01*
X292035Y417110D01*
X291453Y419282D01*
X290329Y421229D01*
X288739Y422819D01*
X286792Y423943D01*
X284620Y424525D01*
D02*
G37*
G36*
X190873Y410039D02*
X188624D01*
X186452Y409457D01*
X184505Y408333D01*
X182915Y406743D01*
X181791Y404795D01*
X181209Y402623D01*
Y400375D01*
X181791Y398203D01*
X182915Y396255D01*
X184326Y394844D01*
X184238Y393506D01*
X184071Y393461D01*
X182124Y392337D01*
X180534Y390746D01*
X179410Y388799D01*
X178828Y386627D01*
Y384379D01*
X179410Y382206D01*
X180534Y380259D01*
X182124Y378669D01*
X184071Y377545D01*
X186243Y376963D01*
X188492D01*
X190664Y377545D01*
X192611Y378669D01*
X194201Y380259D01*
X195326Y382206D01*
X195908Y384379D01*
Y386627D01*
X195326Y388799D01*
X194201Y390746D01*
X192790Y392158D01*
X192878Y393496D01*
X193045Y393541D01*
X194992Y394665D01*
X196582Y396255D01*
X197707Y398203D01*
X198289Y400375D01*
Y402623D01*
X197707Y404795D01*
X196582Y406743D01*
X194992Y408333D01*
X193045Y409457D01*
X190873Y410039D01*
D02*
G37*
G36*
X284978Y395945D02*
X282730D01*
X280558Y395363D01*
X278610Y394238D01*
X277020Y392648D01*
X275896Y390701D01*
X275314Y388529D01*
Y386280D01*
X275896Y384108D01*
X277020Y382161D01*
X278610Y380571D01*
X280485Y379489D01*
X280566Y379416D01*
X280763Y378721D01*
X280746Y378631D01*
X279976Y377377D01*
X278362Y376945D01*
X276415Y375821D01*
X274825Y374231D01*
X273701Y372283D01*
X273119Y370111D01*
Y367863D01*
X273701Y365691D01*
X274825Y363743D01*
X276415Y362153D01*
X278362Y361029D01*
X280534Y360447D01*
X282783D01*
X284955Y361029D01*
X286902Y362153D01*
X288492Y363743D01*
X289617Y365691D01*
X290199Y367863D01*
Y370111D01*
X289883Y371289D01*
X290858Y372559D01*
X290903D01*
X293075Y373141D01*
X295023Y374265D01*
X296613Y375855D01*
X297737Y377803D01*
X298319Y379975D01*
Y382223D01*
X297737Y384395D01*
X296613Y386343D01*
X295023Y387933D01*
X293075Y389057D01*
X292189Y389295D01*
X291812Y390701D01*
X290688Y392648D01*
X289098Y394238D01*
X287150Y395363D01*
X284978Y395945D01*
D02*
G37*
G36*
X85885Y394043D02*
X83636D01*
X81464Y393461D01*
X79517Y392337D01*
X77927Y390746D01*
X76802Y388799D01*
X76220Y386627D01*
Y384526D01*
X74630Y382936D01*
X73506Y380988D01*
X72924Y378816D01*
Y376568D01*
X73364Y374925D01*
X72967Y374696D01*
X71377Y373106D01*
X70253Y371159D01*
X69671Y368987D01*
Y366738D01*
X70071Y365245D01*
X69720Y364893D01*
X68595Y362946D01*
X68013Y360774D01*
Y358525D01*
X68595Y356353D01*
X69279Y355168D01*
X68595Y353983D01*
X68013Y351811D01*
Y349562D01*
X68595Y347390D01*
X69720Y345443D01*
X71309Y343853D01*
X73257Y342728D01*
X75429Y342146D01*
X77677D01*
X79850Y342728D01*
X81797Y343853D01*
X83387Y345443D01*
X84511Y347390D01*
X85093Y349562D01*
Y351811D01*
X84511Y353983D01*
X83827Y355168D01*
X84511Y356353D01*
X85018Y358246D01*
X85889Y358516D01*
X86357Y358510D01*
X87890Y356977D01*
X89837Y355852D01*
X92009Y355270D01*
X94258D01*
X96430Y355852D01*
X98377Y356977D01*
X99967Y358567D01*
X101092Y360514D01*
X101674Y362686D01*
Y364935D01*
X101092Y367107D01*
X99967Y369054D01*
X98377Y370644D01*
X96430Y371768D01*
X94258Y372350D01*
X92009D01*
X89837Y371768D01*
X88835Y371189D01*
X88055Y372206D01*
X88298Y372448D01*
X89422Y374396D01*
X90004Y376568D01*
Y378669D01*
X91594Y380259D01*
X92718Y382206D01*
X93300Y384379D01*
Y386627D01*
X92718Y388799D01*
X91594Y390746D01*
X90004Y392337D01*
X88056Y393461D01*
X85885Y394043D01*
D02*
G37*
G36*
X170641Y374523D02*
X168393D01*
X166221Y373941D01*
X164273Y372817D01*
X162683Y371227D01*
X161559Y369280D01*
X160977Y367108D01*
Y364859D01*
X161559Y362687D01*
X162683Y360740D01*
X163160Y360263D01*
X163097Y359740D01*
X162713Y358914D01*
X160835Y358411D01*
X158887Y357287D01*
X157297Y355697D01*
X156173Y353749D01*
X155591Y351577D01*
Y349329D01*
X156173Y347157D01*
X157297Y345209D01*
X158887Y343619D01*
X160835Y342495D01*
X163007Y341913D01*
X165255D01*
X167427Y342495D01*
X169375Y343619D01*
X170965Y345209D01*
X172089Y347157D01*
X172671Y349329D01*
Y351577D01*
X172089Y353749D01*
X170965Y355697D01*
X170488Y356173D01*
X170551Y356696D01*
X170935Y357522D01*
X172813Y358025D01*
X174761Y359150D01*
X176351Y360740D01*
X177475Y362687D01*
X178057Y364859D01*
Y367108D01*
X177475Y369280D01*
X176351Y371227D01*
X174761Y372817D01*
X172813Y373941D01*
X170641Y374523D01*
D02*
G37*
G36*
X195976Y353983D02*
X193728D01*
X191556Y353401D01*
X189608Y352276D01*
X188018Y350686D01*
X186894Y348739D01*
X186312Y346567D01*
Y344319D01*
X186894Y342146D01*
X188018Y340199D01*
X189608Y338609D01*
X191556Y337485D01*
X193728Y336903D01*
X195976D01*
X198148Y337485D01*
X200096Y338609D01*
X201686Y340199D01*
X202810Y342146D01*
X203392Y344319D01*
Y346567D01*
X202810Y348739D01*
X201686Y350686D01*
X200096Y352276D01*
X198148Y353401D01*
X195976Y353983D01*
D02*
G37*
G36*
X160667Y318000D02*
X158418D01*
X156246Y317418D01*
X154298Y316293D01*
X153110Y315105D01*
X152292Y314839D01*
X151474Y315105D01*
X150286Y316293D01*
X148338Y317418D01*
X146166Y318000D01*
X143918D01*
X141746Y317418D01*
X139798Y316293D01*
X138208Y314703D01*
X137084Y312756D01*
X136502Y310584D01*
Y308335D01*
X137084Y306163D01*
X138208Y304216D01*
X139798Y302626D01*
X141746Y301502D01*
X143918Y300920D01*
X146166D01*
X148338Y301502D01*
X150286Y302626D01*
X151474Y303814D01*
X152292Y304080D01*
X153110Y303814D01*
X154298Y302626D01*
X156246Y301502D01*
X158418Y300920D01*
X160667D01*
X162838Y301502D01*
X164786Y302626D01*
X166376Y304216D01*
X167500Y306163D01*
X168082Y308335D01*
Y310584D01*
X167500Y312756D01*
X166376Y314703D01*
X164786Y316293D01*
X162838Y317418D01*
X160667Y318000D01*
D02*
G37*
G36*
X185058Y316798D02*
X182810D01*
X180638Y316216D01*
X178690Y315091D01*
X177100Y313501D01*
X175976Y311554D01*
X175394Y309382D01*
Y307134D01*
X175976Y304961D01*
X177100Y303014D01*
X178690Y301424D01*
X180638Y300300D01*
X182810Y299718D01*
X185058D01*
X187230Y300300D01*
X189178Y301424D01*
X190768Y303014D01*
X191892Y304961D01*
X192474Y307134D01*
Y309382D01*
X191892Y311554D01*
X190768Y313501D01*
X189178Y315091D01*
X187230Y316216D01*
X185058Y316798D01*
D02*
G37*
G36*
X56118Y292724D02*
X53869D01*
X51697Y292142D01*
X49750Y291018D01*
X48160Y289428D01*
X47035Y287480D01*
X46453Y285308D01*
Y283060D01*
X47035Y280888D01*
X48160Y278940D01*
X49750Y277350D01*
X51697Y276226D01*
X53869Y275644D01*
X56118D01*
X58290Y276226D01*
X60237Y277350D01*
X61827Y278940D01*
X62951Y280888D01*
X63533Y283060D01*
Y285308D01*
X62951Y287480D01*
X61827Y289428D01*
X60237Y291018D01*
X58290Y292142D01*
X56118Y292724D01*
D02*
G37*
G36*
X199787Y268488D02*
X197539D01*
X195366Y267906D01*
X193419Y266782D01*
X191829Y265192D01*
X190705Y263244D01*
X190123Y261072D01*
Y258824D01*
X190705Y256652D01*
X191829Y254704D01*
X193419Y253114D01*
X195366Y251990D01*
X197539Y251408D01*
X199787D01*
X201959Y251990D01*
X203906Y253114D01*
X205497Y254704D01*
X206621Y256652D01*
X207203Y258824D01*
Y261072D01*
X206621Y263244D01*
X205497Y265192D01*
X203906Y266782D01*
X201959Y267906D01*
X199787Y268488D01*
D02*
G37*
G36*
X115386Y264698D02*
X112134D01*
X108993Y263856D01*
X106177Y262230D01*
X103877Y259931D01*
X102251Y257115D01*
X101410Y253974D01*
Y250722D01*
X102251Y247581D01*
X103877Y244765D01*
X106177Y242465D01*
X108993Y240839D01*
X112134Y239998D01*
X115386D01*
X118527Y240839D01*
X121343Y242465D01*
X123642Y244765D01*
X125268Y247581D01*
X126110Y250722D01*
Y253974D01*
X125268Y257115D01*
X123642Y259931D01*
X121343Y262230D01*
X118527Y263856D01*
X115386Y264698D01*
D02*
G37*
G36*
X791482Y245610D02*
X789233D01*
X787061Y245028D01*
X785114Y243904D01*
X783524Y242314D01*
X782400Y240366D01*
X781818Y238194D01*
Y235946D01*
X782400Y233774D01*
X783524Y231826D01*
X785114Y230236D01*
X787061Y229112D01*
X789233Y228530D01*
X791482D01*
X793654Y229112D01*
X795601Y230236D01*
X797191Y231826D01*
X798316Y233774D01*
X798898Y235946D01*
Y238194D01*
X798316Y240366D01*
X797191Y242314D01*
X795601Y243904D01*
X793654Y245028D01*
X791482Y245610D01*
D02*
G37*
G36*
X133710Y228002D02*
X131462D01*
X129290Y227420D01*
X127342Y226295D01*
X125752Y224705D01*
X124628Y222758D01*
X124046Y220586D01*
Y218337D01*
X124628Y216165D01*
X125752Y214218D01*
X127342Y212628D01*
X129290Y211504D01*
X131462Y210922D01*
X133710D01*
X135882Y211504D01*
X137830Y212628D01*
X139420Y214218D01*
X140544Y216165D01*
X141126Y218337D01*
Y220586D01*
X140544Y222758D01*
X139420Y224705D01*
X137830Y226295D01*
X135882Y227420D01*
X133710Y228002D01*
D02*
G37*
G36*
X172586Y236523D02*
X170337D01*
X168165Y235940D01*
X166218Y234816D01*
X164628Y233226D01*
X163504Y231279D01*
X162922Y229107D01*
Y226858D01*
X163504Y224686D01*
X163863Y224063D01*
X163278Y222537D01*
X161929Y221757D01*
X160339Y220167D01*
X159214Y218220D01*
X158632Y216048D01*
Y213799D01*
X159214Y211627D01*
X159678Y210824D01*
X159214Y210020D01*
X158632Y207848D01*
Y205599D01*
X159214Y203427D01*
X160339Y201480D01*
X161929Y199890D01*
X163876Y198766D01*
X166048Y198184D01*
X168297D01*
X169191Y198423D01*
X169874Y197740D01*
X171821Y196616D01*
X173993Y196034D01*
X176242D01*
X178414Y196616D01*
X180361Y197740D01*
X181951Y199330D01*
X183075Y201277D01*
X183657Y203449D01*
Y205698D01*
X183496Y206299D01*
X183777Y206744D01*
X185260Y206716D01*
X186850Y205126D01*
X188797Y204002D01*
X190970Y203420D01*
X193218D01*
X195390Y204002D01*
X197337Y205126D01*
X198927Y206716D01*
X200052Y208663D01*
X200634Y210835D01*
Y213084D01*
X200052Y215256D01*
X198927Y217203D01*
X197337Y218793D01*
X195390Y219918D01*
X193218Y220500D01*
X190970D01*
X188797Y219918D01*
X186850Y218793D01*
X185432Y217376D01*
X184731Y217510D01*
X184162Y217840D01*
Y218698D01*
X183580Y220870D01*
X182456Y222817D01*
X180866Y224407D01*
X179549Y225168D01*
X180002Y226858D01*
Y229107D01*
X179420Y231279D01*
X178295Y233226D01*
X176705Y234816D01*
X174758Y235940D01*
X172586Y236523D01*
D02*
G37*
G36*
X224688Y210900D02*
X222439D01*
X220267Y210318D01*
X218320Y209194D01*
X216730Y207604D01*
X215606Y205657D01*
X215024Y203484D01*
Y201236D01*
X215606Y199064D01*
X216730Y197117D01*
X218320Y195527D01*
X220267Y194402D01*
X222439Y193820D01*
X224688D01*
X226860Y194402D01*
X228807Y195527D01*
X230397Y197117D01*
X231522Y199064D01*
X232104Y201236D01*
Y203484D01*
X231522Y205657D01*
X230397Y207604D01*
X228807Y209194D01*
X226860Y210318D01*
X224688Y210900D01*
D02*
G37*
G36*
X185196Y196614D02*
X182947D01*
X180775Y196032D01*
X178828Y194907D01*
X177238Y193317D01*
X176113Y191370D01*
X175531Y189198D01*
Y186949D01*
X176113Y184777D01*
X177238Y182830D01*
X178828Y181240D01*
X179170Y181042D01*
X178724Y179377D01*
Y177129D01*
X179306Y174956D01*
X180430Y173009D01*
X182020Y171419D01*
X183968Y170295D01*
X186140Y169713D01*
X188388D01*
X190560Y170295D01*
X192507Y171419D01*
X194098Y173009D01*
X195222Y174956D01*
X195804Y177129D01*
Y179377D01*
X195222Y181549D01*
X194098Y183496D01*
X192507Y185086D01*
X192165Y185284D01*
X192611Y186949D01*
Y189198D01*
X192029Y191370D01*
X190905Y193317D01*
X189315Y194907D01*
X187368Y196032D01*
X185196Y196614D01*
D02*
G37*
G36*
X149772Y179683D02*
X147524D01*
X145352Y179101D01*
X143404Y177977D01*
X141814Y176387D01*
X140690Y174440D01*
X140108Y172268D01*
Y170019D01*
X140690Y167847D01*
X141814Y165900D01*
X143404Y164310D01*
X145352Y163185D01*
X147524Y162603D01*
X149772D01*
X151944Y163185D01*
X153892Y164310D01*
X155482Y165900D01*
X156606Y167847D01*
X157188Y170019D01*
Y172268D01*
X156606Y174440D01*
X155482Y176387D01*
X153892Y177977D01*
X151944Y179101D01*
X149772Y179683D01*
D02*
G37*
G36*
X129682Y110352D02*
X127433D01*
X125261Y109770D01*
X123314Y108646D01*
X121723Y107056D01*
X120599Y105109D01*
X120017Y102937D01*
Y100688D01*
X120599Y98516D01*
X121723Y96569D01*
X123314Y94979D01*
X125261Y93855D01*
X127433Y93272D01*
X129682D01*
X131854Y93855D01*
X133801Y94979D01*
X135391Y96569D01*
X136515Y98516D01*
X137097Y100688D01*
Y102937D01*
X136515Y105109D01*
X135391Y107056D01*
X133801Y108646D01*
X131854Y109770D01*
X129682Y110352D01*
D02*
G37*
G36*
X185958Y139460D02*
X181322D01*
X176774Y138555D01*
X172490Y136781D01*
X168634Y134205D01*
X165355Y130926D01*
X162779Y127070D01*
X161005Y122786D01*
X160100Y118238D01*
Y113602D01*
X161005Y109054D01*
X162779Y104770D01*
X165355Y100914D01*
X168634Y97635D01*
X172490Y95059D01*
X176774Y93285D01*
X181322Y92380D01*
X185958D01*
X190506Y93285D01*
X194790Y95059D01*
X198646Y97635D01*
X201925Y100914D01*
X204501Y104770D01*
X206275Y109054D01*
X207180Y113602D01*
Y118238D01*
X206275Y122786D01*
X204501Y127070D01*
X201925Y130926D01*
X198646Y134205D01*
X194790Y136781D01*
X190506Y138555D01*
X185958Y139460D01*
D02*
G37*
G36*
X558154Y111203D02*
X555905D01*
X553733Y110621D01*
X551786Y109497D01*
X550196Y107907D01*
X549072Y105960D01*
X548490Y103787D01*
Y101539D01*
X549072Y99367D01*
X550196Y97420D01*
X551786Y95829D01*
X553525Y94825D01*
X553497Y94072D01*
X553304Y93555D01*
X552140D01*
X549968Y92973D01*
X548021Y91849D01*
X546431Y90259D01*
X545307Y88312D01*
X544725Y86140D01*
Y83891D01*
X545307Y81719D01*
X546431Y79772D01*
X548021Y78182D01*
X549968Y77057D01*
X552140Y76476D01*
X554389D01*
X556561Y77057D01*
X558508Y78182D01*
X560098Y79772D01*
X561223Y81719D01*
X561805Y83891D01*
Y86140D01*
X561223Y88312D01*
X560098Y90259D01*
X558508Y91849D01*
X556769Y92853D01*
X556797Y93607D01*
X556990Y94123D01*
X558154D01*
X560326Y94705D01*
X562273Y95829D01*
X563863Y97420D01*
X564988Y99367D01*
X565570Y101539D01*
Y103787D01*
X564988Y105960D01*
X563863Y107907D01*
X562273Y109497D01*
X560326Y110621D01*
X558154Y111203D01*
D02*
G37*
G36*
X554389Y72270D02*
X552140D01*
X549968Y71688D01*
X548021Y70564D01*
X546431Y68974D01*
X545307Y67027D01*
X544725Y64855D01*
Y62606D01*
X545307Y60434D01*
X546431Y58487D01*
X548021Y56897D01*
X549968Y55772D01*
X552140Y55190D01*
X554389D01*
X556561Y55772D01*
X558508Y56897D01*
X560098Y58487D01*
X561223Y60434D01*
X561805Y62606D01*
Y64855D01*
X561223Y67027D01*
X560098Y68974D01*
X558508Y70564D01*
X556561Y71688D01*
X554389Y72270D01*
D02*
G37*
G36*
X119004Y62278D02*
X116755D01*
X114583Y61697D01*
X112636Y60572D01*
X111046Y58982D01*
X109922Y57035D01*
X109340Y54863D01*
Y52614D01*
X109922Y50442D01*
X111046Y48495D01*
X112636Y46905D01*
X114583Y45781D01*
X116755Y45198D01*
X119004D01*
X121176Y45781D01*
X123123Y46905D01*
X124713Y48495D01*
X125838Y50442D01*
X126420Y52614D01*
Y54863D01*
X125838Y57035D01*
X124713Y58982D01*
X123123Y60572D01*
X121176Y61697D01*
X119004Y62278D01*
D02*
G37*
G36*
X469996Y57362D02*
X467747D01*
X465575Y56780D01*
X463628Y55656D01*
X462038Y54066D01*
X460913Y52119D01*
X460331Y49947D01*
Y47698D01*
X460913Y45526D01*
X462038Y43579D01*
X463628Y41989D01*
X465575Y40864D01*
X467747Y40282D01*
X469996D01*
X472168Y40864D01*
X474115Y41989D01*
X475705Y43579D01*
X476829Y45526D01*
X477411Y47698D01*
Y49947D01*
X476829Y52119D01*
X475705Y54066D01*
X474115Y55656D01*
X472168Y56780D01*
X469996Y57362D01*
D02*
G37*
G36*
X280403Y38758D02*
X278155D01*
X275983Y38176D01*
X274035Y37052D01*
X272446Y35462D01*
X271321Y33515D01*
X270739Y31343D01*
Y29094D01*
X271321Y26922D01*
X272446Y24975D01*
X274035Y23385D01*
X275983Y22260D01*
X278155Y21678D01*
X280403D01*
X282575Y22260D01*
X284523Y23385D01*
X286113Y24975D01*
X287237Y26922D01*
X287819Y29094D01*
Y31343D01*
X287237Y33515D01*
X286113Y35462D01*
X284523Y37052D01*
X282575Y38176D01*
X280403Y38758D01*
D02*
G37*
G36*
X753031Y28889D02*
X750783D01*
X748611Y28307D01*
X746663Y27183D01*
X745073Y25593D01*
X743949Y23645D01*
X743367Y21473D01*
Y19225D01*
X743949Y17053D01*
X745073Y15105D01*
X746663Y13515D01*
X748611Y12391D01*
X750783Y11809D01*
X753031D01*
X755203Y12391D01*
X757151Y13515D01*
X758741Y15105D01*
X759865Y17053D01*
X760447Y19225D01*
Y21473D01*
X759865Y23645D01*
X758741Y25593D01*
X757151Y27183D01*
X755203Y28307D01*
X753031Y28889D01*
D02*
G37*
G36*
X521108Y28412D02*
X518859D01*
X516688Y27830D01*
X514740Y26706D01*
X513150Y25116D01*
X512026Y23169D01*
X511444Y20997D01*
Y18748D01*
X512026Y16576D01*
X513150Y14629D01*
X514740Y13039D01*
X516688Y11914D01*
X518859Y11332D01*
X521108D01*
X523280Y11914D01*
X525227Y13039D01*
X526818Y14629D01*
X527942Y16576D01*
X528524Y18748D01*
Y20997D01*
X527942Y23169D01*
X526818Y25116D01*
X525227Y26706D01*
X523280Y27830D01*
X521108Y28412D01*
D02*
G37*
%LPD*%
G36*
X218064Y547746D02*
X217944Y547715D01*
X217814Y547667D01*
X217676Y547600D01*
X217529Y547515D01*
X217374Y547412D01*
X217038Y547152D01*
X216857Y546995D01*
X216470Y546627D01*
X214263Y548012D01*
X214452Y548209D01*
X214760Y548587D01*
X214879Y548768D01*
X214976Y548943D01*
X215050Y549112D01*
X215101Y549276D01*
X215129Y549434D01*
X215133Y549586D01*
X215115Y549733D01*
X218064Y547746D01*
D02*
G37*
G36*
X222575Y540461D02*
X222454Y540430D01*
X222324Y540382D01*
X222186Y540315D01*
X222040Y540230D01*
X221885Y540127D01*
X221549Y539867D01*
X221368Y539710D01*
X220980Y539342D01*
X218773Y540727D01*
X218962Y540924D01*
X219270Y541302D01*
X219390Y541482D01*
X219487Y541657D01*
X219560Y541827D01*
X219611Y541990D01*
X219639Y542148D01*
X219644Y542301D01*
X219626Y542448D01*
X222575Y540461D01*
D02*
G37*
G36*
X227706Y477327D02*
X227803Y475731D01*
X227838Y475518D01*
X227880Y475339D01*
X227927Y475196D01*
X227979Y475088D01*
X224532Y475960D01*
X224652Y476044D01*
X224759Y476149D01*
X224854Y476275D01*
X224936Y476422D01*
X225005Y476590D01*
X225062Y476779D01*
X225107Y476989D01*
X225138Y477220D01*
X225157Y477472D01*
X225163Y477745D01*
X227703Y477752D01*
X227706Y477327D01*
D02*
G37*
G36*
X217948Y475153D02*
X217988Y474661D01*
X218024Y474443D01*
X218070Y474243D01*
X218125Y474061D01*
X218192Y473898D01*
X218268Y473752D01*
X218354Y473625D01*
X218451Y473517D01*
X214895D01*
X214991Y473625D01*
X215077Y473752D01*
X215154Y473898D01*
X215220Y474061D01*
X215276Y474243D01*
X215321Y474443D01*
X215357Y474661D01*
X215382Y474898D01*
X215403Y475426D01*
X217943D01*
X217948Y475153D01*
D02*
G37*
G36*
X318759Y417216D02*
X318673Y417089D01*
X318597Y416944D01*
X318531Y416780D01*
X318475Y416599D01*
X318429Y416398D01*
X318394Y416180D01*
X318368Y415943D01*
X318348Y415415D01*
X315808D01*
X315803Y415688D01*
X315762Y416180D01*
X315727Y416398D01*
X315681Y416599D01*
X315625Y416780D01*
X315559Y416944D01*
X315483Y417089D01*
X315396Y417216D01*
X315300Y417325D01*
X318856D01*
X318759Y417216D01*
D02*
G37*
G36*
X318354Y386648D02*
X318401Y386161D01*
X318442Y385946D01*
X318495Y385751D01*
X318559Y385576D01*
X318636Y385419D01*
X318724Y385283D01*
X318824Y385165D01*
X318936Y385067D01*
X315410Y384604D01*
X315485Y384714D01*
X315553Y384843D01*
X315613Y384991D01*
X315665Y385156D01*
X315709Y385340D01*
X315744Y385542D01*
X315792Y386001D01*
X315804Y386258D01*
X315808Y386533D01*
X318348Y386921D01*
X318354Y386648D01*
D02*
G37*
%LPC*%
G36*
X716658Y669460D02*
X712021D01*
X707474Y668555D01*
X703190Y666781D01*
X699334Y664205D01*
X696055Y660926D01*
X693479Y657070D01*
X691705Y652786D01*
X690800Y648239D01*
Y643602D01*
X691705Y639054D01*
X693479Y634770D01*
X696055Y630914D01*
X699334Y627635D01*
X703190Y625059D01*
X707474Y623285D01*
X712021Y622380D01*
X716658D01*
X721206Y623285D01*
X725490Y625059D01*
X729346Y627635D01*
X732625Y630914D01*
X735201Y634770D01*
X736975Y639054D01*
X737880Y643602D01*
Y648239D01*
X736975Y652786D01*
X735201Y657070D01*
X732625Y660926D01*
X729346Y664205D01*
X725490Y666781D01*
X721206Y668555D01*
X716658Y669460D01*
D02*
G37*
G36*
X715622Y580708D02*
X713373D01*
X711201Y580126D01*
X710498Y579720D01*
X709794Y580126D01*
X707622Y580708D01*
X705373D01*
X703201Y580126D01*
X701254Y579002D01*
X699664Y577411D01*
X698540Y575464D01*
X697958Y573292D01*
Y571044D01*
X698540Y568872D01*
X699017Y568045D01*
X698540Y567218D01*
X697980Y565131D01*
X697868Y564923D01*
X696747Y564377D01*
X696655Y564430D01*
X694483Y565011D01*
X692234D01*
X690062Y564430D01*
X689359Y564023D01*
X688655Y564430D01*
X686483Y565011D01*
X684234D01*
X682062Y564430D01*
X680115Y563305D01*
X678525Y561715D01*
X677401Y559768D01*
X676819Y557596D01*
Y555347D01*
X677401Y553175D01*
X677759Y552554D01*
X677401Y551932D01*
X676819Y549760D01*
Y547512D01*
X677401Y545340D01*
X677723Y544782D01*
X677401Y544224D01*
X676819Y542052D01*
Y539804D01*
X677401Y537632D01*
X677878Y536805D01*
X677401Y535978D01*
X676819Y533806D01*
Y531558D01*
X677401Y529386D01*
X678525Y527438D01*
X680115Y525848D01*
X682062Y524724D01*
X684234Y524142D01*
X686483D01*
X688655Y524724D01*
X689359Y525130D01*
X690062Y524724D01*
X692234Y524142D01*
X694483D01*
X696655Y524724D01*
X696911Y524872D01*
X698085Y524386D01*
X698391Y523244D01*
X698868Y522417D01*
X698391Y521591D01*
X697809Y519419D01*
Y517170D01*
X698391Y514998D01*
X699515Y513051D01*
X701105Y511461D01*
X703052Y510336D01*
X705224Y509754D01*
X707473D01*
X709645Y510336D01*
X710349Y510743D01*
X711052Y510336D01*
X713224Y509754D01*
X715473D01*
X717645Y510336D01*
X719592Y511461D01*
X721182Y513051D01*
X722307Y514998D01*
X722888Y517170D01*
Y519419D01*
X722307Y521591D01*
X721829Y522417D01*
X722307Y523244D01*
X722888Y525416D01*
Y527665D01*
X722307Y529837D01*
X721182Y531784D01*
X719592Y533374D01*
X718913Y533767D01*
X718763Y535319D01*
X720455Y537011D01*
X722068Y539805D01*
X722903Y542920D01*
Y546146D01*
X722068Y549262D01*
X720455Y552055D01*
X718174Y554336D01*
X717565Y554688D01*
X717649Y555326D01*
X717844Y555993D01*
X719741Y557088D01*
X721331Y558678D01*
X722456Y560625D01*
X723038Y562798D01*
Y565046D01*
X722456Y567218D01*
X721978Y568045D01*
X722456Y568872D01*
X723038Y571044D01*
Y573292D01*
X722456Y575464D01*
X721331Y577411D01*
X719741Y579002D01*
X717794Y580126D01*
X715622Y580708D01*
D02*
G37*
G36*
X587432Y570285D02*
X585184D01*
X583012Y569703D01*
X582390Y569344D01*
X581769Y569703D01*
X579597Y570285D01*
X577348D01*
X575176Y569703D01*
X574618Y569381D01*
X574061Y569703D01*
X571889Y570285D01*
X569640D01*
X567468Y569703D01*
X566641Y569225D01*
X565815Y569703D01*
X563643Y570285D01*
X561394D01*
X559222Y569703D01*
X557275Y568578D01*
X555685Y566988D01*
X554560Y565041D01*
X553978Y562869D01*
Y560620D01*
X554560Y558448D01*
X554967Y557745D01*
X554560Y557041D01*
X553978Y554869D01*
Y552620D01*
X554560Y550448D01*
X555685Y548501D01*
X557275Y546911D01*
X559222Y545787D01*
X561394Y545205D01*
X563643D01*
X565815Y545787D01*
X566641Y546264D01*
X567468Y545787D01*
X569640Y545205D01*
X571889D01*
X574061Y545787D01*
X574618Y546109D01*
X575176Y545787D01*
X577348Y545205D01*
X579597D01*
X581769Y545787D01*
X582390Y546146D01*
X583012Y545787D01*
X585184Y545205D01*
X587432D01*
X589604Y545787D01*
X591552Y546911D01*
X593142Y548501D01*
X594266Y550448D01*
X594848Y552620D01*
Y554869D01*
X594266Y557041D01*
X593860Y557745D01*
X594266Y558448D01*
X594848Y560620D01*
Y562869D01*
X594266Y565041D01*
X593142Y566988D01*
X591552Y568578D01*
X589604Y569703D01*
X587432Y570285D01*
D02*
G37*
G36*
X616160Y551535D02*
X613911D01*
X611739Y550953D01*
X611035Y550547D01*
X610332Y550953D01*
X608160Y551535D01*
X605911D01*
X603739Y550953D01*
X601792Y549829D01*
X600202Y548239D01*
X599077Y546292D01*
X598495Y544119D01*
Y541871D01*
X599077Y539699D01*
X599399Y539141D01*
X599077Y538583D01*
X598495Y536412D01*
Y534163D01*
X599077Y531991D01*
X599555Y531164D01*
X599077Y530337D01*
X598495Y528166D01*
Y525917D01*
X599077Y523745D01*
X599699Y522668D01*
X599077Y521591D01*
X598495Y519419D01*
Y517170D01*
X599077Y514998D01*
X599436Y514377D01*
X599077Y513755D01*
X598495Y511583D01*
Y509334D01*
X599077Y507163D01*
X599399Y506605D01*
X599077Y506047D01*
X598495Y503875D01*
Y501627D01*
X599077Y499455D01*
X600202Y497507D01*
X601792Y495917D01*
X603739Y494793D01*
X605911Y494211D01*
X608160D01*
X610332Y494793D01*
X611035Y495199D01*
X611739Y494793D01*
X613911Y494211D01*
X616160D01*
X618332Y494793D01*
X620279Y495917D01*
X621869Y497507D01*
X622993Y499455D01*
X623575Y501627D01*
Y503875D01*
X622993Y506047D01*
X622671Y506605D01*
X622993Y507163D01*
X623575Y509334D01*
Y511583D01*
X622993Y513755D01*
X622635Y514377D01*
X622993Y514998D01*
X623575Y517170D01*
Y519419D01*
X622993Y521591D01*
X622372Y522668D01*
X622993Y523745D01*
X623575Y525917D01*
Y528166D01*
X622993Y530337D01*
X622516Y531164D01*
X622993Y531991D01*
X623575Y534163D01*
Y536412D01*
X622993Y538583D01*
X622671Y539141D01*
X622993Y539699D01*
X623575Y541871D01*
Y544119D01*
X622993Y546292D01*
X621869Y548239D01*
X620279Y549829D01*
X618332Y550953D01*
X616160Y551535D01*
D02*
G37*
G36*
X502471Y558885D02*
X437494D01*
X429618Y551009D01*
Y518278D01*
X428045Y516704D01*
X426920Y514757D01*
X426338Y512585D01*
Y510336D01*
X426920Y508164D01*
X427458Y507232D01*
X427042Y506511D01*
X426460Y504339D01*
Y502090D01*
X427042Y499918D01*
X427364Y499361D01*
X427042Y498803D01*
X426460Y496631D01*
Y494383D01*
X427042Y492210D01*
X427401Y491589D01*
X427042Y490967D01*
X426460Y488796D01*
Y486547D01*
X427042Y484375D01*
X428166Y482427D01*
X429618Y480975D01*
Y475557D01*
X430755Y474421D01*
X490931D01*
X505838Y489328D01*
Y555518D01*
X502471Y558885D01*
D02*
G37*
G36*
X606825Y471951D02*
X604576D01*
X602404Y471370D01*
X601701Y470963D01*
X600997Y471370D01*
X598825Y471951D01*
X596576D01*
X594404Y471370D01*
X592457Y470245D01*
X590867Y468655D01*
X589743Y466708D01*
X589161Y464536D01*
Y462287D01*
X589743Y460115D01*
X590220Y459288D01*
X589743Y458462D01*
X589414Y457236D01*
X588917Y457030D01*
X586745Y457612D01*
X584496D01*
X582324Y457030D01*
X580377Y455905D01*
X578787Y454315D01*
X577662Y452368D01*
X577080Y450196D01*
Y447947D01*
X577662Y445775D01*
X578787Y443828D01*
X580377Y442238D01*
X582324Y441114D01*
X584496Y440532D01*
X586745D01*
X587934Y440850D01*
X589161Y439864D01*
Y438498D01*
X589743Y436326D01*
X590341Y435289D01*
X589743Y434252D01*
X589161Y432080D01*
Y429999D01*
X588834Y429574D01*
X588075Y428975D01*
X586745Y429332D01*
X584496D01*
X582324Y428750D01*
X580377Y427625D01*
X578787Y426035D01*
X577662Y424088D01*
X577080Y421916D01*
Y419667D01*
X577662Y417495D01*
X578787Y415548D01*
X580377Y413958D01*
X582324Y412834D01*
X584496Y412252D01*
X586745D01*
X588334Y412677D01*
X589452Y412065D01*
X589900Y410736D01*
X589743Y410463D01*
X589161Y408291D01*
Y406042D01*
X589743Y403870D01*
X590867Y401923D01*
X592457Y400333D01*
X594404Y399208D01*
X596576Y398626D01*
X598825D01*
X600997Y399208D01*
X601701Y399615D01*
X602404Y399208D01*
X604576Y398626D01*
X606825D01*
X608997Y399208D01*
X610944Y400333D01*
X612534Y401923D01*
X613659Y403870D01*
X614241Y406042D01*
Y408291D01*
X613659Y410463D01*
X613300Y411084D01*
X613659Y411706D01*
X613892Y412578D01*
X615371Y413191D01*
X616438Y412575D01*
X618610Y411993D01*
X620859D01*
X623031Y412575D01*
X624978Y413699D01*
X626568Y415289D01*
X627692Y417236D01*
X628274Y419408D01*
Y421657D01*
X627692Y423829D01*
X626568Y425776D01*
X624978Y427366D01*
X623031Y428491D01*
X620859Y429073D01*
X618610D01*
X616438Y428491D01*
X614969Y427643D01*
X613878Y428479D01*
X614241Y429832D01*
Y432080D01*
X613659Y434252D01*
X613060Y435289D01*
X613659Y436326D01*
X614241Y438498D01*
Y440746D01*
X614049Y441462D01*
X615139Y442299D01*
X616438Y441549D01*
X618610Y440967D01*
X620859D01*
X623031Y441549D01*
X624978Y442673D01*
X626568Y444263D01*
X627692Y446211D01*
X628274Y448383D01*
Y450631D01*
X627692Y452803D01*
X626568Y454751D01*
X624978Y456341D01*
X623031Y457465D01*
X620859Y458047D01*
X618610D01*
X616438Y457465D01*
X615401Y456866D01*
X613922Y457479D01*
X613659Y458462D01*
X613181Y459288D01*
X613659Y460115D01*
X614241Y462287D01*
Y464536D01*
X613659Y466708D01*
X612534Y468655D01*
X610944Y470245D01*
X608997Y471370D01*
X606825Y471951D01*
D02*
G37*
G36*
X509632Y437615D02*
X507383D01*
X505211Y437033D01*
X503264Y435909D01*
X501674Y434319D01*
X500550Y432372D01*
X499967Y430200D01*
Y427951D01*
X500461Y426111D01*
X500528Y425751D01*
X499720Y424675D01*
X498510Y424351D01*
X496563Y423227D01*
X496543Y423207D01*
X496523Y423227D01*
X494576Y424351D01*
X492404Y424933D01*
X490155D01*
X487983Y424351D01*
X486036Y423227D01*
X484446Y421637D01*
X483321Y419689D01*
X482739Y417517D01*
Y415269D01*
X483321Y413097D01*
X483829Y412218D01*
X483321Y411339D01*
X482739Y409167D01*
Y406919D01*
X483321Y404747D01*
X484144Y403322D01*
X483321Y401897D01*
X482739Y399725D01*
Y397477D01*
X483321Y395305D01*
X483829Y394426D01*
X483321Y393547D01*
X482739Y391375D01*
Y389127D01*
X483321Y386955D01*
X484446Y385008D01*
X486036Y383417D01*
X487983Y382293D01*
X490155Y381711D01*
X492404D01*
X494576Y382293D01*
X496523Y383417D01*
X496543Y383437D01*
X496563Y383417D01*
X498510Y382293D01*
X500682Y381711D01*
X502931D01*
X505103Y382293D01*
X506579Y383145D01*
X508056Y382293D01*
X510228Y381711D01*
X512476D01*
X514648Y382293D01*
X516596Y383417D01*
X518186Y385008D01*
X519310Y386955D01*
X519892Y389127D01*
Y391375D01*
X519310Y393547D01*
X518803Y394426D01*
X519310Y395305D01*
X519892Y397477D01*
Y399725D01*
X519310Y401897D01*
X518488Y403322D01*
X519310Y404747D01*
X519892Y406919D01*
Y409167D01*
X519310Y411339D01*
X518803Y412218D01*
X519310Y413097D01*
X519892Y415269D01*
Y417517D01*
X519310Y419689D01*
X518186Y421637D01*
X516596Y423227D01*
X515393Y423921D01*
X516465Y425779D01*
X517048Y427951D01*
Y430200D01*
X516465Y432372D01*
X515341Y434319D01*
X513751Y435909D01*
X511804Y437033D01*
X509632Y437615D01*
D02*
G37*
G36*
X757618Y411363D02*
X755369D01*
X753197Y410781D01*
X751358Y409719D01*
X749519Y410781D01*
X747347Y411363D01*
X745098D01*
X742926Y410781D01*
X741021Y409681D01*
X739116Y410781D01*
X736944Y411363D01*
X734695D01*
X732523Y410781D01*
X730819Y409797D01*
X729116Y410781D01*
X726944Y411363D01*
X724695D01*
X722523Y410781D01*
X720576Y409657D01*
X718986Y408067D01*
X717861Y406119D01*
X717279Y403947D01*
Y401699D01*
X717861Y399527D01*
X718636Y398185D01*
X717861Y396844D01*
X717279Y394672D01*
Y392423D01*
X717861Y390251D01*
X718746Y388719D01*
X717861Y387188D01*
X717279Y385016D01*
Y382767D01*
X717861Y380595D01*
X718986Y378648D01*
X720576Y377058D01*
X722523Y375934D01*
X724695Y375352D01*
X726944D01*
X729116Y375934D01*
X730819Y376917D01*
X732523Y375934D01*
X734695Y375352D01*
X736944D01*
X739116Y375934D01*
X741021Y377034D01*
X742926Y375934D01*
X745098Y375352D01*
X747347D01*
X749519Y375934D01*
X751358Y376995D01*
X753197Y375934D01*
X755369Y375352D01*
X757618D01*
X759790Y375934D01*
X761737Y377058D01*
X763327Y378648D01*
X764451Y380595D01*
X765033Y382767D01*
Y385016D01*
X764451Y387188D01*
X763567Y388719D01*
X764451Y390251D01*
X765033Y392423D01*
Y394672D01*
X764451Y396844D01*
X763677Y398185D01*
X764451Y399527D01*
X765033Y401699D01*
Y403947D01*
X764451Y406119D01*
X763327Y408067D01*
X761737Y409657D01*
X759790Y410781D01*
X757618Y411363D01*
D02*
G37*
G36*
X516830Y379583D02*
X514582D01*
X512410Y379001D01*
X511706Y378595D01*
X511003Y379001D01*
X508830Y379583D01*
X506582D01*
X504410Y379001D01*
X502463Y377877D01*
X500872Y376287D01*
X499748Y374339D01*
X499166Y372167D01*
Y369919D01*
X499748Y367747D01*
X500070Y367189D01*
X499748Y366631D01*
X499166Y364459D01*
Y362211D01*
X499748Y360039D01*
X500107Y359417D01*
X499748Y358796D01*
X499166Y356624D01*
Y354375D01*
X499748Y352203D01*
X500809Y350365D01*
X499748Y348527D01*
X499166Y346356D01*
Y344107D01*
X499748Y341935D01*
X500225Y341108D01*
X499748Y340281D01*
X499166Y338110D01*
Y335861D01*
X499748Y333689D01*
X500070Y333131D01*
X499748Y332574D01*
X499166Y330401D01*
Y328153D01*
X499748Y325981D01*
X500107Y325359D01*
X499748Y324738D01*
X499166Y322566D01*
Y320317D01*
X499748Y318145D01*
X500498Y316847D01*
X499752Y315556D01*
X499170Y313384D01*
Y311136D01*
X499752Y308964D01*
X500876Y307016D01*
X502466Y305426D01*
X504414Y304302D01*
X506586Y303720D01*
X508834D01*
X511006Y304302D01*
X511704Y304705D01*
X512410Y304297D01*
X514582Y303715D01*
X516830D01*
X519002Y304297D01*
X520950Y305422D01*
X522540Y307012D01*
X523664Y308959D01*
X524246Y311131D01*
Y313380D01*
X523664Y315552D01*
X523062Y316594D01*
X523958Y318145D01*
X524540Y320317D01*
Y322566D01*
X523958Y324738D01*
X523452Y325614D01*
X523664Y325981D01*
X524246Y328153D01*
Y330401D01*
X523664Y332574D01*
X523342Y333131D01*
X523664Y333689D01*
X524246Y335861D01*
Y338110D01*
X523664Y340281D01*
X523187Y341108D01*
X523664Y341935D01*
X524246Y344107D01*
Y346356D01*
X523664Y348527D01*
X522603Y350365D01*
X523664Y352203D01*
X524246Y354375D01*
Y356624D01*
X523664Y358796D01*
X523305Y359417D01*
X523664Y360039D01*
X524246Y362211D01*
Y364459D01*
X523664Y366631D01*
X523342Y367189D01*
X523664Y367747D01*
X524246Y369919D01*
Y372167D01*
X523664Y374339D01*
X522540Y376287D01*
X520950Y377877D01*
X519002Y379001D01*
X516830Y379583D01*
D02*
G37*
G36*
X663151Y369120D02*
X660902D01*
X658730Y368538D01*
X657350Y367742D01*
X655971Y368538D01*
X653799Y369120D01*
X651550D01*
X649378Y368538D01*
X648362Y367951D01*
X647345Y368538D01*
X645173Y369120D01*
X642925D01*
X640753Y368538D01*
X638805Y367414D01*
X637215Y365824D01*
X636091Y363876D01*
X635654Y362245D01*
X635018Y361817D01*
X634518Y361617D01*
X634239Y361593D01*
X631512Y362722D01*
X628324Y363356D01*
X625074D01*
X621886Y362722D01*
X618883Y361478D01*
X616181Y359673D01*
X613882Y357374D01*
X612077Y354672D01*
X610833Y351669D01*
X610199Y348481D01*
Y345231D01*
X610833Y342043D01*
X612077Y339041D01*
X613882Y336338D01*
X616181Y334040D01*
X618883Y332234D01*
X621886Y330990D01*
X625074Y330356D01*
X628324D01*
X631512Y330990D01*
X634515Y332234D01*
X637217Y334040D01*
X639515Y336338D01*
X640445Y337729D01*
X641709Y337854D01*
X641817Y337745D01*
X643765Y336621D01*
X645937Y336039D01*
X648186D01*
X650358Y336621D01*
X651058Y337025D01*
X652397Y336252D01*
X654569Y335670D01*
X656818D01*
X658990Y336252D01*
X660187Y336943D01*
X661385Y336252D01*
X663557Y335670D01*
X665806D01*
X667978Y336252D01*
X669925Y337376D01*
X671515Y338966D01*
X672639Y340913D01*
X673221Y343085D01*
Y345334D01*
X672918Y346467D01*
X673810Y347359D01*
X674935Y349307D01*
X675517Y351479D01*
Y353727D01*
X674935Y355899D01*
X673810Y357847D01*
X672220Y359437D01*
X670566Y360392D01*
Y361704D01*
X669984Y363876D01*
X668860Y365824D01*
X667270Y367414D01*
X665323Y368538D01*
X663151Y369120D01*
D02*
G37*
G36*
X424578Y366121D02*
X422329D01*
X420158Y365539D01*
X418681Y364687D01*
X417205Y365539D01*
X415033Y366121D01*
X412784D01*
X410612Y365539D01*
X408665Y364415D01*
X408645Y364395D01*
X408625Y364415D01*
X406677Y365539D01*
X404505Y366121D01*
X402257D01*
X400085Y365539D01*
X398138Y364415D01*
X396547Y362825D01*
X395423Y360878D01*
X394841Y358706D01*
Y356457D01*
X395423Y354285D01*
X396547Y352338D01*
X397139Y351746D01*
X396339Y350947D01*
X395215Y349000D01*
X394633Y346828D01*
Y344579D01*
X395215Y342407D01*
X396339Y340460D01*
X396503Y340296D01*
X396042Y339835D01*
X394918Y337888D01*
X394336Y335716D01*
Y333467D01*
X394918Y331295D01*
X396042Y329348D01*
X397632Y327758D01*
X399580Y326633D01*
X401752Y326051D01*
X404000D01*
X406172Y326633D01*
X408120Y327758D01*
X408140Y327778D01*
X408160Y327758D01*
X410107Y326633D01*
X412279Y326051D01*
X414528D01*
X416700Y326633D01*
X418176Y327486D01*
X419652Y326633D01*
X421824Y326051D01*
X424073D01*
X426245Y326633D01*
X428192Y327758D01*
X429782Y329348D01*
X430907Y331295D01*
X431488Y333467D01*
Y335716D01*
X430907Y337888D01*
X429782Y339835D01*
X429618Y339999D01*
X430079Y340460D01*
X431204Y342407D01*
X431786Y344579D01*
Y346828D01*
X431204Y349000D01*
X430079Y350947D01*
X429488Y351538D01*
X430288Y352338D01*
X431412Y354285D01*
X431994Y356457D01*
Y358706D01*
X431412Y360878D01*
X430288Y362825D01*
X428697Y364415D01*
X426750Y365539D01*
X424578Y366121D01*
D02*
G37*
G36*
X707823Y337099D02*
X705574D01*
X703402Y336517D01*
X701455Y335393D01*
X699865Y333803D01*
X699062Y332412D01*
X697699D01*
X696896Y333803D01*
X695306Y335393D01*
X693359Y336517D01*
X691187Y337099D01*
X688938D01*
X686766Y336517D01*
X684819Y335393D01*
X683229Y333803D01*
X682104Y331856D01*
X681522Y329684D01*
Y327435D01*
X682104Y325263D01*
X683093Y323551D01*
X682104Y321838D01*
X681522Y319666D01*
Y317418D01*
X682104Y315245D01*
X682506Y314550D01*
X681838Y313393D01*
X681256Y311221D01*
Y308972D01*
X681838Y306800D01*
X682963Y304853D01*
X684553Y303263D01*
X686500Y302139D01*
X688672Y301556D01*
X690921D01*
X693093Y302139D01*
X695040Y303263D01*
X696630Y304853D01*
X697213Y305862D01*
X699105D01*
X699560Y305984D01*
X699865Y305456D01*
X701455Y303866D01*
X703402Y302741D01*
X705574Y302159D01*
X707823D01*
X709995Y302741D01*
X711942Y303866D01*
X713532Y305456D01*
X714657Y307403D01*
X715239Y309575D01*
Y311824D01*
X714657Y313996D01*
X713963Y315196D01*
X714657Y316397D01*
X715239Y318569D01*
Y320818D01*
X714657Y322990D01*
X714001Y324127D01*
X714657Y325263D01*
X715239Y327435D01*
Y329684D01*
X714657Y331856D01*
X713532Y333803D01*
X711942Y335393D01*
X709995Y336517D01*
X707823Y337099D01*
D02*
G37*
G36*
X356438Y324694D02*
X354189D01*
X352018Y324112D01*
X350112Y323012D01*
X348207Y324112D01*
X346035Y324694D01*
X343786D01*
X341614Y324112D01*
X339911Y323129D01*
X338207Y324112D01*
X336035Y324694D01*
X333786D01*
X331614Y324112D01*
X329667Y322988D01*
X328077Y321398D01*
X326953Y319451D01*
X326371Y317279D01*
Y315030D01*
X326953Y312858D01*
X327727Y311516D01*
X326953Y310175D01*
X326371Y308003D01*
Y305755D01*
X326953Y303582D01*
X327837Y302051D01*
X326953Y300519D01*
X326371Y298347D01*
Y296099D01*
X326953Y293927D01*
X328077Y291979D01*
X329667Y290389D01*
X331614Y289265D01*
X333786Y288683D01*
X336035D01*
X338207Y289265D01*
X339911Y290249D01*
X341614Y289265D01*
X343786Y288683D01*
X346035D01*
X348207Y289265D01*
X350112Y290365D01*
X352018Y289265D01*
X354189Y288683D01*
X356438D01*
X358610Y289265D01*
X360558Y290389D01*
X362147Y291979D01*
X363272Y293927D01*
X363854Y296099D01*
Y298347D01*
X363272Y300519D01*
X362388Y302051D01*
X363272Y303582D01*
X363854Y305755D01*
Y308003D01*
X363272Y310175D01*
X362497Y311516D01*
X363272Y312858D01*
X363854Y315030D01*
Y317279D01*
X363272Y319451D01*
X362147Y321398D01*
X360558Y322988D01*
X358610Y324112D01*
X356438Y324694D01*
D02*
G37*
G36*
X710274Y291256D02*
X708025D01*
X705853Y290674D01*
X705150Y290268D01*
X704446Y290674D01*
X702274Y291256D01*
X700025D01*
X697853Y290674D01*
X695906Y289550D01*
X694316Y287959D01*
X693192Y286012D01*
X692610Y283840D01*
Y281591D01*
X693192Y279419D01*
X693669Y278593D01*
X693192Y277766D01*
X692610Y275594D01*
Y273346D01*
X693192Y271173D01*
X693514Y270616D01*
X693192Y270058D01*
X692610Y267886D01*
Y265637D01*
X693192Y263465D01*
X693550Y262844D01*
X693192Y262222D01*
X692610Y260051D01*
Y257802D01*
X693192Y255630D01*
X694316Y253682D01*
X695906Y252092D01*
X697853Y250968D01*
X700025Y250386D01*
X702274D01*
X704446Y250968D01*
X705150Y251374D01*
X705853Y250968D01*
X708025Y250386D01*
X710274D01*
X712446Y250968D01*
X714393Y252092D01*
X715983Y253682D01*
X717108Y255630D01*
X717690Y257802D01*
Y260051D01*
X717108Y262222D01*
X716749Y262844D01*
X717108Y263465D01*
X717690Y265637D01*
Y267886D01*
X717108Y270058D01*
X716786Y270616D01*
X717108Y271173D01*
X717690Y273346D01*
Y275594D01*
X717108Y277766D01*
X716630Y278593D01*
X717108Y279419D01*
X717690Y281591D01*
Y283840D01*
X717108Y286012D01*
X715983Y287959D01*
X714393Y289550D01*
X712446Y290674D01*
X710274Y291256D01*
D02*
G37*
G36*
X631949Y299953D02*
X621449D01*
X618512Y299567D01*
X615775Y298433D01*
X613425Y296630D01*
X611622Y294280D01*
X610489Y291543D01*
X610102Y288606D01*
Y278106D01*
X610489Y275170D01*
X611622Y272433D01*
X613425Y270083D01*
X615775Y268279D01*
X618512Y267146D01*
X621449Y266759D01*
X631949D01*
X634886Y267146D01*
X637622Y268279D01*
X639972Y270083D01*
X640442Y270695D01*
X641710Y270612D01*
X642076Y269978D01*
X643665Y268388D01*
X645613Y267264D01*
X647785Y266682D01*
X650033D01*
X652206Y267264D01*
X652827Y267623D01*
X653448Y267264D01*
X655620Y266682D01*
X657869D01*
X660041Y267264D01*
X660599Y267586D01*
X661156Y267264D01*
X663328Y266682D01*
X665577D01*
X667749Y267264D01*
X668576Y267741D01*
X669402Y267264D01*
X671574Y266682D01*
X673823D01*
X675995Y267264D01*
X677943Y268388D01*
X679532Y269978D01*
X680657Y271926D01*
X681239Y274098D01*
Y276346D01*
X680657Y278518D01*
X680250Y279222D01*
X680657Y279926D01*
X681239Y282098D01*
Y284346D01*
X680657Y286518D01*
X679532Y288466D01*
X677943Y290056D01*
X675995Y291180D01*
X673823Y291762D01*
X671574D01*
X669402Y291180D01*
X668576Y290703D01*
X667749Y291180D01*
X665577Y291762D01*
X663328D01*
X661156Y291180D01*
X660599Y290858D01*
X660041Y291180D01*
X657869Y291762D01*
X655620D01*
X653448Y291180D01*
X652827Y290821D01*
X652206Y291180D01*
X650033Y291762D01*
X647785D01*
X645613Y291180D01*
X644335Y290442D01*
X642971Y291077D01*
X642909Y291543D01*
X641776Y294280D01*
X639972Y296630D01*
X637622Y298433D01*
X634886Y299567D01*
X631949Y299953D01*
D02*
G37*
G36*
X534352Y255630D02*
X532103D01*
X529931Y255047D01*
X529227Y254641D01*
X528524Y255047D01*
X526352Y255630D01*
X524103D01*
X521931Y255047D01*
X519984Y253923D01*
X518394Y252333D01*
X517270Y250386D01*
X516688Y248214D01*
Y245971D01*
X516673Y245957D01*
X515547Y245316D01*
X515261Y245602D01*
X512468Y247214D01*
X509352Y248049D01*
X506127D01*
X503011Y247214D01*
X500218Y245602D01*
X497937Y243321D01*
X496324Y240527D01*
X495489Y237412D01*
Y234186D01*
X496324Y231071D01*
X497937Y228277D01*
X500218Y225997D01*
X503011Y224384D01*
X506127Y223549D01*
X509352D01*
X512468Y224384D01*
X515261Y225997D01*
X515989Y226725D01*
X517128Y226067D01*
X516688Y224424D01*
Y222176D01*
X517270Y220004D01*
X518394Y218056D01*
X519984Y216466D01*
X521931Y215342D01*
X524103Y214760D01*
X526352D01*
X528524Y215342D01*
X529227Y215748D01*
X529931Y215342D01*
X532103Y214760D01*
X534352D01*
X536524Y215342D01*
X538471Y216466D01*
X540061Y218056D01*
X541185Y220004D01*
X541767Y222176D01*
Y224424D01*
X541185Y226596D01*
X540827Y227218D01*
X541185Y227839D01*
X541767Y230011D01*
Y232260D01*
X541185Y234432D01*
X540863Y234989D01*
X541185Y235547D01*
X541767Y237719D01*
Y239968D01*
X541185Y242140D01*
X540708Y242966D01*
X541185Y243793D01*
X541767Y245965D01*
Y248214D01*
X541185Y250386D01*
X540061Y252333D01*
X538471Y253923D01*
X536524Y255047D01*
X534352Y255630D01*
D02*
G37*
G36*
X712525Y243061D02*
X710276D01*
X708104Y242479D01*
X707401Y242073D01*
X706697Y242479D01*
X704525Y243061D01*
X702276D01*
X700104Y242479D01*
X698157Y241355D01*
X696567Y239765D01*
X695443Y237818D01*
X694861Y235646D01*
Y233397D01*
X695443Y231225D01*
X695802Y230604D01*
X695443Y229982D01*
X694861Y227810D01*
Y225561D01*
X695443Y223389D01*
X696567Y221442D01*
X698157Y219852D01*
X700104Y218728D01*
X702276Y218146D01*
X704525D01*
X706697Y218728D01*
X707401Y219134D01*
X708104Y218728D01*
X710276Y218146D01*
X712525D01*
X714697Y218728D01*
X716644Y219852D01*
X718234Y221442D01*
X719359Y223389D01*
X719941Y225561D01*
Y227810D01*
X719359Y229982D01*
X719000Y230604D01*
X719359Y231225D01*
X719941Y233397D01*
Y235646D01*
X719359Y237818D01*
X718234Y239765D01*
X716644Y241355D01*
X714697Y242479D01*
X712525Y243061D01*
D02*
G37*
G36*
X627836Y243391D02*
X625587D01*
X623415Y242809D01*
X621468Y241685D01*
X619878Y240095D01*
X618754Y238147D01*
X618172Y235975D01*
Y233727D01*
X618754Y231555D01*
X619878Y229607D01*
X620134Y229351D01*
X619878Y229095D01*
X618754Y227148D01*
X618172Y224975D01*
Y222727D01*
X618754Y220555D01*
X619878Y218608D01*
X621468Y217017D01*
X623415Y215893D01*
X625587Y215311D01*
X627836D01*
X630008Y215893D01*
X631955Y217017D01*
X633545Y218608D01*
X634670Y220555D01*
X635252Y222727D01*
Y224975D01*
X634670Y227148D01*
X633545Y229095D01*
X633289Y229351D01*
X633545Y229607D01*
X634670Y231555D01*
X635252Y233727D01*
Y235975D01*
X634670Y238147D01*
X633545Y240095D01*
X631955Y241685D01*
X630008Y242809D01*
X627836Y243391D01*
D02*
G37*
G36*
X654923D02*
X652675D01*
X650503Y242809D01*
X648555Y241685D01*
X646965Y240095D01*
X645841Y238147D01*
X645259Y235975D01*
Y233727D01*
X645841Y231555D01*
X646965Y229607D01*
X647222Y229351D01*
X646965Y229094D01*
X645841Y227147D01*
X645259Y224975D01*
Y222726D01*
X645841Y220554D01*
X646965Y218607D01*
X648555Y217017D01*
X650503Y215893D01*
X652675Y215311D01*
X654923D01*
X657095Y215893D01*
X659043Y217017D01*
X660633Y218607D01*
X661757Y220554D01*
X662339Y222726D01*
Y224975D01*
X661757Y227147D01*
X660633Y229094D01*
X660376Y229351D01*
X660633Y229607D01*
X661757Y231555D01*
X662339Y233727D01*
Y235975D01*
X661757Y238147D01*
X660633Y240095D01*
X659043Y241685D01*
X657095Y242809D01*
X654923Y243391D01*
D02*
G37*
G36*
X367368Y208843D02*
X365119D01*
X362947Y208262D01*
X361108Y207200D01*
X359269Y208262D01*
X357097Y208843D01*
X354848D01*
X352676Y208262D01*
X350771Y207162D01*
X348866Y208262D01*
X346693Y208843D01*
X344445D01*
X342273Y208262D01*
X340569Y207278D01*
X338866Y208262D01*
X336693Y208843D01*
X334445D01*
X332273Y208262D01*
X330326Y207137D01*
X328736Y205547D01*
X327611Y203600D01*
X327029Y201428D01*
Y199179D01*
X327611Y197007D01*
X328386Y195666D01*
X327611Y194324D01*
X327029Y192152D01*
Y189904D01*
X327611Y187732D01*
X328495Y186200D01*
X327611Y184669D01*
X327029Y182496D01*
Y180248D01*
X327611Y178076D01*
X328736Y176129D01*
X330326Y174538D01*
X332273Y173414D01*
X334445Y172832D01*
X336693D01*
X338866Y173414D01*
X340569Y174398D01*
X342273Y173414D01*
X344445Y172832D01*
X346693D01*
X348866Y173414D01*
X350771Y174514D01*
X352676Y173414D01*
X354848Y172832D01*
X357097D01*
X359269Y173414D01*
X361108Y174476D01*
X362947Y173414D01*
X365119Y172832D01*
X367368D01*
X369539Y173414D01*
X371487Y174538D01*
X373077Y176129D01*
X374201Y178076D01*
X374783Y180248D01*
Y182496D01*
X374201Y184669D01*
X373317Y186200D01*
X374201Y187732D01*
X374783Y189904D01*
Y192152D01*
X374201Y194324D01*
X373427Y195666D01*
X374201Y197007D01*
X374783Y199179D01*
Y201428D01*
X374201Y203600D01*
X373077Y205547D01*
X371487Y207137D01*
X369539Y208262D01*
X367368Y208843D01*
D02*
G37*
G36*
X647337Y196799D02*
X645089D01*
X642917Y196217D01*
X640969Y195092D01*
X639379Y193502D01*
X638255Y191555D01*
X637930Y190342D01*
X636468Y189792D01*
X634802Y190905D01*
X631799Y192149D01*
X628611Y192783D01*
X625361D01*
X622174Y192149D01*
X619171Y190905D01*
X616468Y189099D01*
X614296Y186928D01*
X613764Y186957D01*
X612954Y187267D01*
X612444Y189169D01*
X611320Y191117D01*
X609730Y192707D01*
X607783Y193831D01*
X605611Y194413D01*
X603362D01*
X601190Y193831D01*
X599243Y192707D01*
X597653Y191117D01*
X596529Y189169D01*
X595947Y186997D01*
Y184748D01*
X596529Y182577D01*
X597394Y181078D01*
X596529Y179579D01*
X595947Y177407D01*
Y175159D01*
X596529Y172987D01*
X597323Y171610D01*
X596529Y170233D01*
X595947Y168061D01*
Y165813D01*
X596529Y163641D01*
X597653Y161693D01*
X599243Y160103D01*
X601190Y158979D01*
X603362Y158397D01*
X605611D01*
X607783Y158979D01*
X609730Y160103D01*
X611320Y161693D01*
X612444Y163641D01*
X612907Y165368D01*
X613910Y165683D01*
X614120Y165702D01*
X614245Y165689D01*
X616468Y163466D01*
X619171Y161661D01*
X622174Y160417D01*
X625361Y159783D01*
X628611D01*
X631799Y160417D01*
X634802Y161661D01*
X637111Y163204D01*
X637137Y163214D01*
X638326Y163055D01*
X638701Y162867D01*
X639379Y161693D01*
X640969Y160103D01*
X642917Y158979D01*
X645089Y158397D01*
X647337D01*
X649509Y158979D01*
X651457Y160103D01*
X653047Y161693D01*
X654171Y163641D01*
X654753Y165813D01*
Y168061D01*
X654171Y170233D01*
X653047Y172181D01*
X653043Y172184D01*
X653047Y172188D01*
X654171Y174135D01*
X654753Y176307D01*
Y178556D01*
X654171Y180728D01*
X653047Y182675D01*
X652877Y182845D01*
X653047Y183015D01*
X654171Y184962D01*
X654753Y187134D01*
Y189383D01*
X654171Y191555D01*
X653047Y193502D01*
X651457Y195092D01*
X649509Y196217D01*
X647337Y196799D01*
D02*
G37*
G36*
X559577Y178773D02*
X557329D01*
X555157Y178191D01*
X554453Y177785D01*
X553749Y178191D01*
X551577Y178773D01*
X549329D01*
X547157Y178191D01*
X545840Y177431D01*
X544524Y178191D01*
X542352Y178773D01*
X540103D01*
X537931Y178191D01*
X537227Y177785D01*
X536524Y178191D01*
X534352Y178773D01*
X532103D01*
X529931Y178191D01*
X527984Y177067D01*
X526394Y175477D01*
X525270Y173530D01*
X524688Y171358D01*
Y169109D01*
X525270Y166937D01*
X525747Y166110D01*
X525270Y165284D01*
X524688Y163112D01*
Y160863D01*
X525270Y158691D01*
X525591Y158133D01*
X525270Y157576D01*
X524688Y155404D01*
Y153155D01*
X525270Y150983D01*
X525628Y150362D01*
X525270Y149740D01*
X524688Y147568D01*
Y145319D01*
X525270Y143147D01*
X526394Y141200D01*
X527984Y139610D01*
X529931Y138486D01*
X532103Y137904D01*
X534352D01*
X536524Y138486D01*
X537227Y138892D01*
X537931Y138486D01*
X540103Y137904D01*
X542352D01*
X544524Y138486D01*
X545840Y139246D01*
X547157Y138486D01*
X549329Y137904D01*
X551577D01*
X553749Y138486D01*
X555697Y139610D01*
X557287Y141200D01*
X558411Y143147D01*
X558993Y145319D01*
Y145739D01*
X559577D01*
X561749Y146321D01*
X563697Y147446D01*
X565287Y149036D01*
X566411Y150983D01*
X566993Y153155D01*
Y155404D01*
X566411Y157576D01*
X566089Y158133D01*
X566411Y158691D01*
X566993Y160863D01*
Y163112D01*
X566411Y165284D01*
X565934Y166110D01*
X566411Y166937D01*
X566993Y169109D01*
Y171358D01*
X566411Y173530D01*
X565287Y175477D01*
X563697Y177067D01*
X561749Y178191D01*
X559577Y178773D01*
D02*
G37*
G36*
X452752Y178651D02*
X450503D01*
X448331Y178069D01*
X447628Y177663D01*
X446924Y178069D01*
X444752Y178651D01*
X442503D01*
X440331Y178069D01*
X438384Y176945D01*
X436794Y175355D01*
X435670Y173407D01*
X435088Y171235D01*
Y168987D01*
X435670Y166815D01*
X436147Y165988D01*
X435670Y165161D01*
X435088Y162989D01*
Y160741D01*
X435670Y158569D01*
X435992Y158011D01*
X435670Y157453D01*
X435088Y155281D01*
Y153033D01*
X435670Y150861D01*
X436029Y150239D01*
X435670Y149618D01*
X435088Y147446D01*
Y145197D01*
X435670Y143025D01*
X436794Y141078D01*
X438384Y139488D01*
X440331Y138363D01*
X442503Y137781D01*
X444752D01*
X446924Y138363D01*
X447628Y138770D01*
X448331Y138363D01*
X450503Y137781D01*
X452752D01*
X454924Y138363D01*
X456871Y139488D01*
X458461Y141078D01*
X459586Y143025D01*
X460168Y145197D01*
Y147446D01*
X459586Y149618D01*
X459227Y150239D01*
X459586Y150861D01*
X460168Y153033D01*
Y155281D01*
X459586Y157453D01*
X459264Y158011D01*
X459586Y158569D01*
X460168Y160741D01*
Y162989D01*
X459586Y165161D01*
X459108Y165988D01*
X459586Y166815D01*
X460168Y168987D01*
Y171235D01*
X459586Y173407D01*
X458461Y175355D01*
X456871Y176945D01*
X454924Y178069D01*
X452752Y178651D01*
D02*
G37*
G36*
X737717Y174853D02*
X735468D01*
X733296Y174271D01*
X731349Y173147D01*
X730097Y171894D01*
X728844Y173147D01*
X726897Y174271D01*
X724725Y174853D01*
X722476D01*
X720304Y174271D01*
X718357Y173147D01*
X716767Y171557D01*
X715643Y169609D01*
X715061Y167437D01*
Y165189D01*
X715643Y163017D01*
X716767Y161069D01*
X717416Y160420D01*
X716767Y159771D01*
X715643Y157823D01*
X715061Y155651D01*
Y153403D01*
X715643Y151231D01*
X716767Y149283D01*
X718357Y147693D01*
X720304Y146569D01*
X722476Y145987D01*
X724725D01*
X726897Y146569D01*
X728844Y147693D01*
X729973Y148822D01*
X731349Y147446D01*
X733296Y146321D01*
X735468Y145739D01*
X737717D01*
X739889Y146321D01*
X741836Y147446D01*
X743426Y149036D01*
X744551Y150983D01*
X745133Y153155D01*
Y155404D01*
X744551Y157576D01*
X743426Y159523D01*
X742653Y160296D01*
X743426Y161069D01*
X744551Y163017D01*
X745133Y165189D01*
Y167437D01*
X744551Y169609D01*
X743426Y171557D01*
X741836Y173147D01*
X739889Y174271D01*
X737717Y174853D01*
D02*
G37*
G36*
X405058Y145908D02*
X402809D01*
X400637Y145326D01*
X399933Y144920D01*
X399230Y145326D01*
X397058Y145908D01*
X394809D01*
X392637Y145326D01*
X390690Y144202D01*
X389100Y142612D01*
X387975Y140665D01*
X387393Y138493D01*
Y136244D01*
X387975Y134072D01*
X388334Y133450D01*
X387975Y132829D01*
X387393Y130657D01*
Y128408D01*
X387975Y126236D01*
X389100Y124289D01*
X390690Y122699D01*
X392637Y121575D01*
X394809Y120993D01*
X397058D01*
X399230Y121575D01*
X399933Y121981D01*
X400637Y121575D01*
X402809Y120993D01*
X405058D01*
X407230Y121575D01*
X409177Y122699D01*
X410767Y124289D01*
X411891Y126236D01*
X412473Y128408D01*
Y130657D01*
X411891Y132829D01*
X411533Y133450D01*
X411891Y134072D01*
X412473Y136244D01*
Y138493D01*
X411891Y140665D01*
X410767Y142612D01*
X409177Y144202D01*
X407230Y145326D01*
X405058Y145908D01*
D02*
G37*
G36*
X434272Y127594D02*
X432024D01*
X429851Y127012D01*
X429148Y126606D01*
X428444Y127012D01*
X426272Y127594D01*
X424024D01*
X421852Y127012D01*
X419904Y125888D01*
X418314Y124298D01*
X417190Y122351D01*
X416608Y120179D01*
Y117930D01*
X417190Y115758D01*
X417549Y115136D01*
X417190Y114515D01*
X416608Y112343D01*
Y110094D01*
X417190Y107922D01*
X418314Y105975D01*
X419904Y104385D01*
X421852Y103261D01*
X424024Y102679D01*
X426272D01*
X428444Y103261D01*
X429148Y103667D01*
X429851Y103261D01*
X432024Y102679D01*
X434272D01*
X436444Y103261D01*
X438391Y104385D01*
X439981Y105975D01*
X441106Y107922D01*
X441688Y110094D01*
Y112343D01*
X441106Y114515D01*
X440747Y115136D01*
X441106Y115758D01*
X441688Y117930D01*
Y120179D01*
X441106Y122351D01*
X439981Y124298D01*
X438391Y125888D01*
X436444Y127012D01*
X434272Y127594D01*
D02*
G37*
G36*
X651627Y130203D02*
X649378D01*
X647206Y129621D01*
X645259Y128497D01*
X643669Y126907D01*
X642613Y125077D01*
X642114Y124920D01*
X641197Y124836D01*
X640260Y126056D01*
X637910Y127860D01*
X635173Y128993D01*
X632236Y129380D01*
X621736D01*
X618800Y128993D01*
X616063Y127860D01*
X613713Y126056D01*
X613464Y125733D01*
X611940Y125833D01*
X611320Y126907D01*
X609730Y128497D01*
X607783Y129621D01*
X605611Y130203D01*
X603362D01*
X601190Y129621D01*
X599243Y128497D01*
X597653Y126907D01*
X596529Y124959D01*
X595947Y122787D01*
Y120539D01*
X596529Y118367D01*
X597653Y116419D01*
X598175Y115898D01*
X597653Y115376D01*
X596529Y113428D01*
X595947Y111256D01*
Y109008D01*
X596529Y106836D01*
X597653Y104888D01*
X598099Y104442D01*
X597653Y103996D01*
X596529Y102048D01*
X595947Y99876D01*
Y97627D01*
X596529Y95456D01*
X597653Y93508D01*
X599243Y91918D01*
X601190Y90794D01*
X603362Y90212D01*
X605611D01*
X607783Y90794D01*
X609730Y91918D01*
X611320Y93508D01*
X612444Y95456D01*
X613027Y97627D01*
Y98435D01*
X614296Y99061D01*
X616063Y97706D01*
X618800Y96573D01*
X621736Y96186D01*
X632236D01*
X635173Y96573D01*
X637910Y97706D01*
X640260Y99509D01*
X640744Y100141D01*
X641361Y100007D01*
X641963Y99642D01*
Y97627D01*
X642545Y95456D01*
X643669Y93508D01*
X645259Y91918D01*
X647206Y90794D01*
X649378Y90212D01*
X651627D01*
X653799Y90794D01*
X655746Y91918D01*
X657336Y93508D01*
X658461Y95456D01*
X659043Y97627D01*
Y99876D01*
X658461Y102048D01*
X657336Y103996D01*
X656930Y104401D01*
X657336Y104807D01*
X658461Y106755D01*
X659043Y108927D01*
Y111175D01*
X658461Y113347D01*
X657336Y115295D01*
X656774Y115857D01*
X657336Y116419D01*
X658461Y118367D01*
X659043Y120539D01*
Y122787D01*
X658461Y124959D01*
X657336Y126907D01*
X655746Y128497D01*
X653799Y129621D01*
X651627Y130203D01*
D02*
G37*
G36*
X400985Y116033D02*
X397735D01*
X394547Y115399D01*
X391544Y114155D01*
X388842Y112349D01*
X386544Y110051D01*
X384738Y107348D01*
X383494Y104346D01*
X382860Y101158D01*
Y97908D01*
X383494Y94720D01*
X384738Y91717D01*
X386544Y89015D01*
X388842Y86716D01*
X391544Y84911D01*
X394547Y83667D01*
X397735Y83033D01*
X400985D01*
X404173Y83667D01*
X407176Y84911D01*
X409878Y86716D01*
X412176Y89015D01*
X413982Y91717D01*
X415226Y94720D01*
X415860Y97908D01*
Y101158D01*
X415226Y104346D01*
X413982Y107348D01*
X412176Y110051D01*
X409878Y112349D01*
X407176Y114155D01*
X404173Y115399D01*
X400985Y116033D01*
D02*
G37*
G36*
X341110Y116130D02*
X330610D01*
X327673Y115743D01*
X324936Y114610D01*
X322587Y112806D01*
X320783Y110456D01*
X319650Y107720D01*
X319263Y104783D01*
Y94283D01*
X319650Y91346D01*
X320783Y88609D01*
X322587Y86259D01*
X324936Y84456D01*
X327673Y83322D01*
X330610Y82936D01*
X341110D01*
X344047Y83322D01*
X346784Y84456D01*
X349134Y86259D01*
X350937Y88609D01*
X352071Y91346D01*
X352457Y94283D01*
Y104783D01*
X352071Y107720D01*
X350937Y110456D01*
X349134Y112806D01*
X346784Y114610D01*
X344047Y115743D01*
X341110Y116130D01*
D02*
G37*
%LPD*%
D22*
X214156Y498024D02*
Y546109D01*
X217603Y549557D02*
Y550244D01*
X214156Y546109D02*
X217603Y549557D01*
X222114Y542271D02*
Y542959D01*
X218728Y538885D02*
X222114Y542271D01*
X218728Y500051D02*
Y538885D01*
X317078Y383368D02*
Y419139D01*
Y383368D02*
X317409Y383037D01*
X226297Y474251D02*
Y476047D01*
X225811Y473765D02*
X226297Y474251D01*
Y476047D02*
X226433Y476184D01*
Y492346D01*
X218728Y500051D02*
X226433Y492346D01*
X216673Y471703D02*
Y495507D01*
X214156Y498024D02*
X216673Y495507D01*
D97*
X457739Y235799D02*
D03*
X760653Y544533D02*
D03*
D98*
X507739Y235799D02*
D03*
X710653Y544533D02*
D03*
D123*
X138337Y718971D02*
D03*
D124*
Y744371D02*
D03*
X163737Y718971D02*
D03*
X189137D02*
D03*
X214537D02*
D03*
X239937D02*
D03*
X265337D02*
D03*
X290737D02*
D03*
X316137D02*
D03*
X163737Y744371D02*
D03*
X189137D02*
D03*
X214537D02*
D03*
X239937D02*
D03*
X265337D02*
D03*
X290737D02*
D03*
X316137D02*
D03*
D125*
X626699Y283356D02*
D03*
X626986Y112783D02*
D03*
D126*
X626699Y346856D02*
D03*
X626986Y176283D02*
D03*
X399360Y99533D02*
D03*
D127*
X34798Y20828D02*
D03*
X793158Y18958D02*
D03*
X34290Y774700D02*
D03*
X790702Y774446D02*
D03*
D128*
X335860Y99533D02*
D03*
D129*
X471486Y408652D02*
D03*
X458150Y408321D02*
D03*
X117880Y53738D02*
D03*
X279279Y30218D02*
D03*
X129692Y158564D02*
D03*
X138191Y131786D02*
D03*
X118611Y137204D02*
D03*
X128557Y101812D02*
D03*
X101317Y121220D02*
D03*
X445179Y408494D02*
D03*
X431669Y408652D02*
D03*
X516000Y321442D02*
D03*
X159218Y278724D02*
D03*
X142803Y279024D02*
D03*
X42235Y610300D02*
D03*
Y623000D02*
D03*
Y635773D02*
D03*
X438384Y27444D02*
D03*
X513806Y46297D02*
D03*
X425148Y119054D02*
D03*
X433148D02*
D03*
Y111219D02*
D03*
X425148D02*
D03*
X395933Y129533D02*
D03*
X403933D02*
D03*
Y137368D02*
D03*
X395933D02*
D03*
X451628Y170111D02*
D03*
X443628D02*
D03*
Y161865D02*
D03*
X451628D02*
D03*
X443628Y154157D02*
D03*
X451628D02*
D03*
Y146321D02*
D03*
X443628D02*
D03*
X468871Y48822D02*
D03*
X469606Y59191D02*
D03*
X508507Y429075D02*
D03*
X464783Y317539D02*
D03*
Y307403D02*
D03*
X507710Y312260D02*
D03*
X302665Y448073D02*
D03*
X264213Y461214D02*
D03*
X220361Y625731D02*
D03*
X214156Y620863D02*
D03*
X227355Y631188D02*
D03*
X206028Y618626D02*
D03*
X689796Y310096D02*
D03*
X690062Y318542D02*
D03*
Y328559D02*
D03*
X697980Y314402D02*
D03*
Y323872D02*
D03*
X706699Y310699D02*
D03*
Y319694D02*
D03*
Y328559D02*
D03*
X736593Y154279D02*
D03*
X723601Y154527D02*
D03*
X736593Y166313D02*
D03*
X723601D02*
D03*
X666977Y352603D02*
D03*
X664681Y344210D02*
D03*
X655693D02*
D03*
X647061Y344579D02*
D03*
X657606Y352603D02*
D03*
X648909Y353161D02*
D03*
X662026Y360580D02*
D03*
X652675D02*
D03*
X644049D02*
D03*
X650503Y98752D02*
D03*
Y110051D02*
D03*
Y121663D02*
D03*
X604487Y98752D02*
D03*
Y110132D02*
D03*
Y121663D02*
D03*
X646213Y166937D02*
D03*
Y177431D02*
D03*
Y188259D02*
D03*
X604487Y166937D02*
D03*
Y176283D02*
D03*
Y185873D02*
D03*
X667749Y229428D02*
D03*
X30666Y524399D02*
D03*
X735534Y3976D02*
D03*
X751907Y20349D02*
D03*
X741836Y-689D02*
D03*
X728593Y257339D02*
D03*
X736593D02*
D03*
Y249503D02*
D03*
X728593D02*
D03*
X703401Y234521D02*
D03*
X711401D02*
D03*
Y226686D02*
D03*
X703401D02*
D03*
X701150Y258926D02*
D03*
X709150D02*
D03*
Y266762D02*
D03*
X701150D02*
D03*
X709150Y274470D02*
D03*
X701150D02*
D03*
Y282716D02*
D03*
X709150D02*
D03*
X672699Y275222D02*
D03*
Y283222D02*
D03*
X664453D02*
D03*
Y275222D02*
D03*
X656745Y283222D02*
D03*
Y275222D02*
D03*
X648909D02*
D03*
Y283222D02*
D03*
X184071Y188074D02*
D03*
X187264Y178253D02*
D03*
X122400Y202742D02*
D03*
X270910Y290233D02*
D03*
X264779Y245156D02*
D03*
X699337Y22543D02*
D03*
X707337Y30789D02*
D03*
X699337D02*
D03*
X707337Y38497D02*
D03*
X699337D02*
D03*
Y46332D02*
D03*
X683692Y22543D02*
D03*
X691692D02*
D03*
Y30789D02*
D03*
X683692D02*
D03*
X691692Y38497D02*
D03*
X683692D02*
D03*
Y46332D02*
D03*
X691692D02*
D03*
X558453Y170233D02*
D03*
X550453D02*
D03*
Y161987D02*
D03*
X558453D02*
D03*
X550453Y154279D02*
D03*
X558453D02*
D03*
X550453Y146444D02*
D03*
X541227Y170233D02*
D03*
X533228D02*
D03*
Y161987D02*
D03*
X541227D02*
D03*
X533228Y154279D02*
D03*
X541227D02*
D03*
Y146444D02*
D03*
X533228D02*
D03*
X463000Y217828D02*
D03*
X452271D02*
D03*
X463000Y251990D02*
D03*
X452767D02*
D03*
X444752Y246506D02*
D03*
X436752D02*
D03*
Y238260D02*
D03*
X444752D02*
D03*
X436752Y230552D02*
D03*
X444752D02*
D03*
Y222717D02*
D03*
X436752D02*
D03*
X776361Y468655D02*
D03*
X765709Y468538D02*
D03*
X755491Y468655D02*
D03*
X745098D02*
D03*
X735153D02*
D03*
X776366Y441114D02*
D03*
X781459Y460393D02*
D03*
Y451118D02*
D03*
X760450Y460393D02*
D03*
Y451118D02*
D03*
X765762Y441462D02*
D03*
X735088Y451118D02*
D03*
Y460393D02*
D03*
X745088Y441462D02*
D03*
X755491D02*
D03*
X771908Y451118D02*
D03*
Y460393D02*
D03*
X735088Y441462D02*
D03*
X651412Y420533D02*
D03*
Y448158D02*
D03*
X670621Y430261D02*
D03*
X662621D02*
D03*
Y422425D02*
D03*
X670621D02*
D03*
X662621Y414717D02*
D03*
X670621D02*
D03*
Y406471D02*
D03*
X662621D02*
D03*
X670621Y465740D02*
D03*
X662621D02*
D03*
Y457904D02*
D03*
X670621D02*
D03*
X662621Y450196D02*
D03*
X670621D02*
D03*
Y441950D02*
D03*
X662621D02*
D03*
X757227Y521591D02*
D03*
X765227D02*
D03*
Y529837D02*
D03*
X757227D02*
D03*
Y559799D02*
D03*
X765227D02*
D03*
Y568045D02*
D03*
X757227D02*
D03*
X783443Y556471D02*
D03*
X775443D02*
D03*
Y548636D02*
D03*
X783443D02*
D03*
X775443Y540928D02*
D03*
X783443D02*
D03*
Y532682D02*
D03*
X775443D02*
D03*
X706498Y572168D02*
D03*
X714498D02*
D03*
Y563922D02*
D03*
X706498D02*
D03*
X706348Y526540D02*
D03*
X714349D02*
D03*
Y518294D02*
D03*
X706348D02*
D03*
X685359Y532682D02*
D03*
X693359D02*
D03*
Y540928D02*
D03*
X685359D02*
D03*
X693359Y548636D02*
D03*
X685359D02*
D03*
Y556471D02*
D03*
X693359D02*
D03*
X615035Y502751D02*
D03*
X607035D02*
D03*
X615035Y510459D02*
D03*
X607035D02*
D03*
Y518294D02*
D03*
X615035D02*
D03*
X607035Y527041D02*
D03*
X615035D02*
D03*
Y535287D02*
D03*
X607035D02*
D03*
X615035Y542995D02*
D03*
X607035D02*
D03*
X562518Y561745D02*
D03*
Y553745D02*
D03*
X570764D02*
D03*
Y561745D02*
D03*
X578472Y553745D02*
D03*
Y561745D02*
D03*
X586308D02*
D03*
Y553745D02*
D03*
X619734Y449507D02*
D03*
X585620Y449072D02*
D03*
X619734Y420533D02*
D03*
X585620Y420792D02*
D03*
X605701Y463411D02*
D03*
X597701D02*
D03*
Y455165D02*
D03*
X605701D02*
D03*
X597701Y447458D02*
D03*
X605701D02*
D03*
Y439622D02*
D03*
X597701D02*
D03*
X605701Y430956D02*
D03*
X597701D02*
D03*
Y422710D02*
D03*
X605701D02*
D03*
X597701Y415002D02*
D03*
X605701D02*
D03*
Y407166D02*
D03*
X597701D02*
D03*
X765302Y76329D02*
D03*
X295363Y442921D02*
D03*
X238772Y355203D02*
D03*
X378992Y490067D02*
D03*
X216153Y265949D02*
D03*
X198663Y259948D02*
D03*
X188486Y250692D02*
D03*
X519984Y19872D02*
D03*
X453106Y59092D02*
D03*
X305670Y787542D02*
D03*
X269696D02*
D03*
X289863Y644647D02*
D03*
X275734Y615864D02*
D03*
X283854Y635879D02*
D03*
X19050Y647042D02*
D03*
X32633Y464869D02*
D03*
X183934Y308258D02*
D03*
X164131Y350453D02*
D03*
X169517Y365983D02*
D03*
X145042Y309460D02*
D03*
X159542D02*
D03*
X553265Y63730D02*
D03*
X355314Y306879D02*
D03*
X334911D02*
D03*
Y316154D02*
D03*
X344911Y297223D02*
D03*
Y316154D02*
D03*
X355314Y297223D02*
D03*
Y316154D02*
D03*
X344911Y306879D02*
D03*
X334911Y297223D02*
D03*
X348126Y238523D02*
D03*
X358126Y248179D02*
D03*
X368530Y257454D02*
D03*
X378800D02*
D03*
Y248179D02*
D03*
X368530Y238523D02*
D03*
X358126Y257454D02*
D03*
Y238523D02*
D03*
X348126Y257454D02*
D03*
Y248179D02*
D03*
X368530D02*
D03*
X378800Y238523D02*
D03*
X394491Y505490D02*
D03*
Y491000D02*
D03*
X394364Y466483D02*
D03*
X390905Y452711D02*
D03*
X365119Y416393D02*
D03*
X364250Y426610D02*
D03*
X360887Y469182D02*
D03*
X362645Y476171D02*
D03*
X87071Y484348D02*
D03*
X357635Y742802D02*
D03*
X290248Y773808D02*
D03*
X365119Y376127D02*
D03*
X328495D02*
D03*
X288739Y409152D02*
D03*
X283495Y415985D02*
D03*
X281659Y368987D02*
D03*
X93134Y542959D02*
D03*
Y363810D02*
D03*
X121861Y687421D02*
D03*
X114802Y682540D02*
D03*
X93738Y590147D02*
D03*
X89944Y581927D02*
D03*
X226680D02*
D03*
X43942Y551434D02*
D03*
X217603Y550244D02*
D03*
X222114Y542959D02*
D03*
X306973Y589829D02*
D03*
X256279Y481240D02*
D03*
X55206Y429964D02*
D03*
X54993Y284184D02*
D03*
X39206Y416713D02*
D03*
X76553Y350686D02*
D03*
Y359650D02*
D03*
X81464Y377692D02*
D03*
X273369Y461491D02*
D03*
X281659Y463616D02*
D03*
X302665Y474999D02*
D03*
X295789Y470891D02*
D03*
X289779Y381099D02*
D03*
X283854Y387405D02*
D03*
X331666Y412943D02*
D03*
X309666Y401013D02*
D03*
X317409Y383037D02*
D03*
X317078Y419139D02*
D03*
X320681Y654785D02*
D03*
X288739Y466459D02*
D03*
X78211Y367863D02*
D03*
X84760Y385503D02*
D03*
X212323Y377005D02*
D03*
X129601Y400883D02*
D03*
X127135Y514622D02*
D03*
X164480Y430280D02*
D03*
X187368Y385503D02*
D03*
X258804Y201074D02*
D03*
X192094Y211960D02*
D03*
X183934Y277540D02*
D03*
X134921Y350953D02*
D03*
X350178Y643892D02*
D03*
X320681Y573969D02*
D03*
X218728Y455372D02*
D03*
X351570Y432372D02*
D03*
X189749Y401499D02*
D03*
X188028Y435821D02*
D03*
X224028D02*
D03*
Y422121D02*
D03*
X188028D02*
D03*
X212878Y446970D02*
D03*
Y435821D02*
D03*
X199178Y446970D02*
D03*
Y435821D02*
D03*
Y422121D02*
D03*
X212878D02*
D03*
Y410970D02*
D03*
X199178D02*
D03*
X117673Y354639D02*
D03*
X225811Y473765D02*
D03*
X216673Y471703D02*
D03*
X530029Y99516D02*
D03*
X553265Y85015D02*
D03*
X557030Y102663D02*
D03*
X790358Y237070D02*
D03*
X791053Y329421D02*
D03*
X758985Y110132D02*
D03*
X722064Y128095D02*
D03*
X422949Y334591D02*
D03*
X413403D02*
D03*
X402876D02*
D03*
X403173Y345703D02*
D03*
X413700D02*
D03*
X423246D02*
D03*
X403381Y357581D02*
D03*
X413909D02*
D03*
X423454D02*
D03*
X559373Y306567D02*
D03*
X567373D02*
D03*
Y314402D02*
D03*
X559373D02*
D03*
X567373Y322110D02*
D03*
X559373D02*
D03*
Y330356D02*
D03*
X567373D02*
D03*
X559373Y340913D02*
D03*
X567373D02*
D03*
Y348749D02*
D03*
X559373D02*
D03*
X567373Y356457D02*
D03*
X559373D02*
D03*
Y364703D02*
D03*
X567373D02*
D03*
X550453Y400233D02*
D03*
X558453D02*
D03*
Y408069D02*
D03*
X550453D02*
D03*
X558453Y415777D02*
D03*
X550453D02*
D03*
Y424023D02*
D03*
X558453D02*
D03*
X550453Y433887D02*
D03*
X558453D02*
D03*
Y441723D02*
D03*
X550453D02*
D03*
X558453Y449431D02*
D03*
X550453D02*
D03*
Y457677D02*
D03*
X558453D02*
D03*
X456497Y340913D02*
D03*
X464497D02*
D03*
Y348749D02*
D03*
X456497D02*
D03*
X464497Y356457D02*
D03*
X456497D02*
D03*
Y364703D02*
D03*
X464497D02*
D03*
X525227Y223300D02*
D03*
X533228D02*
D03*
Y231136D02*
D03*
X525227D02*
D03*
X533228Y238843D02*
D03*
X525227D02*
D03*
Y247090D02*
D03*
X533228D02*
D03*
X515706Y312255D02*
D03*
X507706Y321442D02*
D03*
X515706Y329277D02*
D03*
X507706D02*
D03*
X515706Y336985D02*
D03*
X507706D02*
D03*
Y345231D02*
D03*
X515706D02*
D03*
X507706Y355499D02*
D03*
X515706D02*
D03*
Y363335D02*
D03*
X507706D02*
D03*
X515706Y371043D02*
D03*
X507706D02*
D03*
X511352Y390251D02*
D03*
Y398601D02*
D03*
X501807Y390251D02*
D03*
Y398601D02*
D03*
X491279Y390251D02*
D03*
Y398601D02*
D03*
X511352Y408043D02*
D03*
Y416393D02*
D03*
X501807Y408043D02*
D03*
Y416393D02*
D03*
X491279Y408043D02*
D03*
Y416393D02*
D03*
X505838Y464132D02*
D03*
Y455783D02*
D03*
X497147Y464520D02*
D03*
Y456170D02*
D03*
X489021Y464520D02*
D03*
Y456170D02*
D03*
X442878Y511461D02*
D03*
X434878D02*
D03*
X450878D02*
D03*
X467000Y495507D02*
D03*
X475000D02*
D03*
X483000D02*
D03*
X491000D02*
D03*
X451000Y503215D02*
D03*
Y495507D02*
D03*
X459000D02*
D03*
X435000Y503215D02*
D03*
X443000D02*
D03*
X435000Y495507D02*
D03*
X443000D02*
D03*
X483000Y487671D02*
D03*
X475000D02*
D03*
X467000D02*
D03*
X459000D02*
D03*
X451000D02*
D03*
X443000D02*
D03*
X435000D02*
D03*
X464653Y413895D02*
D03*
X451751Y414000D02*
D03*
X438503Y413895D02*
D03*
X441106Y59003D02*
D03*
X766992Y321000D02*
D03*
X498783Y83645D02*
D03*
X485442D02*
D03*
X653799Y223851D02*
D03*
Y234851D02*
D03*
X626712Y223851D02*
D03*
Y234851D02*
D03*
X756493Y383892D02*
D03*
X746223Y393547D02*
D03*
X725819D02*
D03*
Y402823D02*
D03*
X735819Y383892D02*
D03*
Y402823D02*
D03*
X746223Y383892D02*
D03*
X756493Y393547D02*
D03*
Y402823D02*
D03*
X746223D02*
D03*
X735819Y393547D02*
D03*
X725819Y383892D02*
D03*
X366243Y181372D02*
D03*
X355972Y191028D02*
D03*
X335569D02*
D03*
Y200303D02*
D03*
X345569Y181372D02*
D03*
Y200303D02*
D03*
X355972Y181372D02*
D03*
X366243Y191028D02*
D03*
Y200303D02*
D03*
X355972D02*
D03*
X345569Y191028D02*
D03*
X335569Y181372D02*
D03*
X515001Y455324D02*
D03*
Y463960D02*
D03*
X480706Y456171D02*
D03*
Y464521D02*
D03*
X645089Y23169D02*
D03*
X635433Y33169D02*
D03*
X626157Y43572D02*
D03*
Y53843D02*
D03*
X635433D02*
D03*
X645089Y43572D02*
D03*
X626157Y33169D02*
D03*
X645089D02*
D03*
X626157Y23169D02*
D03*
X635433D02*
D03*
Y43572D02*
D03*
X645089Y53843D02*
D03*
X419947Y461240D02*
D03*
X413947Y450740D02*
D03*
X419947Y454240D02*
D03*
X413947Y457740D02*
D03*
Y464740D02*
D03*
X437947Y450740D02*
D03*
X431947Y461240D02*
D03*
X437947Y457707D02*
D03*
X425947Y464740D02*
D03*
X437947D02*
D03*
X425947Y457740D02*
D03*
Y450740D02*
D03*
X431947Y454240D02*
D03*
X449947Y464740D02*
D03*
X463347Y457707D02*
D03*
X449947Y457740D02*
D03*
X463347Y450740D02*
D03*
Y464740D02*
D03*
X455947Y461240D02*
D03*
Y454240D02*
D03*
X449947Y450740D02*
D03*
X443947Y461240D02*
D03*
Y454240D02*
D03*
X779551Y276308D02*
D03*
X766992Y272724D02*
D03*
X515860Y58903D02*
D03*
X767855Y180536D02*
D03*
X780856Y182830D02*
D03*
X767496Y229820D02*
D03*
X394699Y443666D02*
D03*
X175554Y211203D02*
D03*
X175117Y204574D02*
D03*
X175622Y217574D02*
D03*
X167172Y214924D02*
D03*
Y206724D02*
D03*
X159372Y188524D02*
D03*
Y198524D02*
D03*
Y208524D02*
D03*
Y218524D02*
D03*
X132586Y219462D02*
D03*
X148648Y171143D02*
D03*
X223619Y175401D02*
D03*
X199318Y173274D02*
D03*
X236744Y499581D02*
D03*
X194852Y345443D02*
D03*
X171958Y490761D02*
D03*
X109330Y506965D02*
D03*
X195953Y511054D02*
D03*
X180321Y513264D02*
D03*
X159189Y517933D02*
D03*
X248738Y177757D02*
D03*
X99859Y291459D02*
D03*
X223564Y202360D02*
D03*
X152684Y230558D02*
D03*
X171462Y227983D02*
D03*
D130*
X157646Y604522D02*
D03*
X113760Y252348D02*
D03*
X255809Y518694D02*
D03*
X109979Y473752D02*
D03*
X118378Y452124D02*
D03*
X113760Y527148D02*
D03*
X201037Y547622D02*
D03*
X270787Y353703D02*
D03*
X35963Y573387D02*
D03*
D131*
X714340Y645920D02*
D03*
X183640D02*
D03*
Y115920D02*
D03*
M02*
