G04*
G04 #@! TF.GenerationSoftware,Altium Limited,Altium Designer,23.1.1 (15)*
G04*
G04 Layer_Physical_Order=3*
G04 Layer_Color=16440176*
%FSLAX44Y44*%
%MOMM*%
G71*
G04*
G04 #@! TF.SameCoordinates,9C76BA79-DA27-457B-B569-9ED225C8ECFE*
G04*
G04*
G04 #@! TF.FilePolarity,Positive*
G04*
G01*
G75*
%ADD22C,0.2540*%
G04:AMPARAMS|DCode=97|XSize=1.25mm|YSize=1.25mm|CornerRadius=0.05mm|HoleSize=0mm|Usage=FLASHONLY|Rotation=0.000|XOffset=0mm|YOffset=0mm|HoleType=Round|Shape=RoundedRectangle|*
%AMROUNDEDRECTD97*
21,1,1.2500,1.1500,0,0,0.0*
21,1,1.1500,1.2500,0,0,0.0*
1,1,0.1000,0.5750,-0.5750*
1,1,0.1000,-0.5750,-0.5750*
1,1,0.1000,-0.5750,0.5750*
1,1,0.1000,0.5750,0.5750*
%
%ADD97ROUNDEDRECTD97*%
%ADD98C,1.2500*%
%ADD117C,0.6000*%
%ADD123R,1.6000X1.6000*%
%ADD124C,1.6000*%
G04:AMPARAMS|DCode=125|XSize=2.1mm|YSize=2.1mm|CornerRadius=0.525mm|HoleSize=0mm|Usage=FLASHONLY|Rotation=90.000|XOffset=0mm|YOffset=0mm|HoleType=Round|Shape=RoundedRectangle|*
%AMROUNDEDRECTD125*
21,1,2.1000,1.0500,0,0,90.0*
21,1,1.0500,2.1000,0,0,90.0*
1,1,1.0500,0.5250,0.5250*
1,1,1.0500,0.5250,-0.5250*
1,1,1.0500,-0.5250,-0.5250*
1,1,1.0500,-0.5250,0.5250*
%
%ADD125ROUNDEDRECTD125*%
%ADD126C,2.1000*%
%ADD127C,5.0000*%
G04:AMPARAMS|DCode=128|XSize=2.1mm|YSize=2.1mm|CornerRadius=0.525mm|HoleSize=0mm|Usage=FLASHONLY|Rotation=0.000|XOffset=0mm|YOffset=0mm|HoleType=Round|Shape=RoundedRectangle|*
%AMROUNDEDRECTD128*
21,1,2.1000,1.0500,0,0,0.0*
21,1,1.0500,2.1000,0,0,0.0*
1,1,1.0500,0.5250,-0.5250*
1,1,1.0500,-0.5250,-0.5250*
1,1,1.0500,-0.5250,0.5250*
1,1,1.0500,0.5250,0.5250*
%
%ADD128ROUNDEDRECTD128*%
%ADD129C,0.5080*%
%ADD130C,1.2700*%
%ADD131C,3.5080*%
G36*
X214457Y736372D02*
X213286Y736364D01*
X211191Y736228D01*
X210267Y736100D01*
X209426Y735932D01*
X208667Y735725D01*
X207990Y735477D01*
X207396Y735189D01*
X206885Y734862D01*
X206456Y734494D01*
X204660Y736290D01*
X205028Y736719D01*
X205355Y737230D01*
X205643Y737824D01*
X205891Y738501D01*
X206099Y739259D01*
X206266Y740101D01*
X206394Y741025D01*
X206530Y743120D01*
X206538Y744291D01*
X214457Y736372D01*
D02*
G37*
G36*
X219858Y712998D02*
X219016Y712219D01*
X217598Y710729D01*
X217022Y710018D01*
X216534Y709329D01*
X216135Y708663D01*
X215825Y708018D01*
X215603Y707397D01*
X215470Y706797D01*
X215426Y706221D01*
X212886Y706344D01*
X212844Y706891D01*
X212717Y707477D01*
X212506Y708101D01*
X212211Y708762D01*
X211832Y709462D01*
X211369Y710200D01*
X210821Y710976D01*
X209472Y712642D01*
X208671Y713532D01*
X219858Y712998D01*
D02*
G37*
G36*
X285536Y633956D02*
X285449Y633829D01*
X285373Y633684D01*
X285307Y633520D01*
X285251Y633338D01*
X285205Y633138D01*
X285170Y632920D01*
X285144Y632683D01*
X285124Y632155D01*
X282584D01*
X282579Y632428D01*
X282538Y632920D01*
X282503Y633138D01*
X282457Y633338D01*
X282401Y633520D01*
X282335Y633684D01*
X282259Y633829D01*
X282173Y633956D01*
X282076Y634065D01*
X285632D01*
X285536Y633956D01*
D02*
G37*
G36*
X215431Y624314D02*
X215471Y623822D01*
X215507Y623604D01*
X215553Y623403D01*
X215609Y623222D01*
X215675Y623058D01*
X215751Y622913D01*
X215837Y622786D01*
X215934Y622677D01*
X212378D01*
X212474Y622786D01*
X212561Y622913D01*
X212637Y623058D01*
X212703Y623222D01*
X212759Y623403D01*
X212804Y623604D01*
X212840Y623822D01*
X212865Y624058D01*
X212886Y624587D01*
X215426D01*
X215431Y624314D01*
D02*
G37*
G36*
X207303Y622076D02*
X207343Y621585D01*
X207379Y621366D01*
X207425Y621166D01*
X207481Y620984D01*
X207547Y620821D01*
X207623Y620676D01*
X207709Y620549D01*
X207806Y620440D01*
X204250D01*
X204346Y620549D01*
X204433Y620676D01*
X204509Y620821D01*
X204575Y620984D01*
X204631Y621166D01*
X204676Y621366D01*
X204712Y621585D01*
X204737Y621822D01*
X204758Y622350D01*
X207298D01*
X207303Y622076D01*
D02*
G37*
G36*
X165638Y610718D02*
X165318Y610353D01*
X165032Y609933D01*
X164782Y609458D01*
X164566Y608927D01*
X164384Y608341D01*
X164237Y607701D01*
X164125Y607005D01*
X164047Y606254D01*
X163996Y604586D01*
X157710Y610872D01*
X158571Y610880D01*
X160129Y611001D01*
X160825Y611113D01*
X161465Y611260D01*
X162051Y611441D01*
X162582Y611658D01*
X163057Y611908D01*
X163477Y612194D01*
X163842Y612514D01*
X165638Y610718D01*
D02*
G37*
G36*
X95661Y591828D02*
X95788Y591742D01*
X95933Y591666D01*
X96097Y591600D01*
X96279Y591544D01*
X96479Y591498D01*
X96697Y591463D01*
X96934Y591437D01*
X97462Y591417D01*
Y588877D01*
X97189Y588872D01*
X96697Y588831D01*
X96479Y588796D01*
X96279Y588750D01*
X96097Y588694D01*
X95933Y588628D01*
X95788Y588552D01*
X95661Y588465D01*
X95552Y588369D01*
Y591925D01*
X95661Y591828D01*
D02*
G37*
G36*
X224866Y580149D02*
X224757Y580245D01*
X224630Y580331D01*
X224485Y580408D01*
X224322Y580474D01*
X224140Y580530D01*
X223940Y580575D01*
X223721Y580611D01*
X223484Y580636D01*
X222956Y580657D01*
Y583197D01*
X223230Y583202D01*
X223721Y583242D01*
X223940Y583278D01*
X224140Y583324D01*
X224322Y583380D01*
X224485Y583446D01*
X224630Y583522D01*
X224757Y583608D01*
X224866Y583705D01*
Y580149D01*
D02*
G37*
G36*
X91867Y583608D02*
X91994Y583522D01*
X92139Y583446D01*
X92303Y583380D01*
X92485Y583324D01*
X92685Y583278D01*
X92903Y583242D01*
X93140Y583217D01*
X93668Y583197D01*
Y580657D01*
X93395Y580652D01*
X92903Y580611D01*
X92685Y580575D01*
X92485Y580530D01*
X92303Y580474D01*
X92139Y580408D01*
X91994Y580331D01*
X91867Y580245D01*
X91758Y580149D01*
Y583705D01*
X91867Y583608D01*
D02*
G37*
G36*
X45865Y553116D02*
X45992Y553029D01*
X46137Y552953D01*
X46301Y552887D01*
X46482Y552831D01*
X46683Y552785D01*
X46901Y552750D01*
X47137Y552724D01*
X47666Y552704D01*
Y550164D01*
X47393Y550159D01*
X46901Y550118D01*
X46683Y550083D01*
X46482Y550037D01*
X46301Y549981D01*
X46137Y549915D01*
X45992Y549839D01*
X45865Y549753D01*
X45756Y549656D01*
Y553212D01*
X45865Y553116D01*
D02*
G37*
G36*
X32588Y526081D02*
X32715Y525994D01*
X32861Y525918D01*
X33024Y525852D01*
X33206Y525796D01*
X33406Y525750D01*
X33624Y525715D01*
X33861Y525689D01*
X34389Y525669D01*
Y523129D01*
X34116Y523124D01*
X33624Y523083D01*
X33406Y523048D01*
X33206Y523002D01*
X33024Y522946D01*
X32861Y522880D01*
X32715Y522804D01*
X32588Y522718D01*
X32480Y522621D01*
Y526177D01*
X32588Y526081D01*
D02*
G37*
G36*
X160464Y521383D02*
X160505Y520891D01*
X160540Y520673D01*
X160586Y520473D01*
X160642Y520291D01*
X160708Y520127D01*
X160784Y519982D01*
X160870Y519855D01*
X160967Y519747D01*
X157411D01*
X157507Y519855D01*
X157594Y519982D01*
X157670Y520127D01*
X157736Y520291D01*
X157792Y520473D01*
X157838Y520673D01*
X157873Y520891D01*
X157899Y521128D01*
X157919Y521656D01*
X160459D01*
X160464Y521383D01*
D02*
G37*
G36*
X259810Y482975D02*
X259620Y482778D01*
X259301Y482402D01*
X259172Y482222D01*
X259063Y482048D01*
X258974Y481880D01*
X258905Y481718D01*
X258856Y481561D01*
X258827Y481410D01*
X258819Y481265D01*
X256304Y483780D01*
X256450Y483788D01*
X256600Y483817D01*
X256757Y483866D01*
X256919Y483935D01*
X257087Y484024D01*
X257261Y484133D01*
X257441Y484262D01*
X257626Y484412D01*
X258014Y484771D01*
X259810Y482975D01*
D02*
G37*
G36*
X283470Y413445D02*
X283325Y413437D01*
X283174Y413408D01*
X283017Y413359D01*
X282855Y413290D01*
X282687Y413201D01*
X282513Y413092D01*
X282334Y412963D01*
X282148Y412813D01*
X281760Y412454D01*
X279964Y414250D01*
X280154Y414447D01*
X280473Y414823D01*
X280602Y415003D01*
X280711Y415177D01*
X280800Y415345D01*
X280869Y415507D01*
X280918Y415664D01*
X280947Y415815D01*
X280956Y415960D01*
X283470Y413445D01*
D02*
G37*
G36*
X331155Y410455D02*
X331008Y410473D01*
X330856Y410468D01*
X330698Y410441D01*
X330534Y410390D01*
X330364Y410316D01*
X330190Y410219D01*
X330009Y410100D01*
X329823Y409957D01*
X329632Y409791D01*
X329434Y409603D01*
X328049Y411810D01*
X328242Y412008D01*
X328713Y412550D01*
X328834Y412714D01*
X329022Y413016D01*
X329089Y413154D01*
X329137Y413283D01*
X329168Y413404D01*
X331155Y410455D01*
D02*
G37*
G36*
X290662Y410833D02*
X290789Y410747D01*
X290934Y410671D01*
X291098Y410604D01*
X291280Y410549D01*
X291480Y410503D01*
X291698Y410467D01*
X291935Y410442D01*
X292463Y410422D01*
Y407882D01*
X292190Y407877D01*
X291698Y407836D01*
X291480Y407800D01*
X291280Y407755D01*
X291098Y407699D01*
X290934Y407633D01*
X290789Y407556D01*
X290662Y407470D01*
X290553Y407374D01*
Y410930D01*
X290662Y410833D01*
D02*
G37*
G36*
X280120Y372328D02*
X280497Y372010D01*
X280676Y371880D01*
X280850Y371771D01*
X281018Y371682D01*
X281181Y371613D01*
X281337Y371564D01*
X281488Y371535D01*
X281633Y371527D01*
X279119Y369012D01*
X279110Y369157D01*
X279081Y369308D01*
X279032Y369465D01*
X278964Y369627D01*
X278874Y369795D01*
X278765Y369969D01*
X278636Y370149D01*
X278487Y370334D01*
X278127Y370722D01*
X279924Y372518D01*
X280120Y372328D01*
D02*
G37*
G36*
X166680Y350283D02*
X166708Y350132D01*
X166757Y349975D01*
X166826Y349813D01*
X166915Y349645D01*
X167024Y349471D01*
X167154Y349291D01*
X167303Y349106D01*
X167662Y348718D01*
X165866Y346922D01*
X165669Y347112D01*
X165293Y347430D01*
X165113Y347560D01*
X164939Y347669D01*
X164771Y347758D01*
X164609Y347827D01*
X164452Y347876D01*
X164302Y347905D01*
X164156Y347913D01*
X166671Y350428D01*
X166680Y350283D01*
D02*
G37*
G36*
X192732Y347001D02*
X192802Y347038D01*
X192929Y347124D01*
X193038Y347221D01*
Y343665D01*
X192929Y343761D01*
X192802Y343848D01*
X192732Y343885D01*
Y343320D01*
X192512Y343482D01*
X192195Y343627D01*
X191780Y343755D01*
X191267Y343866D01*
X190656Y343960D01*
X189140Y344096D01*
X187234Y344164D01*
X186134Y344173D01*
Y346713D01*
X187234Y346721D01*
X191267Y347020D01*
X191780Y347131D01*
X192195Y347258D01*
X192512Y347403D01*
X192732Y347565D01*
Y347001D01*
D02*
G37*
G36*
X816655Y231826D02*
X810655Y224584D01*
X810612Y225766D01*
X810485Y226913D01*
X810273Y228025D01*
X809976Y229102D01*
X809594Y230144D01*
X809127Y231151D01*
X808576Y232122D01*
X807939Y233059D01*
X807218Y233960D01*
X806412Y234826D01*
X810532Y239191D01*
X810655Y245069D01*
X816655Y231826D01*
D02*
G37*
G36*
X192068Y209420D02*
X191923Y209411D01*
X191772Y209382D01*
X191616Y209334D01*
X191453Y209265D01*
X191285Y209176D01*
X191112Y209067D01*
X190932Y208937D01*
X190747Y208788D01*
X190359Y208429D01*
X188563Y210225D01*
X188752Y210422D01*
X189071Y210798D01*
X189200Y210977D01*
X189310Y211151D01*
X189399Y211319D01*
X189468Y211482D01*
X189517Y211638D01*
X189545Y211789D01*
X189554Y211934D01*
X192068Y209420D01*
D02*
G37*
G36*
X187602Y189809D02*
X187413Y189612D01*
X187094Y189235D01*
X186965Y189056D01*
X186856Y188882D01*
X186766Y188714D01*
X186697Y188552D01*
X186649Y188395D01*
X186620Y188244D01*
X186611Y188099D01*
X184097Y190613D01*
X184242Y190622D01*
X184393Y190651D01*
X184549Y190700D01*
X184712Y190769D01*
X184880Y190858D01*
X185054Y190967D01*
X185233Y191096D01*
X185418Y191246D01*
X185806Y191605D01*
X187602Y189809D01*
D02*
G37*
G36*
X771018Y798463D02*
X770507Y798092D01*
X767057Y794641D01*
X764188Y790694D01*
X761973Y786346D01*
X760465Y781705D01*
X759702Y776886D01*
Y772006D01*
X760465Y767187D01*
X761973Y762546D01*
X764188Y758198D01*
X767057Y754251D01*
X770507Y750800D01*
X774454Y747932D01*
X778802Y745717D01*
X783443Y744209D01*
X788262Y743446D01*
X793142D01*
X797961Y744209D01*
X802602Y745717D01*
X806949Y747932D01*
X810897Y750800D01*
X814348Y754251D01*
X817216Y758198D01*
X819150Y761995D01*
X820420Y761690D01*
Y353714D01*
X809230Y342525D01*
X756735D01*
X751358Y337148D01*
Y178189D01*
X761599Y167948D01*
X776282D01*
X788203Y156027D01*
Y95470D01*
X773668Y80934D01*
X772409Y81100D01*
X772136Y81573D01*
X770546Y83163D01*
X768598Y84288D01*
X766426Y84869D01*
X764178D01*
X762006Y84288D01*
X760058Y83163D01*
X758468Y81573D01*
X757344Y79626D01*
X756762Y77454D01*
Y75205D01*
X757344Y73033D01*
X758468Y71086D01*
X760058Y69496D01*
X760531Y69223D01*
X760697Y67964D01*
X706891Y14158D01*
X649101D01*
X648761Y15428D01*
X650332Y16335D01*
X651922Y17925D01*
X653047Y19872D01*
X653629Y22044D01*
Y24293D01*
X653047Y26465D01*
X652063Y28169D01*
X653047Y29872D01*
X653629Y32044D01*
Y34293D01*
X653047Y36465D01*
X651947Y38370D01*
X653047Y40276D01*
X653629Y42448D01*
Y44696D01*
X653047Y46868D01*
X651985Y48707D01*
X653047Y50546D01*
X653629Y52718D01*
Y54967D01*
X653047Y57139D01*
X651922Y59086D01*
X650332Y60676D01*
X648385Y61801D01*
X646213Y62383D01*
X643964D01*
X641792Y61801D01*
X640261Y60916D01*
X638729Y61801D01*
X636557Y62383D01*
X634309D01*
X632136Y61801D01*
X630795Y61026D01*
X629454Y61801D01*
X627282Y62383D01*
X625033D01*
X622861Y61801D01*
X620914Y60676D01*
X619324Y59086D01*
X618199Y57139D01*
X617617Y54967D01*
Y52718D01*
X618199Y50546D01*
X619261Y48707D01*
X618199Y46868D01*
X617617Y44696D01*
Y42448D01*
X618199Y40276D01*
X619299Y38370D01*
X618199Y36465D01*
X617617Y34293D01*
Y32044D01*
X618199Y29872D01*
X619183Y28169D01*
X618199Y26465D01*
X617617Y24293D01*
Y22044D01*
X618199Y19872D01*
X619324Y17925D01*
X620914Y16335D01*
X622485Y15428D01*
X622145Y14158D01*
X590920D01*
X579096Y25982D01*
Y119054D01*
X570092Y128059D01*
X526783D01*
X519984Y121260D01*
Y96716D01*
X510000Y86732D01*
X506797D01*
X506741Y86941D01*
X505617Y88888D01*
X504027Y90478D01*
X502080Y91603D01*
X499907Y92185D01*
X497659D01*
X495487Y91603D01*
X493540Y90478D01*
X492113Y89052D01*
X490686Y90478D01*
X488738Y91603D01*
X486566Y92185D01*
X484318D01*
X482146Y91603D01*
X480198Y90478D01*
X478608Y88888D01*
X477484Y86941D01*
X477428Y86732D01*
X428045D01*
X419905Y78592D01*
X411393Y70080D01*
X302030Y70080D01*
X295892Y76218D01*
Y183046D01*
X221136Y257802D01*
X221265Y258776D01*
X221508Y259226D01*
X222986Y260705D01*
X224111Y262653D01*
X224693Y264825D01*
Y267073D01*
X224111Y269245D01*
X222986Y271193D01*
X221396Y272783D01*
X219449Y273907D01*
X218990Y274030D01*
Y323229D01*
X234370Y338609D01*
X323253D01*
X347545Y362902D01*
Y396762D01*
X354283Y403500D01*
X400246D01*
X417811Y421065D01*
Y439581D01*
X409983Y447410D01*
Y520294D01*
X388630Y541647D01*
X388381D01*
Y789248D01*
X398804Y799671D01*
X770625D01*
X771018Y798463D01*
D02*
G37*
G36*
X556265Y53843D02*
X550265Y40600D01*
X550222Y41698D01*
X550095Y42590D01*
X549883Y43278D01*
X549586Y43761D01*
X549204Y44039D01*
X548737Y44113D01*
X548186Y43981D01*
X547550Y43645D01*
X546828Y43103D01*
X546022Y42357D01*
Y50843D01*
X546828Y51709D01*
X547550Y52610D01*
X548186Y53546D01*
X548737Y54518D01*
X549204Y55525D01*
X549586Y56567D01*
X549883Y57643D01*
X550095Y58756D01*
X550222Y59903D01*
X550265Y61085D01*
X556265Y53843D01*
D02*
G37*
%LPC*%
G36*
X716658Y669460D02*
X712021D01*
X707474Y668555D01*
X703190Y666781D01*
X699334Y664205D01*
X696055Y660926D01*
X693479Y657070D01*
X691705Y652786D01*
X690800Y648239D01*
Y643602D01*
X691705Y639054D01*
X693479Y634770D01*
X696055Y630914D01*
X699334Y627635D01*
X703190Y625059D01*
X707474Y623285D01*
X712021Y622380D01*
X716658D01*
X721206Y623285D01*
X725490Y625059D01*
X729346Y627635D01*
X732625Y630914D01*
X735201Y634770D01*
X736975Y639054D01*
X737880Y643602D01*
Y648239D01*
X736975Y652786D01*
X735201Y657070D01*
X732625Y660926D01*
X729346Y664205D01*
X725490Y666781D01*
X721206Y668555D01*
X716658Y669460D01*
D02*
G37*
G36*
X715622Y580708D02*
X713373D01*
X711201Y580126D01*
X710498Y579720D01*
X709794Y580126D01*
X707622Y580708D01*
X705373D01*
X703201Y580126D01*
X701254Y579002D01*
X699664Y577411D01*
X698540Y575464D01*
X697958Y573292D01*
Y571044D01*
X698540Y568872D01*
X699017Y568045D01*
X698540Y567218D01*
X697980Y565131D01*
X697868Y564923D01*
X696747Y564377D01*
X696655Y564430D01*
X694483Y565011D01*
X692234D01*
X690062Y564430D01*
X689359Y564023D01*
X688655Y564430D01*
X686483Y565011D01*
X684234D01*
X682062Y564430D01*
X680115Y563305D01*
X678525Y561715D01*
X677401Y559768D01*
X676819Y557596D01*
Y555347D01*
X677401Y553175D01*
X677759Y552554D01*
X677401Y551932D01*
X676819Y549760D01*
Y547512D01*
X677401Y545340D01*
X677723Y544782D01*
X677401Y544224D01*
X676819Y542052D01*
Y539804D01*
X677401Y537632D01*
X677878Y536805D01*
X677401Y535978D01*
X676819Y533806D01*
Y531558D01*
X677401Y529386D01*
X678525Y527438D01*
X680115Y525848D01*
X682062Y524724D01*
X684234Y524142D01*
X686483D01*
X688655Y524724D01*
X689359Y525130D01*
X690062Y524724D01*
X692234Y524142D01*
X694483D01*
X696655Y524724D01*
X696911Y524872D01*
X698085Y524386D01*
X698391Y523244D01*
X698868Y522417D01*
X698391Y521591D01*
X697809Y519419D01*
Y517170D01*
X698391Y514998D01*
X699515Y513051D01*
X701105Y511461D01*
X703052Y510336D01*
X705224Y509754D01*
X707473D01*
X709645Y510336D01*
X710349Y510743D01*
X711052Y510336D01*
X713224Y509754D01*
X715473D01*
X717645Y510336D01*
X719592Y511461D01*
X721182Y513051D01*
X722307Y514998D01*
X722888Y517170D01*
Y519419D01*
X722307Y521591D01*
X721829Y522417D01*
X722307Y523244D01*
X722888Y525416D01*
Y527665D01*
X722307Y529837D01*
X721182Y531784D01*
X719592Y533374D01*
X718913Y533767D01*
X718763Y535319D01*
X720455Y537011D01*
X722068Y539805D01*
X722903Y542920D01*
Y546146D01*
X722068Y549262D01*
X720455Y552055D01*
X718174Y554336D01*
X717565Y554688D01*
X717649Y555326D01*
X717844Y555993D01*
X719741Y557088D01*
X721331Y558678D01*
X722456Y560625D01*
X723038Y562798D01*
Y565046D01*
X722456Y567218D01*
X721978Y568045D01*
X722456Y568872D01*
X723038Y571044D01*
Y573292D01*
X722456Y575464D01*
X721331Y577411D01*
X719741Y579002D01*
X717794Y580126D01*
X715622Y580708D01*
D02*
G37*
G36*
X587432Y570285D02*
X585184D01*
X583012Y569703D01*
X582390Y569344D01*
X581769Y569703D01*
X579597Y570285D01*
X577348D01*
X575176Y569703D01*
X574618Y569381D01*
X574061Y569703D01*
X571889Y570285D01*
X569640D01*
X567468Y569703D01*
X566641Y569225D01*
X565815Y569703D01*
X563643Y570285D01*
X561394D01*
X559222Y569703D01*
X557275Y568578D01*
X555685Y566988D01*
X554560Y565041D01*
X553978Y562869D01*
Y560620D01*
X554560Y558448D01*
X554967Y557745D01*
X554560Y557041D01*
X553978Y554869D01*
Y552620D01*
X554560Y550448D01*
X555685Y548501D01*
X557275Y546911D01*
X559222Y545787D01*
X561394Y545205D01*
X563643D01*
X565815Y545787D01*
X566641Y546264D01*
X567468Y545787D01*
X569640Y545205D01*
X571889D01*
X574061Y545787D01*
X574618Y546109D01*
X575176Y545787D01*
X577348Y545205D01*
X579597D01*
X581769Y545787D01*
X582390Y546146D01*
X583012Y545787D01*
X585184Y545205D01*
X587432D01*
X589604Y545787D01*
X591552Y546911D01*
X593142Y548501D01*
X594266Y550448D01*
X594848Y552620D01*
Y554869D01*
X594266Y557041D01*
X593860Y557745D01*
X594266Y558448D01*
X594848Y560620D01*
Y562869D01*
X594266Y565041D01*
X593142Y566988D01*
X591552Y568578D01*
X589604Y569703D01*
X587432Y570285D01*
D02*
G37*
G36*
X616160Y551535D02*
X613911D01*
X611739Y550953D01*
X611035Y550547D01*
X610332Y550953D01*
X608160Y551535D01*
X605911D01*
X603739Y550953D01*
X601792Y549829D01*
X600202Y548239D01*
X599077Y546292D01*
X598495Y544119D01*
Y541871D01*
X599077Y539699D01*
X599399Y539141D01*
X599077Y538583D01*
X598495Y536412D01*
Y534163D01*
X599077Y531991D01*
X599555Y531164D01*
X599077Y530337D01*
X598495Y528166D01*
Y525917D01*
X599077Y523745D01*
X599699Y522668D01*
X599077Y521591D01*
X598495Y519419D01*
Y517170D01*
X599077Y514998D01*
X599436Y514377D01*
X599077Y513755D01*
X598495Y511583D01*
Y509334D01*
X599077Y507163D01*
X599399Y506605D01*
X599077Y506047D01*
X598495Y503875D01*
Y501627D01*
X599077Y499455D01*
X600202Y497507D01*
X601792Y495917D01*
X603739Y494793D01*
X605911Y494211D01*
X608160D01*
X610332Y494793D01*
X611035Y495199D01*
X611739Y494793D01*
X613911Y494211D01*
X616160D01*
X618332Y494793D01*
X620279Y495917D01*
X621869Y497507D01*
X622993Y499455D01*
X623575Y501627D01*
Y503875D01*
X622993Y506047D01*
X622671Y506605D01*
X622993Y507163D01*
X623575Y509334D01*
Y511583D01*
X622993Y513755D01*
X622635Y514377D01*
X622993Y514998D01*
X623575Y517170D01*
Y519419D01*
X622993Y521591D01*
X622372Y522668D01*
X622993Y523745D01*
X623575Y525917D01*
Y528166D01*
X622993Y530337D01*
X622516Y531164D01*
X622993Y531991D01*
X623575Y534163D01*
Y536412D01*
X622993Y538583D01*
X622671Y539141D01*
X622993Y539699D01*
X623575Y541871D01*
Y544119D01*
X622993Y546292D01*
X621869Y548239D01*
X620279Y549829D01*
X618332Y550953D01*
X616160Y551535D01*
D02*
G37*
G36*
X502471Y558885D02*
X437494D01*
X429619Y551009D01*
Y518278D01*
X428045Y516704D01*
X426920Y514757D01*
X426338Y512585D01*
Y510336D01*
X426920Y508164D01*
X427458Y507232D01*
X427042Y506511D01*
X426460Y504339D01*
Y502090D01*
X427042Y499918D01*
X427364Y499361D01*
X427042Y498803D01*
X426460Y496631D01*
Y494383D01*
X427042Y492210D01*
X427401Y491589D01*
X427042Y490967D01*
X426460Y488796D01*
Y486547D01*
X427042Y484375D01*
X428166Y482427D01*
X429619Y480975D01*
Y475557D01*
X430755Y474421D01*
X490931D01*
X505838Y489328D01*
Y555518D01*
X502471Y558885D01*
D02*
G37*
G36*
X606825Y471951D02*
X604576D01*
X602404Y471370D01*
X601701Y470963D01*
X600997Y471370D01*
X598825Y471951D01*
X596576D01*
X594404Y471370D01*
X592457Y470245D01*
X590867Y468655D01*
X589743Y466708D01*
X589161Y464536D01*
Y462287D01*
X589743Y460115D01*
X590220Y459288D01*
X589743Y458462D01*
X589414Y457236D01*
X588917Y457030D01*
X586745Y457612D01*
X584496D01*
X582324Y457030D01*
X580377Y455905D01*
X578787Y454315D01*
X577662Y452368D01*
X577080Y450196D01*
Y447947D01*
X577662Y445775D01*
X578787Y443828D01*
X580377Y442238D01*
X582324Y441114D01*
X584496Y440532D01*
X586745D01*
X587934Y440850D01*
X589161Y439864D01*
Y438498D01*
X589743Y436326D01*
X590341Y435289D01*
X589743Y434252D01*
X589161Y432080D01*
Y429999D01*
X588834Y429574D01*
X588075Y428975D01*
X586745Y429332D01*
X584496D01*
X582324Y428750D01*
X580377Y427625D01*
X578787Y426035D01*
X577662Y424088D01*
X577080Y421916D01*
Y419667D01*
X577662Y417495D01*
X578787Y415548D01*
X580377Y413958D01*
X582324Y412834D01*
X584496Y412252D01*
X586745D01*
X588334Y412677D01*
X589452Y412065D01*
X589900Y410736D01*
X589743Y410463D01*
X589161Y408291D01*
Y406042D01*
X589743Y403870D01*
X590867Y401923D01*
X592457Y400333D01*
X594404Y399208D01*
X596576Y398626D01*
X598825D01*
X600997Y399208D01*
X601701Y399615D01*
X602404Y399208D01*
X604576Y398626D01*
X606825D01*
X608997Y399208D01*
X610944Y400333D01*
X612534Y401923D01*
X613659Y403870D01*
X614241Y406042D01*
Y408291D01*
X613659Y410463D01*
X613300Y411084D01*
X613659Y411706D01*
X613892Y412578D01*
X615371Y413191D01*
X616438Y412575D01*
X618610Y411993D01*
X620859D01*
X623031Y412575D01*
X624978Y413699D01*
X626568Y415289D01*
X627692Y417236D01*
X628274Y419408D01*
Y421657D01*
X627692Y423829D01*
X626568Y425776D01*
X624978Y427366D01*
X623031Y428491D01*
X620859Y429073D01*
X618610D01*
X616438Y428491D01*
X614969Y427643D01*
X613878Y428479D01*
X614241Y429832D01*
Y432080D01*
X613659Y434252D01*
X613060Y435289D01*
X613659Y436326D01*
X614241Y438498D01*
Y440746D01*
X614049Y441462D01*
X615139Y442299D01*
X616438Y441549D01*
X618610Y440967D01*
X620859D01*
X623031Y441549D01*
X624978Y442673D01*
X626568Y444263D01*
X627692Y446211D01*
X628274Y448383D01*
Y450631D01*
X627692Y452803D01*
X626568Y454751D01*
X624978Y456341D01*
X623031Y457465D01*
X620859Y458047D01*
X618610D01*
X616438Y457465D01*
X615401Y456866D01*
X613922Y457479D01*
X613659Y458462D01*
X613181Y459288D01*
X613659Y460115D01*
X614241Y462287D01*
Y464536D01*
X613659Y466708D01*
X612534Y468655D01*
X610944Y470245D01*
X608997Y471370D01*
X606825Y471951D01*
D02*
G37*
G36*
X509632Y437615D02*
X507383D01*
X505211Y437033D01*
X503264Y435909D01*
X501674Y434319D01*
X500550Y432372D01*
X499967Y430200D01*
Y427951D01*
X500461Y426111D01*
X500528Y425751D01*
X499720Y424675D01*
X498510Y424351D01*
X496563Y423227D01*
X496543Y423207D01*
X496523Y423227D01*
X494576Y424351D01*
X492404Y424933D01*
X490155D01*
X487983Y424351D01*
X486036Y423227D01*
X484446Y421637D01*
X483321Y419689D01*
X482739Y417517D01*
Y415269D01*
X483321Y413097D01*
X483829Y412218D01*
X483321Y411339D01*
X482739Y409167D01*
Y406919D01*
X483321Y404747D01*
X484144Y403322D01*
X483321Y401897D01*
X482739Y399725D01*
Y397477D01*
X483321Y395305D01*
X483829Y394426D01*
X483321Y393547D01*
X482739Y391375D01*
Y389127D01*
X483321Y386955D01*
X484446Y385008D01*
X486036Y383417D01*
X487983Y382293D01*
X490155Y381711D01*
X492404D01*
X494576Y382293D01*
X496523Y383417D01*
X496543Y383437D01*
X496563Y383417D01*
X498510Y382293D01*
X500682Y381711D01*
X502931D01*
X505103Y382293D01*
X506579Y383145D01*
X508056Y382293D01*
X510228Y381711D01*
X512476D01*
X514648Y382293D01*
X516596Y383417D01*
X518186Y385008D01*
X519310Y386955D01*
X519892Y389127D01*
Y391375D01*
X519310Y393547D01*
X518803Y394426D01*
X519310Y395305D01*
X519892Y397477D01*
Y399725D01*
X519310Y401897D01*
X518488Y403322D01*
X519310Y404747D01*
X519892Y406919D01*
Y409167D01*
X519310Y411339D01*
X518803Y412218D01*
X519310Y413097D01*
X519892Y415269D01*
Y417517D01*
X519310Y419689D01*
X518186Y421637D01*
X516596Y423227D01*
X515393Y423921D01*
X516465Y425779D01*
X517048Y427951D01*
Y430200D01*
X516465Y432372D01*
X515341Y434319D01*
X513751Y435909D01*
X511804Y437033D01*
X509632Y437615D01*
D02*
G37*
G36*
X757618Y411363D02*
X755369D01*
X753197Y410781D01*
X751358Y409719D01*
X749519Y410781D01*
X747347Y411363D01*
X745098D01*
X742926Y410781D01*
X741021Y409681D01*
X739116Y410781D01*
X736944Y411363D01*
X734695D01*
X732523Y410781D01*
X730819Y409797D01*
X729116Y410781D01*
X726944Y411363D01*
X724695D01*
X722523Y410781D01*
X720576Y409657D01*
X718986Y408067D01*
X717861Y406119D01*
X717279Y403947D01*
Y401699D01*
X717861Y399527D01*
X718636Y398185D01*
X717861Y396844D01*
X717279Y394672D01*
Y392423D01*
X717861Y390251D01*
X718746Y388719D01*
X717861Y387188D01*
X717279Y385016D01*
Y382767D01*
X717861Y380595D01*
X718986Y378648D01*
X720576Y377058D01*
X722523Y375934D01*
X724695Y375352D01*
X726944D01*
X729116Y375934D01*
X730819Y376917D01*
X732523Y375934D01*
X734695Y375352D01*
X736944D01*
X739116Y375934D01*
X741021Y377034D01*
X742926Y375934D01*
X745098Y375352D01*
X747347D01*
X749519Y375934D01*
X751358Y376995D01*
X753197Y375934D01*
X755369Y375352D01*
X757618D01*
X759790Y375934D01*
X761737Y377058D01*
X763327Y378648D01*
X764451Y380595D01*
X765033Y382767D01*
Y385016D01*
X764451Y387188D01*
X763567Y388719D01*
X764451Y390251D01*
X765033Y392423D01*
Y394672D01*
X764451Y396844D01*
X763677Y398185D01*
X764451Y399527D01*
X765033Y401699D01*
Y403947D01*
X764451Y406119D01*
X763327Y408067D01*
X761737Y409657D01*
X759790Y410781D01*
X757618Y411363D01*
D02*
G37*
G36*
X516830Y379583D02*
X514582D01*
X512410Y379001D01*
X511706Y378595D01*
X511003Y379001D01*
X508830Y379583D01*
X506582D01*
X504410Y379001D01*
X502463Y377877D01*
X500872Y376287D01*
X499748Y374339D01*
X499166Y372167D01*
Y369919D01*
X499748Y367747D01*
X500070Y367189D01*
X499748Y366631D01*
X499166Y364459D01*
Y362211D01*
X499748Y360039D01*
X500107Y359417D01*
X499748Y358796D01*
X499166Y356624D01*
Y354375D01*
X499748Y352203D01*
X500809Y350365D01*
X499748Y348527D01*
X499166Y346356D01*
Y344107D01*
X499748Y341935D01*
X500225Y341108D01*
X499748Y340281D01*
X499166Y338110D01*
Y335861D01*
X499748Y333689D01*
X500070Y333131D01*
X499748Y332574D01*
X499166Y330401D01*
Y328153D01*
X499748Y325981D01*
X500107Y325359D01*
X499748Y324738D01*
X499166Y322566D01*
Y320317D01*
X499748Y318145D01*
X500498Y316847D01*
X499752Y315556D01*
X499170Y313384D01*
Y311136D01*
X499752Y308964D01*
X500876Y307016D01*
X502466Y305426D01*
X504414Y304302D01*
X506586Y303720D01*
X508834D01*
X511006Y304302D01*
X511704Y304705D01*
X512410Y304297D01*
X514582Y303715D01*
X516830D01*
X519002Y304297D01*
X520950Y305422D01*
X522540Y307012D01*
X523664Y308959D01*
X524246Y311131D01*
Y313380D01*
X523664Y315552D01*
X523062Y316594D01*
X523958Y318145D01*
X524540Y320317D01*
Y322566D01*
X523958Y324738D01*
X523452Y325614D01*
X523664Y325981D01*
X524246Y328153D01*
Y330401D01*
X523664Y332574D01*
X523342Y333131D01*
X523664Y333689D01*
X524246Y335861D01*
Y338110D01*
X523664Y340281D01*
X523187Y341108D01*
X523664Y341935D01*
X524246Y344107D01*
Y346356D01*
X523664Y348527D01*
X522603Y350365D01*
X523664Y352203D01*
X524246Y354375D01*
Y356624D01*
X523664Y358796D01*
X523305Y359417D01*
X523664Y360039D01*
X524246Y362211D01*
Y364459D01*
X523664Y366631D01*
X523342Y367189D01*
X523664Y367747D01*
X524246Y369919D01*
Y372167D01*
X523664Y374339D01*
X522540Y376287D01*
X520950Y377877D01*
X519002Y379001D01*
X516830Y379583D01*
D02*
G37*
G36*
X663151Y369120D02*
X660902D01*
X658730Y368538D01*
X657350Y367742D01*
X655971Y368538D01*
X653799Y369120D01*
X651550D01*
X649378Y368538D01*
X648362Y367951D01*
X647345Y368538D01*
X645173Y369120D01*
X642925D01*
X640753Y368538D01*
X638805Y367414D01*
X637215Y365824D01*
X636091Y363876D01*
X635654Y362245D01*
X635018Y361817D01*
X634518Y361617D01*
X634239Y361593D01*
X631512Y362722D01*
X628324Y363356D01*
X625074D01*
X621886Y362722D01*
X618883Y361478D01*
X616181Y359673D01*
X613882Y357374D01*
X612077Y354672D01*
X610833Y351669D01*
X610199Y348481D01*
Y345231D01*
X610833Y342043D01*
X612077Y339041D01*
X613882Y336338D01*
X616181Y334040D01*
X618883Y332234D01*
X621886Y330990D01*
X625074Y330356D01*
X628324D01*
X631512Y330990D01*
X634515Y332234D01*
X637217Y334040D01*
X639515Y336338D01*
X640445Y337729D01*
X641709Y337854D01*
X641817Y337745D01*
X643765Y336621D01*
X645937Y336039D01*
X648186D01*
X650358Y336621D01*
X651058Y337025D01*
X652397Y336252D01*
X654569Y335670D01*
X656818D01*
X658990Y336252D01*
X660187Y336943D01*
X661385Y336252D01*
X663557Y335670D01*
X665806D01*
X667978Y336252D01*
X669925Y337376D01*
X671515Y338966D01*
X672639Y340913D01*
X673221Y343085D01*
Y345334D01*
X672918Y346467D01*
X673810Y347359D01*
X674935Y349307D01*
X675517Y351479D01*
Y353727D01*
X674935Y355899D01*
X673810Y357847D01*
X672220Y359437D01*
X670566Y360392D01*
Y361704D01*
X669984Y363876D01*
X668860Y365824D01*
X667270Y367414D01*
X665323Y368538D01*
X663151Y369120D01*
D02*
G37*
G36*
X424578Y366121D02*
X422329D01*
X420158Y365539D01*
X418681Y364687D01*
X417205Y365539D01*
X415033Y366121D01*
X412784D01*
X410612Y365539D01*
X408665Y364415D01*
X408645Y364395D01*
X408625Y364415D01*
X406677Y365539D01*
X404505Y366121D01*
X402257D01*
X400085Y365539D01*
X398138Y364415D01*
X396547Y362825D01*
X395423Y360878D01*
X394841Y358706D01*
Y356457D01*
X395423Y354285D01*
X396547Y352338D01*
X397139Y351746D01*
X396339Y350947D01*
X395215Y349000D01*
X394633Y346828D01*
Y344579D01*
X395215Y342407D01*
X396339Y340460D01*
X396503Y340296D01*
X396042Y339835D01*
X394918Y337888D01*
X394336Y335716D01*
Y333467D01*
X394918Y331295D01*
X396042Y329348D01*
X397632Y327758D01*
X399580Y326633D01*
X401752Y326051D01*
X404000D01*
X406172Y326633D01*
X408120Y327758D01*
X408140Y327778D01*
X408160Y327758D01*
X410107Y326633D01*
X412279Y326051D01*
X414528D01*
X416700Y326633D01*
X418176Y327486D01*
X419652Y326633D01*
X421824Y326051D01*
X424073D01*
X426245Y326633D01*
X428192Y327758D01*
X429782Y329348D01*
X430907Y331295D01*
X431488Y333467D01*
Y335716D01*
X430907Y337888D01*
X429782Y339835D01*
X429618Y339999D01*
X430079Y340460D01*
X431204Y342407D01*
X431786Y344579D01*
Y346828D01*
X431204Y349000D01*
X430079Y350947D01*
X429488Y351538D01*
X430288Y352338D01*
X431412Y354285D01*
X431994Y356457D01*
Y358706D01*
X431412Y360878D01*
X430288Y362825D01*
X428697Y364415D01*
X426750Y365539D01*
X424578Y366121D01*
D02*
G37*
G36*
X707823Y337099D02*
X705574D01*
X703402Y336517D01*
X701455Y335393D01*
X699865Y333803D01*
X699062Y332412D01*
X697699D01*
X696896Y333803D01*
X695306Y335393D01*
X693359Y336517D01*
X691187Y337099D01*
X688938D01*
X686766Y336517D01*
X684819Y335393D01*
X683229Y333803D01*
X682104Y331856D01*
X681522Y329684D01*
Y327435D01*
X682104Y325263D01*
X683093Y323551D01*
X682104Y321838D01*
X681522Y319666D01*
Y317418D01*
X682104Y315245D01*
X682506Y314550D01*
X681838Y313393D01*
X681256Y311221D01*
Y308972D01*
X681838Y306800D01*
X682963Y304853D01*
X684553Y303263D01*
X686500Y302139D01*
X688672Y301556D01*
X690921D01*
X693093Y302139D01*
X695040Y303263D01*
X696630Y304853D01*
X697213Y305862D01*
X699105D01*
X699560Y305984D01*
X699865Y305456D01*
X701455Y303866D01*
X703402Y302741D01*
X705574Y302159D01*
X707823D01*
X709995Y302741D01*
X711942Y303866D01*
X713532Y305456D01*
X714657Y307403D01*
X715239Y309575D01*
Y311824D01*
X714657Y313996D01*
X713963Y315196D01*
X714657Y316397D01*
X715239Y318569D01*
Y320818D01*
X714657Y322990D01*
X714001Y324127D01*
X714657Y325263D01*
X715239Y327435D01*
Y329684D01*
X714657Y331856D01*
X713532Y333803D01*
X711942Y335393D01*
X709995Y336517D01*
X707823Y337099D01*
D02*
G37*
G36*
X356438Y324694D02*
X354189D01*
X352018Y324112D01*
X350112Y323012D01*
X348207Y324112D01*
X346035Y324694D01*
X343786D01*
X341614Y324112D01*
X339911Y323129D01*
X338207Y324112D01*
X336035Y324694D01*
X333786D01*
X331614Y324112D01*
X329667Y322988D01*
X328077Y321398D01*
X326953Y319451D01*
X326371Y317279D01*
Y315030D01*
X326953Y312858D01*
X327727Y311516D01*
X326953Y310175D01*
X326371Y308003D01*
Y305755D01*
X326953Y303582D01*
X327837Y302051D01*
X326953Y300519D01*
X326371Y298347D01*
Y296099D01*
X326953Y293927D01*
X328077Y291979D01*
X329667Y290389D01*
X331614Y289265D01*
X333786Y288683D01*
X336035D01*
X338207Y289265D01*
X339911Y290249D01*
X341614Y289265D01*
X343786Y288683D01*
X346035D01*
X348207Y289265D01*
X350112Y290365D01*
X352018Y289265D01*
X354189Y288683D01*
X356438D01*
X358610Y289265D01*
X360558Y290389D01*
X362147Y291979D01*
X363272Y293927D01*
X363854Y296099D01*
Y298347D01*
X363272Y300519D01*
X362388Y302051D01*
X363272Y303582D01*
X363854Y305755D01*
Y308003D01*
X363272Y310175D01*
X362497Y311516D01*
X363272Y312858D01*
X363854Y315030D01*
Y317279D01*
X363272Y319451D01*
X362147Y321398D01*
X360558Y322988D01*
X358610Y324112D01*
X356438Y324694D01*
D02*
G37*
G36*
X710274Y291256D02*
X708025D01*
X705853Y290674D01*
X705150Y290268D01*
X704446Y290674D01*
X702274Y291256D01*
X700025D01*
X697853Y290674D01*
X695906Y289550D01*
X694316Y287959D01*
X693192Y286012D01*
X692610Y283840D01*
Y281591D01*
X693192Y279419D01*
X693669Y278593D01*
X693192Y277766D01*
X692610Y275594D01*
Y273346D01*
X693192Y271173D01*
X693514Y270616D01*
X693192Y270058D01*
X692610Y267886D01*
Y265637D01*
X693192Y263465D01*
X693550Y262844D01*
X693192Y262222D01*
X692610Y260051D01*
Y257802D01*
X693192Y255630D01*
X694316Y253682D01*
X695906Y252092D01*
X697853Y250968D01*
X700025Y250386D01*
X702274D01*
X704446Y250968D01*
X705150Y251374D01*
X705853Y250968D01*
X708025Y250386D01*
X710274D01*
X712446Y250968D01*
X714393Y252092D01*
X715983Y253682D01*
X717108Y255630D01*
X717690Y257802D01*
Y260051D01*
X717108Y262222D01*
X716749Y262844D01*
X717108Y263465D01*
X717690Y265637D01*
Y267886D01*
X717108Y270058D01*
X716786Y270616D01*
X717108Y271173D01*
X717690Y273346D01*
Y275594D01*
X717108Y277766D01*
X716630Y278593D01*
X717108Y279419D01*
X717690Y281591D01*
Y283840D01*
X717108Y286012D01*
X715983Y287959D01*
X714393Y289550D01*
X712446Y290674D01*
X710274Y291256D01*
D02*
G37*
G36*
X631949Y299953D02*
X621449D01*
X618512Y299567D01*
X615775Y298433D01*
X613425Y296630D01*
X611622Y294280D01*
X610489Y291543D01*
X610102Y288606D01*
Y278106D01*
X610489Y275170D01*
X611622Y272433D01*
X613425Y270083D01*
X615775Y268279D01*
X618512Y267146D01*
X621449Y266759D01*
X631949D01*
X634886Y267146D01*
X637622Y268279D01*
X639972Y270083D01*
X640442Y270695D01*
X641710Y270612D01*
X642076Y269978D01*
X643665Y268388D01*
X645613Y267264D01*
X647785Y266682D01*
X650033D01*
X652206Y267264D01*
X652827Y267623D01*
X653448Y267264D01*
X655620Y266682D01*
X657869D01*
X660041Y267264D01*
X660599Y267586D01*
X661156Y267264D01*
X663328Y266682D01*
X665577D01*
X667749Y267264D01*
X668576Y267741D01*
X669402Y267264D01*
X671574Y266682D01*
X673823D01*
X675995Y267264D01*
X677943Y268388D01*
X679532Y269978D01*
X680657Y271926D01*
X681239Y274098D01*
Y276346D01*
X680657Y278518D01*
X680250Y279222D01*
X680657Y279926D01*
X681239Y282098D01*
Y284346D01*
X680657Y286518D01*
X679532Y288466D01*
X677943Y290056D01*
X675995Y291180D01*
X673823Y291762D01*
X671574D01*
X669402Y291180D01*
X668576Y290703D01*
X667749Y291180D01*
X665577Y291762D01*
X663328D01*
X661156Y291180D01*
X660599Y290858D01*
X660041Y291180D01*
X657869Y291762D01*
X655620D01*
X653448Y291180D01*
X652827Y290821D01*
X652206Y291180D01*
X650033Y291762D01*
X647785D01*
X645613Y291180D01*
X644335Y290442D01*
X642971Y291077D01*
X642909Y291543D01*
X641776Y294280D01*
X639972Y296630D01*
X637622Y298433D01*
X634886Y299567D01*
X631949Y299953D01*
D02*
G37*
G36*
X737717Y265879D02*
X735468D01*
X733296Y265297D01*
X732593Y264890D01*
X731889Y265297D01*
X729717Y265879D01*
X727468D01*
X725296Y265297D01*
X723349Y264172D01*
X721759Y262582D01*
X720635Y260635D01*
X720053Y258463D01*
Y256214D01*
X720635Y254042D01*
X720993Y253421D01*
X720635Y252799D01*
X720053Y250627D01*
Y248379D01*
X720635Y246207D01*
X721759Y244259D01*
X723349Y242669D01*
X725296Y241545D01*
X727468Y240963D01*
X729717D01*
X731889Y241545D01*
X732593Y241951D01*
X733296Y241545D01*
X735468Y240963D01*
X737717D01*
X739889Y241545D01*
X741836Y242669D01*
X743426Y244259D01*
X744551Y246207D01*
X745133Y248379D01*
Y250627D01*
X744551Y252799D01*
X744192Y253421D01*
X744551Y254042D01*
X745133Y256214D01*
Y258463D01*
X744551Y260635D01*
X743426Y262582D01*
X741836Y264172D01*
X739889Y265297D01*
X737717Y265879D01*
D02*
G37*
G36*
X534352Y255630D02*
X532103D01*
X529931Y255047D01*
X529227Y254641D01*
X528524Y255047D01*
X526352Y255630D01*
X524103D01*
X521931Y255047D01*
X519984Y253923D01*
X518394Y252333D01*
X517270Y250386D01*
X516688Y248214D01*
Y245971D01*
X516673Y245957D01*
X515547Y245316D01*
X515261Y245602D01*
X512468Y247214D01*
X509352Y248049D01*
X506127D01*
X503011Y247214D01*
X500218Y245602D01*
X497937Y243321D01*
X496324Y240527D01*
X495489Y237412D01*
Y234186D01*
X496324Y231071D01*
X497937Y228277D01*
X500218Y225997D01*
X503011Y224384D01*
X506127Y223549D01*
X509352D01*
X512468Y224384D01*
X515261Y225997D01*
X515989Y226725D01*
X517128Y226067D01*
X516688Y224424D01*
Y222176D01*
X517270Y220004D01*
X518394Y218056D01*
X519984Y216466D01*
X521931Y215342D01*
X524103Y214760D01*
X526352D01*
X528524Y215342D01*
X529227Y215748D01*
X529931Y215342D01*
X532103Y214760D01*
X534352D01*
X536524Y215342D01*
X538471Y216466D01*
X540061Y218056D01*
X541185Y220004D01*
X541767Y222176D01*
Y224424D01*
X541185Y226596D01*
X540827Y227218D01*
X541185Y227839D01*
X541767Y230011D01*
Y232260D01*
X541185Y234432D01*
X540863Y234989D01*
X541185Y235547D01*
X541767Y237719D01*
Y239968D01*
X541185Y242140D01*
X540708Y242966D01*
X541185Y243793D01*
X541767Y245965D01*
Y248214D01*
X541185Y250386D01*
X540061Y252333D01*
X538471Y253923D01*
X536524Y255047D01*
X534352Y255630D01*
D02*
G37*
G36*
X712525Y243061D02*
X710276D01*
X708104Y242479D01*
X707401Y242073D01*
X706697Y242479D01*
X704525Y243061D01*
X702276D01*
X700104Y242479D01*
X698157Y241355D01*
X696567Y239765D01*
X695443Y237818D01*
X694861Y235646D01*
Y233397D01*
X695443Y231225D01*
X695802Y230604D01*
X695443Y229982D01*
X694861Y227810D01*
Y225561D01*
X695443Y223389D01*
X696567Y221442D01*
X698157Y219852D01*
X700104Y218728D01*
X702276Y218146D01*
X704525D01*
X706697Y218728D01*
X707401Y219134D01*
X708104Y218728D01*
X710276Y218146D01*
X712525D01*
X714697Y218728D01*
X716644Y219852D01*
X718234Y221442D01*
X719359Y223389D01*
X719941Y225561D01*
Y227810D01*
X719359Y229982D01*
X719000Y230604D01*
X719359Y231225D01*
X719941Y233397D01*
Y235646D01*
X719359Y237818D01*
X718234Y239765D01*
X716644Y241355D01*
X714697Y242479D01*
X712525Y243061D01*
D02*
G37*
G36*
X627836Y243391D02*
X625587D01*
X623415Y242809D01*
X621468Y241685D01*
X619878Y240095D01*
X618754Y238147D01*
X618172Y235975D01*
Y233727D01*
X618754Y231555D01*
X619878Y229607D01*
X620134Y229351D01*
X619878Y229095D01*
X618754Y227148D01*
X618172Y224975D01*
Y222727D01*
X618754Y220555D01*
X619878Y218608D01*
X621468Y217017D01*
X623415Y215893D01*
X625587Y215311D01*
X627836D01*
X630008Y215893D01*
X631955Y217017D01*
X633545Y218608D01*
X634670Y220555D01*
X635252Y222727D01*
Y224975D01*
X634670Y227148D01*
X633545Y229095D01*
X633289Y229351D01*
X633545Y229607D01*
X634670Y231555D01*
X635252Y233727D01*
Y235975D01*
X634670Y238147D01*
X633545Y240095D01*
X631955Y241685D01*
X630008Y242809D01*
X627836Y243391D01*
D02*
G37*
G36*
X654923D02*
X652675D01*
X650503Y242809D01*
X648555Y241685D01*
X646965Y240095D01*
X645841Y238147D01*
X645259Y235975D01*
Y233727D01*
X645841Y231555D01*
X646965Y229607D01*
X647222Y229351D01*
X646965Y229094D01*
X645841Y227147D01*
X645259Y224975D01*
Y222726D01*
X645841Y220554D01*
X646965Y218607D01*
X648555Y217017D01*
X650503Y215893D01*
X652675Y215311D01*
X654923D01*
X657095Y215893D01*
X659043Y217017D01*
X660633Y218607D01*
X661757Y220554D01*
X662339Y222726D01*
Y224975D01*
X661757Y227147D01*
X660633Y229094D01*
X660376Y229351D01*
X660633Y229607D01*
X661757Y231555D01*
X662339Y233727D01*
Y235975D01*
X661757Y238147D01*
X660633Y240095D01*
X659043Y241685D01*
X657095Y242809D01*
X654923Y243391D01*
D02*
G37*
G36*
X367368Y208843D02*
X365119D01*
X362947Y208262D01*
X361108Y207200D01*
X359269Y208262D01*
X357097Y208843D01*
X354848D01*
X352676Y208262D01*
X350771Y207162D01*
X348866Y208262D01*
X346693Y208843D01*
X344445D01*
X342273Y208262D01*
X340569Y207278D01*
X338866Y208262D01*
X336693Y208843D01*
X334445D01*
X332273Y208262D01*
X330326Y207137D01*
X328736Y205547D01*
X327611Y203600D01*
X327029Y201428D01*
Y199179D01*
X327611Y197007D01*
X328386Y195666D01*
X327611Y194324D01*
X327029Y192152D01*
Y189904D01*
X327611Y187732D01*
X328495Y186200D01*
X327611Y184669D01*
X327029Y182496D01*
Y180248D01*
X327611Y178076D01*
X328736Y176129D01*
X330326Y174538D01*
X332273Y173414D01*
X334445Y172832D01*
X336693D01*
X338866Y173414D01*
X340569Y174398D01*
X342273Y173414D01*
X344445Y172832D01*
X346693D01*
X348866Y173414D01*
X350771Y174514D01*
X352676Y173414D01*
X354848Y172832D01*
X357097D01*
X359269Y173414D01*
X361108Y174476D01*
X362947Y173414D01*
X365119Y172832D01*
X367368D01*
X369539Y173414D01*
X371487Y174538D01*
X373077Y176129D01*
X374201Y178076D01*
X374783Y180248D01*
Y182496D01*
X374201Y184669D01*
X373317Y186200D01*
X374201Y187732D01*
X374783Y189904D01*
Y192152D01*
X374201Y194324D01*
X373427Y195666D01*
X374201Y197007D01*
X374783Y199179D01*
Y201428D01*
X374201Y203600D01*
X373077Y205547D01*
X371487Y207137D01*
X369539Y208262D01*
X367368Y208843D01*
D02*
G37*
G36*
X647337Y196799D02*
X645089D01*
X642917Y196217D01*
X640969Y195092D01*
X639379Y193502D01*
X638255Y191555D01*
X637930Y190342D01*
X636468Y189792D01*
X634802Y190905D01*
X631799Y192149D01*
X628611Y192783D01*
X625361D01*
X622174Y192149D01*
X619171Y190905D01*
X616468Y189099D01*
X614296Y186928D01*
X613764Y186957D01*
X612954Y187267D01*
X612444Y189169D01*
X611320Y191117D01*
X609730Y192707D01*
X607783Y193831D01*
X605611Y194413D01*
X603362D01*
X601190Y193831D01*
X599243Y192707D01*
X597653Y191117D01*
X596529Y189169D01*
X595947Y186997D01*
Y184748D01*
X596529Y182577D01*
X597394Y181078D01*
X596529Y179579D01*
X595947Y177407D01*
Y175159D01*
X596529Y172987D01*
X597323Y171610D01*
X596529Y170233D01*
X595947Y168061D01*
Y165813D01*
X596529Y163641D01*
X597653Y161693D01*
X599243Y160103D01*
X601190Y158979D01*
X603362Y158397D01*
X605611D01*
X607783Y158979D01*
X609730Y160103D01*
X611320Y161693D01*
X612444Y163641D01*
X612907Y165368D01*
X613910Y165683D01*
X614120Y165702D01*
X614245Y165689D01*
X616468Y163466D01*
X619171Y161661D01*
X622174Y160417D01*
X625361Y159783D01*
X628611D01*
X631799Y160417D01*
X634802Y161661D01*
X637111Y163204D01*
X637137Y163214D01*
X638326Y163055D01*
X638701Y162867D01*
X639379Y161693D01*
X640969Y160103D01*
X642917Y158979D01*
X645089Y158397D01*
X647337D01*
X649509Y158979D01*
X651457Y160103D01*
X653047Y161693D01*
X654171Y163641D01*
X654753Y165813D01*
Y168061D01*
X654171Y170233D01*
X653047Y172181D01*
X653043Y172184D01*
X653047Y172188D01*
X654171Y174135D01*
X654753Y176307D01*
Y178556D01*
X654171Y180728D01*
X653047Y182675D01*
X652877Y182845D01*
X653047Y183015D01*
X654171Y184962D01*
X654753Y187134D01*
Y189383D01*
X654171Y191555D01*
X653047Y193502D01*
X651457Y195092D01*
X649509Y196217D01*
X647337Y196799D01*
D02*
G37*
G36*
X559577Y178773D02*
X557329D01*
X555157Y178191D01*
X554453Y177785D01*
X553749Y178191D01*
X551577Y178773D01*
X549329D01*
X547157Y178191D01*
X545840Y177431D01*
X544524Y178191D01*
X542352Y178773D01*
X540103D01*
X537931Y178191D01*
X537227Y177785D01*
X536524Y178191D01*
X534352Y178773D01*
X532103D01*
X529931Y178191D01*
X527984Y177067D01*
X526394Y175477D01*
X525270Y173530D01*
X524688Y171358D01*
Y169109D01*
X525270Y166937D01*
X525747Y166110D01*
X525270Y165284D01*
X524688Y163112D01*
Y160863D01*
X525270Y158691D01*
X525591Y158133D01*
X525270Y157576D01*
X524688Y155404D01*
Y153155D01*
X525270Y150983D01*
X525628Y150362D01*
X525270Y149740D01*
X524688Y147568D01*
Y145319D01*
X525270Y143147D01*
X526394Y141200D01*
X527984Y139610D01*
X529931Y138486D01*
X532103Y137904D01*
X534352D01*
X536524Y138486D01*
X537227Y138892D01*
X537931Y138486D01*
X540103Y137904D01*
X542352D01*
X544524Y138486D01*
X545840Y139246D01*
X547157Y138486D01*
X549329Y137904D01*
X551577D01*
X553749Y138486D01*
X555697Y139610D01*
X557287Y141200D01*
X558411Y143147D01*
X558993Y145319D01*
Y145739D01*
X559577D01*
X561749Y146321D01*
X563697Y147446D01*
X565287Y149036D01*
X566411Y150983D01*
X566993Y153155D01*
Y155404D01*
X566411Y157576D01*
X566089Y158133D01*
X566411Y158691D01*
X566993Y160863D01*
Y163112D01*
X566411Y165284D01*
X565934Y166110D01*
X566411Y166937D01*
X566993Y169109D01*
Y171358D01*
X566411Y173530D01*
X565287Y175477D01*
X563697Y177067D01*
X561749Y178191D01*
X559577Y178773D01*
D02*
G37*
G36*
X452752Y178651D02*
X450503D01*
X448331Y178069D01*
X447628Y177663D01*
X446924Y178069D01*
X444752Y178651D01*
X442503D01*
X440331Y178069D01*
X438384Y176945D01*
X436794Y175355D01*
X435670Y173407D01*
X435088Y171235D01*
Y168987D01*
X435670Y166815D01*
X436147Y165988D01*
X435670Y165161D01*
X435088Y162989D01*
Y160741D01*
X435670Y158569D01*
X435992Y158011D01*
X435670Y157453D01*
X435088Y155281D01*
Y153033D01*
X435670Y150861D01*
X436029Y150239D01*
X435670Y149618D01*
X435088Y147446D01*
Y145197D01*
X435670Y143025D01*
X436794Y141078D01*
X438384Y139488D01*
X440331Y138363D01*
X442503Y137781D01*
X444752D01*
X446924Y138363D01*
X447628Y138770D01*
X448331Y138363D01*
X450503Y137781D01*
X452752D01*
X454924Y138363D01*
X456871Y139488D01*
X458461Y141078D01*
X459586Y143025D01*
X460168Y145197D01*
Y147446D01*
X459586Y149618D01*
X459227Y150239D01*
X459586Y150861D01*
X460168Y153033D01*
Y155281D01*
X459586Y157453D01*
X459264Y158011D01*
X459586Y158569D01*
X460168Y160741D01*
Y162989D01*
X459586Y165161D01*
X459108Y165988D01*
X459586Y166815D01*
X460168Y168987D01*
Y171235D01*
X459586Y173407D01*
X458461Y175355D01*
X456871Y176945D01*
X454924Y178069D01*
X452752Y178651D01*
D02*
G37*
G36*
X737717Y174853D02*
X735468D01*
X733296Y174271D01*
X731349Y173147D01*
X730097Y171894D01*
X728844Y173147D01*
X726897Y174271D01*
X724725Y174853D01*
X722476D01*
X720304Y174271D01*
X718357Y173147D01*
X716767Y171557D01*
X715643Y169609D01*
X715061Y167437D01*
Y165189D01*
X715643Y163017D01*
X716767Y161069D01*
X717416Y160420D01*
X716767Y159771D01*
X715643Y157823D01*
X715061Y155651D01*
Y153403D01*
X715643Y151231D01*
X716767Y149283D01*
X718357Y147693D01*
X720304Y146569D01*
X722476Y145987D01*
X724725D01*
X726897Y146569D01*
X728844Y147693D01*
X729973Y148822D01*
X731349Y147446D01*
X733296Y146321D01*
X735468Y145739D01*
X737717D01*
X739889Y146321D01*
X741836Y147446D01*
X743426Y149036D01*
X744551Y150983D01*
X745133Y153155D01*
Y155404D01*
X744551Y157576D01*
X743426Y159523D01*
X742653Y160296D01*
X743426Y161069D01*
X744551Y163017D01*
X745133Y165189D01*
Y167437D01*
X744551Y169609D01*
X743426Y171557D01*
X741836Y173147D01*
X739889Y174271D01*
X737717Y174853D01*
D02*
G37*
G36*
X405058Y145908D02*
X402809D01*
X400637Y145326D01*
X399933Y144920D01*
X399230Y145326D01*
X397058Y145908D01*
X394809D01*
X392637Y145326D01*
X390690Y144202D01*
X389100Y142612D01*
X387975Y140665D01*
X387393Y138493D01*
Y136244D01*
X387975Y134072D01*
X388334Y133450D01*
X387975Y132829D01*
X387393Y130657D01*
Y128408D01*
X387975Y126236D01*
X389100Y124289D01*
X390690Y122699D01*
X392637Y121575D01*
X394809Y120993D01*
X397058D01*
X399230Y121575D01*
X399933Y121981D01*
X400637Y121575D01*
X402809Y120993D01*
X405058D01*
X407230Y121575D01*
X409177Y122699D01*
X410767Y124289D01*
X411891Y126236D01*
X412473Y128408D01*
Y130657D01*
X411891Y132829D01*
X411533Y133450D01*
X411891Y134072D01*
X412473Y136244D01*
Y138493D01*
X411891Y140665D01*
X410767Y142612D01*
X409177Y144202D01*
X407230Y145326D01*
X405058Y145908D01*
D02*
G37*
G36*
X434272Y127594D02*
X432024D01*
X429851Y127012D01*
X429148Y126606D01*
X428444Y127012D01*
X426272Y127594D01*
X424024D01*
X421852Y127012D01*
X419904Y125888D01*
X418314Y124298D01*
X417190Y122351D01*
X416608Y120179D01*
Y117930D01*
X417190Y115758D01*
X417549Y115136D01*
X417190Y114515D01*
X416608Y112343D01*
Y110094D01*
X417190Y107922D01*
X418314Y105975D01*
X419904Y104385D01*
X421852Y103261D01*
X424024Y102679D01*
X426272D01*
X428444Y103261D01*
X429148Y103667D01*
X429851Y103261D01*
X432024Y102679D01*
X434272D01*
X436444Y103261D01*
X438391Y104385D01*
X439981Y105975D01*
X441106Y107922D01*
X441688Y110094D01*
Y112343D01*
X441106Y114515D01*
X440747Y115136D01*
X441106Y115758D01*
X441688Y117930D01*
Y120179D01*
X441106Y122351D01*
X439981Y124298D01*
X438391Y125888D01*
X436444Y127012D01*
X434272Y127594D01*
D02*
G37*
G36*
X651627Y130203D02*
X649378D01*
X647206Y129621D01*
X645259Y128497D01*
X643669Y126907D01*
X642613Y125077D01*
X642114Y124920D01*
X641197Y124836D01*
X640260Y126056D01*
X637910Y127860D01*
X635173Y128993D01*
X632236Y129380D01*
X621736D01*
X618800Y128993D01*
X616063Y127860D01*
X613713Y126056D01*
X613464Y125733D01*
X611940Y125833D01*
X611320Y126907D01*
X609730Y128497D01*
X607783Y129621D01*
X605611Y130203D01*
X603362D01*
X601190Y129621D01*
X599243Y128497D01*
X597653Y126907D01*
X596529Y124959D01*
X595947Y122787D01*
Y120539D01*
X596529Y118367D01*
X597653Y116419D01*
X598175Y115898D01*
X597653Y115376D01*
X596529Y113428D01*
X595947Y111256D01*
Y109008D01*
X596529Y106836D01*
X597653Y104888D01*
X598099Y104442D01*
X597653Y103996D01*
X596529Y102048D01*
X595947Y99876D01*
Y97627D01*
X596529Y95456D01*
X597653Y93508D01*
X599243Y91918D01*
X601190Y90794D01*
X603362Y90212D01*
X605611D01*
X607783Y90794D01*
X609730Y91918D01*
X611320Y93508D01*
X612444Y95456D01*
X613027Y97627D01*
Y98435D01*
X614296Y99061D01*
X616063Y97706D01*
X618800Y96573D01*
X621736Y96186D01*
X632236D01*
X635173Y96573D01*
X637910Y97706D01*
X640260Y99509D01*
X640744Y100141D01*
X641361Y100007D01*
X641963Y99642D01*
Y97627D01*
X642545Y95456D01*
X643669Y93508D01*
X645259Y91918D01*
X647206Y90794D01*
X649378Y90212D01*
X651627D01*
X653799Y90794D01*
X655746Y91918D01*
X657336Y93508D01*
X658461Y95456D01*
X659043Y97627D01*
Y99876D01*
X658461Y102048D01*
X657336Y103996D01*
X656930Y104401D01*
X657336Y104807D01*
X658461Y106755D01*
X659043Y108927D01*
Y111175D01*
X658461Y113347D01*
X657336Y115295D01*
X656774Y115857D01*
X657336Y116419D01*
X658461Y118367D01*
X659043Y120539D01*
Y122787D01*
X658461Y124959D01*
X657336Y126907D01*
X655746Y128497D01*
X653799Y129621D01*
X651627Y130203D01*
D02*
G37*
G36*
X400985Y116033D02*
X397735D01*
X394547Y115399D01*
X391544Y114155D01*
X388842Y112349D01*
X386544Y110051D01*
X384738Y107348D01*
X383494Y104346D01*
X382860Y101158D01*
Y97908D01*
X383494Y94720D01*
X384738Y91717D01*
X386544Y89015D01*
X388842Y86716D01*
X391544Y84911D01*
X394547Y83667D01*
X397735Y83033D01*
X400985D01*
X404173Y83667D01*
X407176Y84911D01*
X409878Y86716D01*
X412176Y89015D01*
X413982Y91717D01*
X415226Y94720D01*
X415860Y97908D01*
Y101158D01*
X415226Y104346D01*
X413982Y107348D01*
X412176Y110051D01*
X409878Y112349D01*
X407176Y114155D01*
X404173Y115399D01*
X400985Y116033D01*
D02*
G37*
G36*
X341110Y116130D02*
X330610D01*
X327673Y115743D01*
X324936Y114610D01*
X322587Y112806D01*
X320783Y110456D01*
X319650Y107720D01*
X319263Y104783D01*
Y94283D01*
X319650Y91346D01*
X320783Y88609D01*
X322587Y86259D01*
X324936Y84456D01*
X327673Y83322D01*
X330610Y82936D01*
X341110D01*
X344047Y83322D01*
X346784Y84456D01*
X349134Y86259D01*
X350937Y88609D01*
X352071Y91346D01*
X352457Y94283D01*
Y104783D01*
X352071Y107720D01*
X350937Y110456D01*
X349134Y112806D01*
X346784Y114610D01*
X344047Y115743D01*
X341110Y116130D01*
D02*
G37*
%LPD*%
D22*
X203235Y718971D02*
G03*
X206028Y711533I11302J0D01*
G01*
X203235Y733069D02*
X214537Y744371D01*
X203235Y718971D02*
Y733069D01*
X214156Y620863D02*
Y718590D01*
X214537Y718971D01*
X206028Y618626D02*
Y711533D01*
X167147Y614023D02*
Y614594D01*
X157646Y604522D02*
X167147Y614023D01*
X157646Y604522D02*
X160396D01*
X159189Y517933D02*
Y532210D01*
X104563Y540173D02*
X151226D01*
X159189Y532210D01*
X88789Y524399D02*
X104563Y540173D01*
X30666Y524399D02*
X88789D01*
X187264Y191266D02*
Y207130D01*
X184071Y188074D02*
X187264Y191266D01*
Y207130D02*
X192094Y211960D01*
X272245Y378400D02*
Y404735D01*
X283495Y415985D01*
X269696Y590147D02*
X283854Y604304D01*
Y635879D01*
X164131Y350453D02*
X169141Y345443D01*
X194852D01*
X288739Y409152D02*
X327187D01*
X330979Y412943D01*
X272245Y378400D02*
X281659Y368987D01*
X93738Y590147D02*
X269696D01*
X89944Y581927D02*
X226680D01*
X183047Y551434D02*
X195833Y564220D01*
X43942Y551434D02*
X183047D01*
X195833Y564220D02*
X228979D01*
X266748Y526451D01*
Y491709D02*
Y526451D01*
X256279Y481240D02*
X266748Y491709D01*
X330979Y412943D02*
X331666D01*
D97*
X457739Y235799D02*
D03*
X760653Y544533D02*
D03*
D98*
X507739Y235799D02*
D03*
X710653Y544533D02*
D03*
D117*
X105785Y82773D02*
X168686Y19872D01*
X65798Y122760D02*
X105785Y82773D01*
X109518D02*
X128557Y101812D01*
X105785Y82773D02*
X109518D01*
X65798Y122760D02*
Y227598D01*
X168686Y19872D02*
X519984D01*
X738929Y-3596D02*
X741836Y-689D01*
X117880Y53738D02*
X175215Y-3596D01*
X738929D01*
X65798Y227598D02*
X145042Y306841D01*
X468871Y48822D02*
X481893Y35801D01*
X535223D02*
X553265Y53843D01*
X481893Y35801D02*
X535223D01*
X263516Y603647D02*
X275734Y615864D01*
X167147Y614594D02*
X178095Y603647D01*
X263516D01*
X110819Y670922D02*
X167147Y614594D01*
X26793Y670922D02*
X110819D01*
X19050Y340814D02*
X50404Y309460D01*
X19050Y647042D02*
Y663179D01*
Y340814D02*
Y647042D01*
X713989Y5080D02*
X813655Y104746D01*
X553265Y38976D02*
X587160Y5080D01*
X713989D01*
X813655Y104746D02*
Y231826D01*
X335619Y482635D02*
X343051Y490067D01*
X378992D01*
X335619Y459707D02*
Y482635D01*
X309083Y433171D02*
X335619Y459707D01*
X273498Y433171D02*
X309083D01*
X262762Y422435D02*
X273498Y433171D01*
X262762Y402527D02*
Y422435D01*
X205524Y345289D02*
X262762Y402527D01*
X205524Y266809D02*
Y345289D01*
X198663Y259948D02*
X205524Y266809D01*
X50404Y309460D02*
X145042D01*
X553265Y38976D02*
Y53843D01*
X145042Y306841D02*
Y309460D01*
X19050Y663179D02*
X26793Y670922D01*
X183934Y308258D02*
X194852Y319176D01*
Y345443D01*
X791053Y329421D02*
X808106D01*
X813655Y323872D01*
Y231826D02*
Y323872D01*
X808411Y237070D02*
X813655Y231826D01*
X790358Y237070D02*
X808411D01*
X553265Y53843D02*
Y63730D01*
D123*
X138337Y718971D02*
D03*
D124*
Y744371D02*
D03*
X163737Y718971D02*
D03*
X189137D02*
D03*
X214537D02*
D03*
X239937D02*
D03*
X265337D02*
D03*
X290737D02*
D03*
X316137D02*
D03*
X163737Y744371D02*
D03*
X189137D02*
D03*
X214537D02*
D03*
X239937D02*
D03*
X265337D02*
D03*
X290737D02*
D03*
X316137D02*
D03*
D125*
X626699Y283356D02*
D03*
X626986Y112783D02*
D03*
D126*
X626699Y346856D02*
D03*
X626986Y176283D02*
D03*
X399360Y99533D02*
D03*
D127*
X34798Y20828D02*
D03*
X793158Y18958D02*
D03*
X34290Y774700D02*
D03*
X790702Y774446D02*
D03*
D128*
X335860Y99533D02*
D03*
D129*
X471486Y408652D02*
D03*
X458150Y408321D02*
D03*
X117880Y53738D02*
D03*
X279279Y30218D02*
D03*
X129692Y158564D02*
D03*
X138191Y131786D02*
D03*
X118611Y137204D02*
D03*
X128557Y101812D02*
D03*
X101317Y121220D02*
D03*
X445179Y408494D02*
D03*
X431669Y408652D02*
D03*
X516000Y321442D02*
D03*
X159218Y278724D02*
D03*
X142803Y279024D02*
D03*
X42235Y610300D02*
D03*
Y623000D02*
D03*
Y635773D02*
D03*
X438384Y27444D02*
D03*
X513806Y46297D02*
D03*
X425148Y119054D02*
D03*
X433148D02*
D03*
Y111219D02*
D03*
X425148D02*
D03*
X395933Y129533D02*
D03*
X403933D02*
D03*
Y137368D02*
D03*
X395933D02*
D03*
X451628Y170111D02*
D03*
X443628D02*
D03*
Y161865D02*
D03*
X451628D02*
D03*
X443628Y154157D02*
D03*
X451628D02*
D03*
Y146321D02*
D03*
X443628D02*
D03*
X468871Y48822D02*
D03*
X469606Y59191D02*
D03*
X508507Y429075D02*
D03*
X464783Y317539D02*
D03*
Y307403D02*
D03*
X507710Y312260D02*
D03*
X302665Y448073D02*
D03*
X264213Y461214D02*
D03*
X220361Y625731D02*
D03*
X214156Y620863D02*
D03*
X227355Y631188D02*
D03*
X206028Y618626D02*
D03*
X689796Y310096D02*
D03*
X690062Y318542D02*
D03*
Y328559D02*
D03*
X697980Y314402D02*
D03*
Y323872D02*
D03*
X706699Y310699D02*
D03*
Y319694D02*
D03*
Y328559D02*
D03*
X736593Y154279D02*
D03*
X723601Y154527D02*
D03*
X736593Y166313D02*
D03*
X723601D02*
D03*
X666977Y352603D02*
D03*
X664681Y344210D02*
D03*
X655693D02*
D03*
X647061Y344579D02*
D03*
X657606Y352603D02*
D03*
X648909Y353161D02*
D03*
X662026Y360580D02*
D03*
X652675D02*
D03*
X644049D02*
D03*
X650503Y98752D02*
D03*
Y110051D02*
D03*
Y121663D02*
D03*
X604487Y98752D02*
D03*
Y110132D02*
D03*
Y121663D02*
D03*
X646213Y166937D02*
D03*
Y177431D02*
D03*
Y188259D02*
D03*
X604487Y166937D02*
D03*
Y176283D02*
D03*
Y185873D02*
D03*
X667749Y229428D02*
D03*
X30666Y524399D02*
D03*
X735534Y3976D02*
D03*
X751907Y20349D02*
D03*
X741836Y-689D02*
D03*
X728593Y257339D02*
D03*
X736593D02*
D03*
Y249503D02*
D03*
X728593D02*
D03*
X703401Y234521D02*
D03*
X711401D02*
D03*
Y226686D02*
D03*
X703401D02*
D03*
X701150Y258926D02*
D03*
X709150D02*
D03*
Y266762D02*
D03*
X701150D02*
D03*
X709150Y274470D02*
D03*
X701150D02*
D03*
Y282716D02*
D03*
X709150D02*
D03*
X672699Y275222D02*
D03*
Y283222D02*
D03*
X664453D02*
D03*
Y275222D02*
D03*
X656745Y283222D02*
D03*
Y275222D02*
D03*
X648909D02*
D03*
Y283222D02*
D03*
X184071Y188074D02*
D03*
X187264Y178253D02*
D03*
X122400Y202742D02*
D03*
X270910Y290233D02*
D03*
X264779Y245156D02*
D03*
X699337Y22543D02*
D03*
X707337Y30789D02*
D03*
X699337D02*
D03*
X707337Y38497D02*
D03*
X699337D02*
D03*
Y46332D02*
D03*
X683692Y22543D02*
D03*
X691692D02*
D03*
Y30789D02*
D03*
X683692D02*
D03*
X691692Y38497D02*
D03*
X683692D02*
D03*
Y46332D02*
D03*
X691692D02*
D03*
X558453Y170233D02*
D03*
X550453D02*
D03*
Y161987D02*
D03*
X558453D02*
D03*
X550453Y154279D02*
D03*
X558453D02*
D03*
X550453Y146444D02*
D03*
X541227Y170233D02*
D03*
X533228D02*
D03*
Y161987D02*
D03*
X541227D02*
D03*
X533228Y154279D02*
D03*
X541227D02*
D03*
Y146444D02*
D03*
X533228D02*
D03*
X463000Y217828D02*
D03*
X452271D02*
D03*
X463000Y251990D02*
D03*
X452767D02*
D03*
X444752Y246506D02*
D03*
X436752D02*
D03*
Y238260D02*
D03*
X444752D02*
D03*
X436752Y230552D02*
D03*
X444752D02*
D03*
Y222717D02*
D03*
X436752D02*
D03*
X776361Y468655D02*
D03*
X765709Y468538D02*
D03*
X755491Y468655D02*
D03*
X745098D02*
D03*
X735153D02*
D03*
X776366Y441114D02*
D03*
X781459Y460393D02*
D03*
Y451118D02*
D03*
X760450Y460393D02*
D03*
Y451118D02*
D03*
X765762Y441462D02*
D03*
X735088Y451118D02*
D03*
Y460393D02*
D03*
X745088Y441462D02*
D03*
X755491D02*
D03*
X771908Y451118D02*
D03*
Y460393D02*
D03*
X735088Y441462D02*
D03*
X651412Y420533D02*
D03*
Y448158D02*
D03*
X670621Y430261D02*
D03*
X662621D02*
D03*
Y422425D02*
D03*
X670621D02*
D03*
X662621Y414717D02*
D03*
X670621D02*
D03*
Y406471D02*
D03*
X662621D02*
D03*
X670621Y465740D02*
D03*
X662621D02*
D03*
Y457904D02*
D03*
X670621D02*
D03*
X662621Y450196D02*
D03*
X670621D02*
D03*
Y441950D02*
D03*
X662621D02*
D03*
X757227Y521591D02*
D03*
X765227D02*
D03*
Y529837D02*
D03*
X757227D02*
D03*
Y559799D02*
D03*
X765227D02*
D03*
Y568045D02*
D03*
X757227D02*
D03*
X783443Y556471D02*
D03*
X775443D02*
D03*
Y548636D02*
D03*
X783443D02*
D03*
X775443Y540928D02*
D03*
X783443D02*
D03*
Y532682D02*
D03*
X775443D02*
D03*
X706498Y572168D02*
D03*
X714498D02*
D03*
Y563922D02*
D03*
X706498D02*
D03*
X706348Y526540D02*
D03*
X714349D02*
D03*
Y518294D02*
D03*
X706348D02*
D03*
X685359Y532682D02*
D03*
X693359D02*
D03*
Y540928D02*
D03*
X685359D02*
D03*
X693359Y548636D02*
D03*
X685359D02*
D03*
Y556471D02*
D03*
X693359D02*
D03*
X615035Y502751D02*
D03*
X607035D02*
D03*
X615035Y510459D02*
D03*
X607035D02*
D03*
Y518294D02*
D03*
X615035D02*
D03*
X607035Y527041D02*
D03*
X615035D02*
D03*
Y535287D02*
D03*
X607035D02*
D03*
X615035Y542995D02*
D03*
X607035D02*
D03*
X562518Y561745D02*
D03*
Y553745D02*
D03*
X570764D02*
D03*
Y561745D02*
D03*
X578472Y553745D02*
D03*
Y561745D02*
D03*
X586308D02*
D03*
Y553745D02*
D03*
X619734Y449507D02*
D03*
X585620Y449072D02*
D03*
X619734Y420533D02*
D03*
X585620Y420792D02*
D03*
X605701Y463411D02*
D03*
X597701D02*
D03*
Y455165D02*
D03*
X605701D02*
D03*
X597701Y447458D02*
D03*
X605701D02*
D03*
Y439622D02*
D03*
X597701D02*
D03*
X605701Y430956D02*
D03*
X597701D02*
D03*
Y422710D02*
D03*
X605701D02*
D03*
X597701Y415002D02*
D03*
X605701D02*
D03*
Y407166D02*
D03*
X597701D02*
D03*
X765302Y76329D02*
D03*
X295363Y442921D02*
D03*
X238772Y355203D02*
D03*
X378992Y490067D02*
D03*
X216153Y265949D02*
D03*
X198663Y259948D02*
D03*
X188486Y250692D02*
D03*
X519984Y19872D02*
D03*
X453106Y59092D02*
D03*
X305670Y787542D02*
D03*
X269696D02*
D03*
X289863Y644647D02*
D03*
X275734Y615864D02*
D03*
X283854Y635879D02*
D03*
X19050Y647042D02*
D03*
X32633Y464869D02*
D03*
X183934Y308258D02*
D03*
X164131Y350453D02*
D03*
X169517Y365983D02*
D03*
X145042Y309460D02*
D03*
X159542D02*
D03*
X553265Y63730D02*
D03*
X355314Y306879D02*
D03*
X334911D02*
D03*
Y316154D02*
D03*
X344911Y297223D02*
D03*
Y316154D02*
D03*
X355314Y297223D02*
D03*
Y316154D02*
D03*
X344911Y306879D02*
D03*
X334911Y297223D02*
D03*
X348126Y238523D02*
D03*
X358126Y248179D02*
D03*
X368530Y257454D02*
D03*
X378800D02*
D03*
Y248179D02*
D03*
X368530Y238523D02*
D03*
X358126Y257454D02*
D03*
Y238523D02*
D03*
X348126Y257454D02*
D03*
Y248179D02*
D03*
X368530D02*
D03*
X378800Y238523D02*
D03*
X394491Y505490D02*
D03*
Y491000D02*
D03*
X394364Y466483D02*
D03*
X390905Y452711D02*
D03*
X365119Y416393D02*
D03*
X364250Y426610D02*
D03*
X360887Y469182D02*
D03*
X362645Y476171D02*
D03*
X87071Y484348D02*
D03*
X357635Y742802D02*
D03*
X290248Y773808D02*
D03*
X365119Y376127D02*
D03*
X328495D02*
D03*
X288739Y409152D02*
D03*
X283495Y415985D02*
D03*
X281659Y368987D02*
D03*
X93134Y542959D02*
D03*
Y363810D02*
D03*
X121861Y687421D02*
D03*
X114802Y682540D02*
D03*
X93738Y590147D02*
D03*
X89944Y581927D02*
D03*
X226680D02*
D03*
X43942Y551434D02*
D03*
X217603Y550244D02*
D03*
X222114Y542959D02*
D03*
X306973Y589829D02*
D03*
X256279Y481240D02*
D03*
X55206Y429964D02*
D03*
X54993Y284184D02*
D03*
X39206Y416713D02*
D03*
X76553Y350686D02*
D03*
Y359650D02*
D03*
X81464Y377692D02*
D03*
X273369Y461491D02*
D03*
X281659Y463616D02*
D03*
X302665Y474999D02*
D03*
X295789Y470891D02*
D03*
X289779Y381099D02*
D03*
X283854Y387405D02*
D03*
X331666Y412943D02*
D03*
X309666Y401013D02*
D03*
X317409Y383037D02*
D03*
X317078Y419139D02*
D03*
X320681Y654785D02*
D03*
X288739Y466459D02*
D03*
X78211Y367863D02*
D03*
X84760Y385503D02*
D03*
X212323Y377005D02*
D03*
X129601Y400883D02*
D03*
X127135Y514622D02*
D03*
X164480Y430280D02*
D03*
X187368Y385503D02*
D03*
X258804Y201074D02*
D03*
X192094Y211960D02*
D03*
X183934Y277540D02*
D03*
X134921Y350953D02*
D03*
X350178Y643892D02*
D03*
X320681Y573969D02*
D03*
X218728Y455372D02*
D03*
X351570Y432372D02*
D03*
X189749Y401499D02*
D03*
X188028Y435821D02*
D03*
X224028D02*
D03*
Y422121D02*
D03*
X188028D02*
D03*
X212878Y446970D02*
D03*
Y435821D02*
D03*
X199178Y446970D02*
D03*
Y435821D02*
D03*
Y422121D02*
D03*
X212878D02*
D03*
Y410970D02*
D03*
X199178D02*
D03*
X117673Y354639D02*
D03*
X225811Y473765D02*
D03*
X216673Y471703D02*
D03*
X530029Y99516D02*
D03*
X553265Y85015D02*
D03*
X557030Y102663D02*
D03*
X790358Y237070D02*
D03*
X791053Y329421D02*
D03*
X758985Y110132D02*
D03*
X722064Y128095D02*
D03*
X422949Y334591D02*
D03*
X413403D02*
D03*
X402876D02*
D03*
X403173Y345703D02*
D03*
X413700D02*
D03*
X423246D02*
D03*
X403381Y357581D02*
D03*
X413909D02*
D03*
X423454D02*
D03*
X559373Y306567D02*
D03*
X567373D02*
D03*
Y314402D02*
D03*
X559373D02*
D03*
X567373Y322110D02*
D03*
X559373D02*
D03*
Y330356D02*
D03*
X567373D02*
D03*
X559373Y340913D02*
D03*
X567373D02*
D03*
Y348749D02*
D03*
X559373D02*
D03*
X567373Y356457D02*
D03*
X559373D02*
D03*
Y364703D02*
D03*
X567373D02*
D03*
X550453Y400233D02*
D03*
X558453D02*
D03*
Y408069D02*
D03*
X550453D02*
D03*
X558453Y415777D02*
D03*
X550453D02*
D03*
Y424023D02*
D03*
X558453D02*
D03*
X550453Y433887D02*
D03*
X558453D02*
D03*
Y441723D02*
D03*
X550453D02*
D03*
X558453Y449431D02*
D03*
X550453D02*
D03*
Y457677D02*
D03*
X558453D02*
D03*
X456497Y340913D02*
D03*
X464497D02*
D03*
Y348749D02*
D03*
X456497D02*
D03*
X464497Y356457D02*
D03*
X456497D02*
D03*
Y364703D02*
D03*
X464497D02*
D03*
X525227Y223300D02*
D03*
X533228D02*
D03*
Y231136D02*
D03*
X525227D02*
D03*
X533228Y238843D02*
D03*
X525227D02*
D03*
Y247090D02*
D03*
X533228D02*
D03*
X515706Y312255D02*
D03*
X507706Y321442D02*
D03*
X515706Y329277D02*
D03*
X507706D02*
D03*
X515706Y336985D02*
D03*
X507706D02*
D03*
Y345231D02*
D03*
X515706D02*
D03*
X507706Y355499D02*
D03*
X515706D02*
D03*
Y363335D02*
D03*
X507706D02*
D03*
X515706Y371043D02*
D03*
X507706D02*
D03*
X511352Y390251D02*
D03*
Y398601D02*
D03*
X501807Y390251D02*
D03*
Y398601D02*
D03*
X491279Y390251D02*
D03*
Y398601D02*
D03*
X511352Y408043D02*
D03*
Y416393D02*
D03*
X501807Y408043D02*
D03*
Y416393D02*
D03*
X491279Y408043D02*
D03*
Y416393D02*
D03*
X505838Y464132D02*
D03*
Y455783D02*
D03*
X497147Y464520D02*
D03*
Y456170D02*
D03*
X489021Y464520D02*
D03*
Y456170D02*
D03*
X442878Y511461D02*
D03*
X434878D02*
D03*
X450878D02*
D03*
X467000Y495507D02*
D03*
X475000D02*
D03*
X483000D02*
D03*
X491000D02*
D03*
X451000Y503215D02*
D03*
Y495507D02*
D03*
X459000D02*
D03*
X435000Y503215D02*
D03*
X443000D02*
D03*
X435000Y495507D02*
D03*
X443000D02*
D03*
X483000Y487671D02*
D03*
X475000D02*
D03*
X467000D02*
D03*
X459000D02*
D03*
X451000D02*
D03*
X443000D02*
D03*
X435000D02*
D03*
X464653Y413895D02*
D03*
X451751Y414000D02*
D03*
X438503Y413895D02*
D03*
X441106Y59003D02*
D03*
X766992Y321000D02*
D03*
X498783Y83645D02*
D03*
X485442D02*
D03*
X653799Y223851D02*
D03*
Y234851D02*
D03*
X626712Y223851D02*
D03*
Y234851D02*
D03*
X756493Y383892D02*
D03*
X746223Y393547D02*
D03*
X725819D02*
D03*
Y402823D02*
D03*
X735819Y383892D02*
D03*
Y402823D02*
D03*
X746223Y383892D02*
D03*
X756493Y393547D02*
D03*
Y402823D02*
D03*
X746223D02*
D03*
X735819Y393547D02*
D03*
X725819Y383892D02*
D03*
X366243Y181372D02*
D03*
X355972Y191028D02*
D03*
X335569D02*
D03*
Y200303D02*
D03*
X345569Y181372D02*
D03*
Y200303D02*
D03*
X355972Y181372D02*
D03*
X366243Y191028D02*
D03*
Y200303D02*
D03*
X355972D02*
D03*
X345569Y191028D02*
D03*
X335569Y181372D02*
D03*
X515001Y455324D02*
D03*
Y463960D02*
D03*
X480706Y456171D02*
D03*
Y464521D02*
D03*
X645089Y23169D02*
D03*
X635433Y33169D02*
D03*
X626157Y43572D02*
D03*
Y53843D02*
D03*
X635433D02*
D03*
X645089Y43572D02*
D03*
X626157Y33169D02*
D03*
X645089D02*
D03*
X626157Y23169D02*
D03*
X635433D02*
D03*
Y43572D02*
D03*
X645089Y53843D02*
D03*
X419947Y461240D02*
D03*
X413947Y450740D02*
D03*
X419947Y454240D02*
D03*
X413947Y457740D02*
D03*
Y464740D02*
D03*
X437947Y450740D02*
D03*
X431947Y461240D02*
D03*
X437947Y457707D02*
D03*
X425947Y464740D02*
D03*
X437947D02*
D03*
X425947Y457740D02*
D03*
Y450740D02*
D03*
X431947Y454240D02*
D03*
X449947Y464740D02*
D03*
X463347Y457707D02*
D03*
X449947Y457740D02*
D03*
X463347Y450740D02*
D03*
Y464740D02*
D03*
X455947Y461240D02*
D03*
Y454240D02*
D03*
X449947Y450740D02*
D03*
X443947Y461240D02*
D03*
Y454240D02*
D03*
X779551Y276308D02*
D03*
X766992Y272724D02*
D03*
X515860Y58903D02*
D03*
X767855Y180536D02*
D03*
X780856Y182830D02*
D03*
X767496Y229820D02*
D03*
X394699Y443666D02*
D03*
X175554Y211203D02*
D03*
X175117Y204574D02*
D03*
X175622Y217574D02*
D03*
X167172Y214924D02*
D03*
Y206724D02*
D03*
X159372Y188524D02*
D03*
Y198524D02*
D03*
Y208524D02*
D03*
Y218524D02*
D03*
X132586Y219462D02*
D03*
X148648Y171143D02*
D03*
X223619Y175401D02*
D03*
X199318Y173274D02*
D03*
X236744Y499581D02*
D03*
X194852Y345443D02*
D03*
X171958Y490761D02*
D03*
X109330Y506965D02*
D03*
X195953Y511054D02*
D03*
X180321Y513264D02*
D03*
X159189Y517933D02*
D03*
X248738Y177757D02*
D03*
X99859Y291459D02*
D03*
X223564Y202360D02*
D03*
X152684Y230558D02*
D03*
X171462Y227983D02*
D03*
D130*
X157646Y604522D02*
D03*
X113760Y252348D02*
D03*
X255809Y518694D02*
D03*
X109979Y473752D02*
D03*
X118378Y452124D02*
D03*
X113760Y527148D02*
D03*
X201037Y547622D02*
D03*
X270787Y353703D02*
D03*
X35963Y573387D02*
D03*
D131*
X714340Y645920D02*
D03*
X183640D02*
D03*
Y115920D02*
D03*
M02*
