G04*
G04 #@! TF.GenerationSoftware,Altium Limited,Altium Designer,23.1.1 (15)*
G04*
G04 Layer_Color=16711935*
%FSLAX44Y44*%
%MOMM*%
G71*
G04*
G04 #@! TF.SameCoordinates,9C76BA79-DA27-457B-B569-9ED225C8ECFE*
G04*
G04*
G04 #@! TF.FilePolarity,Negative*
G04*
G01*
G75*
%ADD77R,1.0500X1.1000*%
%ADD79R,1.1000X1.0500*%
%ADD88R,0.7000X0.9000*%
%ADD95R,1.7000X1.7000*%
%ADD96C,1.7000*%
G04:AMPARAMS|DCode=97|XSize=1.25mm|YSize=1.25mm|CornerRadius=0.05mm|HoleSize=0mm|Usage=FLASHONLY|Rotation=0.000|XOffset=0mm|YOffset=0mm|HoleType=Round|Shape=RoundedRectangle|*
%AMROUNDEDRECTD97*
21,1,1.2500,1.1500,0,0,0.0*
21,1,1.1500,1.2500,0,0,0.0*
1,1,0.1000,0.5750,-0.5750*
1,1,0.1000,-0.5750,-0.5750*
1,1,0.1000,-0.5750,0.5750*
1,1,0.1000,0.5750,0.5750*
%
%ADD97ROUNDEDRECTD97*%
%ADD98C,1.2500*%
G04:AMPARAMS|DCode=99|XSize=2.2mm|YSize=2.2mm|CornerRadius=0.575mm|HoleSize=0mm|Usage=FLASHONLY|Rotation=90.000|XOffset=0mm|YOffset=0mm|HoleType=Round|Shape=RoundedRectangle|*
%AMROUNDEDRECTD99*
21,1,2.2000,1.0500,0,0,90.0*
21,1,1.0500,2.2000,0,0,90.0*
1,1,1.1500,0.5250,0.5250*
1,1,1.1500,0.5250,-0.5250*
1,1,1.1500,-0.5250,-0.5250*
1,1,1.1500,-0.5250,0.5250*
%
%ADD99ROUNDEDRECTD99*%
%ADD100C,2.2000*%
%ADD101C,5.1000*%
G04:AMPARAMS|DCode=102|XSize=2.2mm|YSize=2.2mm|CornerRadius=0.575mm|HoleSize=0mm|Usage=FLASHONLY|Rotation=0.000|XOffset=0mm|YOffset=0mm|HoleType=Round|Shape=RoundedRectangle|*
%AMROUNDEDRECTD102*
21,1,2.2000,1.0500,0,0,0.0*
21,1,1.0500,2.2000,0,0,0.0*
1,1,1.1500,0.5250,-0.5250*
1,1,1.1500,-0.5250,-0.5250*
1,1,1.1500,-0.5250,0.5250*
1,1,1.1500,0.5250,0.5250*
%
%ADD102ROUNDEDRECTD102*%
%ADD103C,0.6080*%
%ADD104C,1.3700*%
%ADD105C,3.6080*%
G04:AMPARAMS|DCode=133|XSize=1.05mm|YSize=0.45mm|CornerRadius=0.0495mm|HoleSize=0mm|Usage=FLASHONLY|Rotation=180.000|XOffset=0mm|YOffset=0mm|HoleType=Round|Shape=RoundedRectangle|*
%AMROUNDEDRECTD133*
21,1,1.0500,0.3510,0,0,180.0*
21,1,0.9510,0.4500,0,0,180.0*
1,1,0.0990,-0.4755,0.1755*
1,1,0.0990,0.4755,0.1755*
1,1,0.0990,0.4755,-0.1755*
1,1,0.0990,-0.4755,-0.1755*
%
%ADD133ROUNDEDRECTD133*%
%ADD134C,0.2282*%
G04:AMPARAMS|DCode=135|XSize=0.7mm|YSize=0.25mm|CornerRadius=0.05mm|HoleSize=0mm|Usage=FLASHONLY|Rotation=270.000|XOffset=0mm|YOffset=0mm|HoleType=Round|Shape=RoundedRectangle|*
%AMROUNDEDRECTD135*
21,1,0.7000,0.1500,0,0,270.0*
21,1,0.6000,0.2500,0,0,270.0*
1,1,0.1000,-0.0750,-0.3000*
1,1,0.1000,-0.0750,0.3000*
1,1,0.1000,0.0750,0.3000*
1,1,0.1000,0.0750,-0.3000*
%
%ADD135ROUNDEDRECTD135*%
G04:AMPARAMS|DCode=136|XSize=0.25mm|YSize=0.7mm|CornerRadius=0.05mm|HoleSize=0mm|Usage=FLASHONLY|Rotation=270.000|XOffset=0mm|YOffset=0mm|HoleType=Round|Shape=RoundedRectangle|*
%AMROUNDEDRECTD136*
21,1,0.2500,0.6000,0,0,270.0*
21,1,0.1500,0.7000,0,0,270.0*
1,1,0.1000,-0.3000,-0.0750*
1,1,0.1000,-0.3000,0.0750*
1,1,0.1000,0.3000,0.0750*
1,1,0.1000,0.3000,-0.0750*
%
%ADD136ROUNDEDRECTD136*%
G04:AMPARAMS|DCode=137|XSize=2.35mm|YSize=1.33mm|CornerRadius=0.0532mm|HoleSize=0mm|Usage=FLASHONLY|Rotation=270.000|XOffset=0mm|YOffset=0mm|HoleType=Round|Shape=RoundedRectangle|*
%AMROUNDEDRECTD137*
21,1,2.3500,1.2236,0,0,270.0*
21,1,2.2436,1.3300,0,0,270.0*
1,1,0.1064,-0.6118,-1.1218*
1,1,0.1064,-0.6118,1.1218*
1,1,0.1064,0.6118,1.1218*
1,1,0.1064,0.6118,-1.1218*
%
%ADD137ROUNDEDRECTD137*%
G04:AMPARAMS|DCode=138|XSize=2.1mm|YSize=4.5mm|CornerRadius=0.0525mm|HoleSize=0mm|Usage=FLASHONLY|Rotation=270.000|XOffset=0mm|YOffset=0mm|HoleType=Round|Shape=RoundedRectangle|*
%AMROUNDEDRECTD138*
21,1,2.1000,4.3950,0,0,270.0*
21,1,1.9950,4.5000,0,0,270.0*
1,1,0.1050,-2.1975,-0.9975*
1,1,0.1050,-2.1975,0.9975*
1,1,0.1050,2.1975,0.9975*
1,1,0.1050,2.1975,-0.9975*
%
%ADD138ROUNDEDRECTD138*%
%ADD139C,1.6031*%
%ADD140C,0.3938*%
G04:AMPARAMS|DCode=145|XSize=0.4mm|YSize=0.5mm|CornerRadius=0.05mm|HoleSize=0mm|Usage=FLASHONLY|Rotation=180.000|XOffset=0mm|YOffset=0mm|HoleType=Round|Shape=RoundedRectangle|*
%AMROUNDEDRECTD145*
21,1,0.4000,0.4000,0,0,180.0*
21,1,0.3000,0.5000,0,0,180.0*
1,1,0.1000,-0.1500,0.2000*
1,1,0.1000,0.1500,0.2000*
1,1,0.1000,0.1500,-0.2000*
1,1,0.1000,-0.1500,-0.2000*
%
%ADD145ROUNDEDRECTD145*%
G04:AMPARAMS|DCode=146|XSize=0.6mm|YSize=0.6mm|CornerRadius=0.051mm|HoleSize=0mm|Usage=FLASHONLY|Rotation=270.000|XOffset=0mm|YOffset=0mm|HoleType=Round|Shape=RoundedRectangle|*
%AMROUNDEDRECTD146*
21,1,0.6000,0.4980,0,0,270.0*
21,1,0.4980,0.6000,0,0,270.0*
1,1,0.1020,-0.2490,-0.2490*
1,1,0.1020,-0.2490,0.2490*
1,1,0.1020,0.2490,0.2490*
1,1,0.1020,0.2490,-0.2490*
%
%ADD146ROUNDEDRECTD146*%
%ADD148R,0.9000X0.7000*%
%ADD149R,1.5000X2.3000*%
%ADD150R,2.3000X1.5000*%
%ADD151R,0.7096X0.4810*%
G04:AMPARAMS|DCode=152|XSize=0.7mm|YSize=1.1mm|CornerRadius=0.2mm|HoleSize=0mm|Usage=FLASHONLY|Rotation=90.000|XOffset=0mm|YOffset=0mm|HoleType=Round|Shape=RoundedRectangle|*
%AMROUNDEDRECTD152*
21,1,0.7000,0.7000,0,0,90.0*
21,1,0.3000,1.1000,0,0,90.0*
1,1,0.4000,0.3500,0.1500*
1,1,0.4000,0.3500,-0.1500*
1,1,0.4000,-0.3500,-0.1500*
1,1,0.4000,-0.3500,0.1500*
%
%ADD152ROUNDEDRECTD152*%
G36*
X458503Y481422D02*
X458503Y481421D01*
X458503Y481421D01*
X460003D01*
X463494Y481421D01*
X463495Y481421D01*
X463497Y481421D01*
X463499Y481421D01*
X463502D01*
X463503Y481421D01*
X463503Y481421D01*
X468043Y481421D01*
X468043Y474921D01*
Y474822D01*
X467967Y474638D01*
X467826Y474497D01*
X467642Y474421D01*
X467543D01*
X430963Y474421D01*
X430863Y474421D01*
X430679Y474496D01*
X430538Y474637D01*
X430462Y474822D01*
X430463Y474921D01*
X430463Y481421D01*
X445003D01*
X448495Y481421D01*
X448496D01*
X448498Y481421D01*
X453500D01*
X453501Y481421D01*
X453502Y481421D01*
X453503D01*
X453503Y481421D01*
X453503Y481421D01*
X458499D01*
X458500Y481422D01*
X458501Y481422D01*
X458502Y481422D01*
X458503Y481422D01*
D02*
G37*
G36*
X406166Y481345D02*
X406307Y481204D01*
X406383Y481021D01*
X406383Y480921D01*
X406383Y474921D01*
X406383D01*
X406383Y474822D01*
X406307Y474638D01*
X406166Y474497D01*
X405982Y474421D01*
X405883Y474421D01*
X399383Y474421D01*
X399283Y474421D01*
X399100Y474497D01*
X398959Y474638D01*
X398883Y474822D01*
X398883Y474921D01*
Y476421D01*
X398883Y476421D01*
Y476521D01*
X398959Y476704D01*
X399100Y476845D01*
X399283Y476921D01*
X399383D01*
X403383Y476921D01*
Y476921D01*
X403480Y476931D01*
X403661Y477005D01*
X403798Y477143D01*
X403873Y477324D01*
X403883Y477421D01*
Y480921D01*
X403883Y480921D01*
Y481021D01*
X403959Y481204D01*
X404100Y481345D01*
X404283Y481421D01*
X404383D01*
X405883Y481421D01*
X405883Y481421D01*
X405982Y481421D01*
X406166Y481345D01*
D02*
G37*
G36*
X568653Y462971D02*
Y445174D01*
X566855Y443376D01*
X543003D01*
X539142Y447236D01*
X465456D01*
X465271Y447421D01*
X450443Y447421D01*
Y468334D01*
X502468D01*
X515661Y481527D01*
X550097D01*
X568653Y462971D01*
D02*
G37*
G36*
X467826Y439345D02*
X467967Y439205D01*
X468043Y439021D01*
X468043Y438921D01*
X468043Y432421D01*
X463500Y432421D01*
X460014D01*
X460014Y432422D01*
X460013Y432421D01*
X460010Y432421D01*
X460007Y432421D01*
X460004Y432421D01*
X460003Y432421D01*
X458501Y432421D01*
X455010Y432421D01*
X455011Y432422D01*
X455010Y432421D01*
X455008Y432421D01*
X455006Y432421D01*
X455004Y432421D01*
X455003Y432421D01*
X453501Y432421D01*
X450013D01*
X450013Y432422D01*
X450011Y432422D01*
X450009Y432421D01*
X450006Y432421D01*
X450004Y432421D01*
X450003Y432421D01*
X448501Y432421D01*
X445012D01*
X445012Y432422D01*
X445011Y432422D01*
X445009Y432421D01*
X445006Y432421D01*
X445004Y432421D01*
X445003Y432421D01*
X443502Y432421D01*
X440011D01*
X440011Y432422D01*
X440010Y432422D01*
X440008Y432421D01*
X440006Y432421D01*
X440004Y432421D01*
X440003Y432421D01*
X438503Y432421D01*
X435011D01*
X435011Y432423D01*
X435010Y432422D01*
X435008Y432421D01*
X435006Y432421D01*
X435004Y432421D01*
X435003Y432421D01*
X430463Y432421D01*
X430463Y438921D01*
Y439021D01*
X430539Y439204D01*
X430680Y439345D01*
X430863Y439421D01*
X430963D01*
X467543Y439421D01*
Y439421D01*
X467642Y439421D01*
X467826Y439345D01*
D02*
G37*
G36*
X405883Y439421D02*
X405982Y439421D01*
X406166Y439345D01*
X406307Y439204D01*
X406383Y439021D01*
X406383Y438921D01*
X406383Y438921D01*
X406383Y432921D01*
Y432822D01*
X406307Y432638D01*
X406166Y432497D01*
X405982Y432421D01*
X405883Y432421D01*
X404383D01*
X404283Y432421D01*
X404100Y432497D01*
X403959Y432638D01*
X403883Y432822D01*
X403883Y432921D01*
X403883Y432921D01*
X403883Y436421D01*
X403873Y436519D01*
X403798Y436699D01*
X403661Y436837D01*
X403480Y436912D01*
X403383Y436921D01*
Y436921D01*
X399383D01*
X399283Y436921D01*
X399100Y436997D01*
X398959Y437138D01*
X398883Y437322D01*
X398883Y437421D01*
Y438921D01*
X398883Y439021D01*
X398959Y439204D01*
X399100Y439345D01*
X399283Y439421D01*
X399383Y439421D01*
Y439421D01*
X405883Y439421D01*
D02*
G37*
D77*
X461621Y61092D02*
D03*
Y45092D02*
D03*
X258671Y780307D02*
D03*
Y764307D02*
D03*
X374489Y752245D02*
D03*
Y768245D02*
D03*
D79*
X477606Y26529D02*
D03*
X461606D02*
D03*
X290248Y764054D02*
D03*
X274248D02*
D03*
X350178Y785203D02*
D03*
X334178D02*
D03*
D88*
X447139Y32529D02*
D03*
Y20529D02*
D03*
X447228Y59092D02*
D03*
Y47092D02*
D03*
X192764Y199150D02*
D03*
Y187150D02*
D03*
D95*
X138337Y718971D02*
D03*
D96*
Y744371D02*
D03*
X163737Y718971D02*
D03*
X189137D02*
D03*
X214537D02*
D03*
X239937D02*
D03*
X265337D02*
D03*
X290737D02*
D03*
X316137D02*
D03*
X163737Y744371D02*
D03*
X189137D02*
D03*
X214537D02*
D03*
X239937D02*
D03*
X265337D02*
D03*
X290737D02*
D03*
X316137D02*
D03*
D97*
X457739Y235799D02*
D03*
X760653Y544533D02*
D03*
D98*
X507739Y235799D02*
D03*
X710653Y544533D02*
D03*
D99*
X626699Y283356D02*
D03*
X626986Y112783D02*
D03*
D100*
X626699Y346856D02*
D03*
X626986Y176283D02*
D03*
X399360Y99533D02*
D03*
D101*
X34798Y20828D02*
D03*
X793158Y18958D02*
D03*
X34290Y774700D02*
D03*
X790702Y774446D02*
D03*
D102*
X335860Y99533D02*
D03*
D103*
X471486Y408652D02*
D03*
X458150Y408321D02*
D03*
X445179Y408494D02*
D03*
X431669Y408652D02*
D03*
D104*
X157646Y604522D02*
D03*
X113760Y252348D02*
D03*
X255809Y518694D02*
D03*
X109979Y473752D02*
D03*
X118378Y452124D02*
D03*
X113760Y527148D02*
D03*
X201037Y547622D02*
D03*
X270787Y353703D02*
D03*
X35963Y573387D02*
D03*
D105*
X714340Y645920D02*
D03*
X183640D02*
D03*
Y115920D02*
D03*
D133*
X505045Y65691D02*
D03*
Y59191D02*
D03*
Y52691D02*
D03*
Y46192D02*
D03*
X479045D02*
D03*
Y52691D02*
D03*
Y59191D02*
D03*
Y65691D02*
D03*
D134*
X404633Y476171D02*
D03*
Y437671D02*
D03*
D135*
X420133Y477921D02*
D03*
X415133D02*
D03*
X410133D02*
D03*
X420133Y435921D02*
D03*
X415133D02*
D03*
X410133D02*
D03*
D136*
X402383Y468671D02*
D03*
Y463671D02*
D03*
Y458671D02*
D03*
Y453671D02*
D03*
Y448671D02*
D03*
D137*
X416033Y459171D02*
D03*
D138*
X435563Y457919D02*
D03*
D139*
X460414Y457515D02*
D03*
D140*
X449230Y476609D02*
D03*
X449230Y437234D02*
D03*
D145*
X386230Y479441D02*
D03*
X394230D02*
D03*
X394346Y486623D02*
D03*
X386346D02*
D03*
D146*
X386741Y460974D02*
D03*
Y471474D02*
D03*
D148*
X180191Y498642D02*
D03*
X192190D02*
D03*
D149*
X527352Y416393D02*
D03*
D150*
X521352Y554636D02*
D03*
X417246D02*
D03*
D151*
X487237Y438054D02*
D03*
Y448214D02*
D03*
X444996Y414315D02*
D03*
Y424475D02*
D03*
X457996Y414315D02*
D03*
Y424475D02*
D03*
X470997Y414315D02*
D03*
Y424475D02*
D03*
X405624Y427255D02*
D03*
Y417095D02*
D03*
X392951Y427216D02*
D03*
Y417057D02*
D03*
X478437Y438058D02*
D03*
Y448218D02*
D03*
X431996Y424475D02*
D03*
Y414315D02*
D03*
D152*
X333635Y759304D02*
D03*
X357635Y749804D02*
D03*
Y768804D02*
D03*
M02*
